<svg id="Layer_1" enableBackground="new 0 0 512 512" viewBox="0 0 512 512" xmlns="http://www.w3.org/2000/svg"><g clip-rule="evenodd" fill-rule="evenodd"><path d="m379 498.3 10-197.8v-205.6l-96-40.7-95.9-40.5v81.2 167.6 235.8z" fill="#02a9f4"/><path d="m197.1 250.1v12.4 235.8h52.3v-248.2z" fill="#088fcc"/><path d="m197.1 262.5h40v235.8h-40z" fill="#02a9f4"/><path d="m379 498.3 10-197.8v-12.5c-28.9 6.9-50.5 32.9-50.5 64 0 16.5 6.2 31.7 16.3 43.2-40.2 9-70.4 44.9-70.4 87.8 0 5.6 1.7 10.9 4.6 15.3z" fill="#088fcc"/><path d="m307.9 94.7h-32.1v32.1h32.1zm-54.8 111.9h-32.1v31.9h32.1zm54.8 0h-32.1v31.9h32.1zm54.6 0h-31.9v31.9h31.9zm-109.4-56h-32.1v31.9h32.1zm54.8 0h-32.1v31.9h32.1zm54.6 0h-31.9v31.9h31.9z" fill="#fff"/><path d="m136.6 498.3.9-235.8v-102.7l-68.8-30.5-68.7-30.5v61 338.5z" fill="#02a9f4"/><path d="m136.6 498.3.9-235.8v-12.4h-26.6v248.2z" fill="#088fcc"/><path d="m56.2 157.6h-31.9v31.9h31.9zm0 167.2h-31.9v32.1h31.9zm0-55.3h-31.9v31.9h31.9zm0-55.9h-31.9v31.9h31.9zm54.8 0h-32.1v31.9h32.1z" fill="#fff"/><path d="m434.5 405.4h-60.4c-42.6 0-77.6 34.9-77.6 77.6 0 8.4 6.9 15.3 15.4 15.3h184.6c8.5 0 15.4-6.9 15.4-15.3.1-42.7-34.8-77.6-77.4-77.6z" fill="#00c8c8"/><path d="m434.5 405.4h-30.2v92.9h92.3c8.5 0 15.4-6.9 15.4-15.3 0-42.7-34.9-77.6-77.5-77.6z" fill="#03b7b7"/><path d="m341.3 498.3h14.5v-32.4c0-4-3.3-7.2-7.3-7.2-3.9 0-7.2 3.2-7.2 7.2zm111.7 0h14.3v-32.4c0-4-3.2-7.2-7.2-7.2s-7.2 3.2-7.2 7.2v32.4z" fill="#06a8a8"/><path d="m404.3 298.6c-29.5 0-53.4 23.9-53.4 53.4s23.9 53.4 53.4 53.4 53.6-23.9 53.6-53.4c-.1-29.5-24.1-53.4-53.6-53.4z" fill="#f6dccd"/><path d="m404.3 405.4c29.5 0 53.6-23.9 53.6-53.4s-24-53.4-53.6-53.4z" fill="#e1c9bc"/><path d="m123.3 262.5h113.8v235.8h-113.8z" fill="#808184"/><g fill="#fff"><path d="m164.2 296.1h31.9v31.9h-31.9z"/><path d="m164.2 364.4h31.9v32.1h-31.9z"/><path d="m164.2 432.8h31.9v31.9h-31.9z"/></g></g></svg>