<svg id="Layer_1" viewBox="0 0 512 512" xmlns="http://www.w3.org/2000/svg" data-name="Layer 1"><path d="m146.158 95.755c-43.579-7.447-50.879 25.335-39.696 35.807 10.23 9.58 39.696 5.196 39.696-35.807z" fill="#b6dbff" fill-rule="evenodd"/><path d="m63.658 133.855c-43.579-7.447-50.879 25.335-39.696 35.807 10.23 9.58 39.696 5.196 39.696-35.807z" fill="#b6dbff" fill-rule="evenodd"/><circle cx="234.629" cy="212.662" fill="#f9ac00" r="104.501" transform="matrix(.957 -.29 .29 .957 -51.558 77.117)"/><g fill-rule="evenodd"><path d="m234.629 108.161c54.989 0 100.057 42.472 104.191 96.401-4.134 53.929-49.203 96.401-104.191 96.401s-100.057-42.472-104.191-96.401c4.134-53.929 49.203-96.401 104.191-96.401z" fill="#fdc72e"/><path d="m459.087 130.296c23.201-26.832 35.579-62.552 41.364-100.073 2.82-18.3-5.278-21.205-20.75-18.2-40.937 7.952-86.51 7.952-127.447 0-15.472-3.005-23.57-.1-20.75 18.2 5.784 37.521 18.162 73.241 41.363 100.073 30.52 35.293 55.7 35.293 86.22 0z" fill="#43f043"/><path d="m488.465 11.001c-2.582.016-5.528.385-8.806 1.022-40.923 7.949-86.481 7.949-127.405 0-15.467-3.004-23.562-.1-20.743 18.194 5.783 37.509 18.156 73.217 41.35 100.04 9.932 11.485 19.298 19.228 28.466 23.235 15.756 2.593 31.291-6.075 48.53-26.01 23.194-26.823 35.567-62.531 41.35-100.04 1.304-8.459.272-13.626-2.742-16.442z" fill="#adffad"/><path d="m455.228 256.916c15.462-31.912 18.171-69.606 14.049-107.334-2.012-18.4-10.583-19.11-24.746-12.206-37.471 18.27-81.477 30.061-123.064 32.975-15.718 1.102-22.785 6.002-15.328 22.943 15.294 34.734 36.488 66.023 65.834 85.929 38.602 26.183 62.916 19.668 83.254-22.308z" fill="#fcdb35"/><path d="m452.772 134.11c-2.49.684-5.24 1.803-8.242 3.266-37.471 18.27-81.477 30.061-123.064 32.975-15.718 1.102-22.785 6.002-15.328 22.943 15.294 34.734 36.488 66.023 65.834 85.929 12.566 8.523 23.617 13.578 33.51 15.076 15.89-1.574 28.652-13.967 40.144-37.685 15.462-31.912 18.171-69.606 14.049-107.334-.93-8.508-3.264-13.232-6.904-15.172z" fill="#ffeb87"/><path d="m82.542 246.173c-43.579-7.447-50.879 25.335-39.696 35.807 10.23 9.58 39.696 5.196 39.696-35.807z" fill="#b6dbff"/><path d="m64.168 82.442 82.296-38.327v-33.117l-82.296 38.327z" fill="#b6dbff"/></g><circle cx="415.431" cy="372.058" fill="#4eb1fc" r="85.574" transform="matrix(.949 -.316 .316 .949 -96.336 150.464)"/><path d="m412.619 457.581c-45.959-1.485-82.761-39.203-82.761-85.523s36.802-84.038 82.761-85.523c45.959 1.485 82.761 39.203 82.761 85.523s-36.802 84.038-82.761 85.523z" fill="#85caff" fill-rule="evenodd"/><circle cx="415.431" cy="372.058" fill="#fff" r="66.201" transform="matrix(.707 -.707 .707 .707 -141.408 402.728)"/><path d="m64.92 389.201h172.131v71.911c0 3.987-2.032 7.409-5.533 9.316-23.163 12.616-50.822 19.951-80.532 19.951s-57.369-7.335-80.531-19.951c-3.502-1.907-5.534-5.328-5.534-9.316v-71.911z" fill="#7986bf" fill-rule="evenodd"/><path d="m64.92 389.201h151.727v69.397c0 3.987-1.851 7.791-5.534 9.316-42.59 17.63-95.767 17.568-146.193-11.46z" fill="#909cd1" fill-rule="evenodd"/><path d="m15.295 377.112 128.539-34.442c4.899-1.313 9.402-1.313 14.3 0l128.539 34.442c2.579.691 4.311 2.949 4.311 5.618s-1.733 4.927-4.311 5.618l-128.539 34.442c-4.899 1.313-9.401 1.313-14.3 0l-128.539-34.442c-2.579-.691-4.311-2.948-4.311-5.618s1.732-4.927 4.311-5.618z" fill="#3d4a75" fill-rule="evenodd"/><path d="m274.933 373.966-116.798 31.296c-4.899 1.313-9.401 1.313-14.301 0l-116.798-31.296 116.798-31.296c4.9-1.313 9.402-1.313 14.301 0z" fill="#5d689e" fill-rule="evenodd"/><path d="m289.304 428.846 13.642 13.642c1.11 1.11 1.67 2.462 1.67 4.032v52.569c0 1.693-2.046 2.541-3.243 1.344l-14.757-14.757-14.756 14.756c-1.197 1.197-3.244.351-3.244-1.343v-52.569c0-1.57.559-2.921 1.67-4.032l13.643-13.642c1.48-1.48 3.895-1.48 5.375 0z" fill="#fcdb35" fill-rule="evenodd"/><path d="m297.728 496.787-14.522-14.589-14.589 14.589v-50.267c0-1.571.56-2.922 1.67-4.032l12.885-12.885 12.885 12.885c1.11 1.11 1.67 2.463 1.67 4.032v50.267z" fill="#ffeb87" fill-rule="evenodd"/><path d="m29.241 164.502c2.458 2.292 8.05 3.43 13.592 1.03 7.905-3.428 12.918-12.619 14.075-25.608-1.687-.141-3.278-.211-4.868-.211-11.616 0-20.003 3.87-23.618 11.18-2.747 5.479-1.735 11.219.82 13.609zm41.934-93.04 68.252-31.808v-17.67l-68.252 31.798zm68.011 30.131c-1.687-.139-3.278-.211-4.82-.211-11.665 0-20.051 3.88-23.666 11.18-2.699 5.481-1.687 11.22.819 13.611 2.458 2.299 8.049 3.44 13.592 1.03 7.905-3.431 12.918-12.611 14.075-25.61zm-119.488 73.129c-7.423-6.94-9.014-19.579-3.808-30.059 2.555-5.2 12.773-20.781 41.259-18.749v-76.592c0-2.718 1.591-5.189 4.049-6.339l82.278-38.332c2.217-1.007 4.724-.839 6.748.444 2.024 1.287 3.229 3.509 3.229 5.909v84.658c-.048 31.181-15.954 41.43-22.751 44.391-3.904 1.689-8.001 2.51-12.002 2.51-6.363 0-12.388-2.11-16.726-6.17-7.423-6.94-9.014-19.581-3.808-30.05 2.555-5.2 12.821-20.79 41.26-18.761v-32.49l-68.252 31.81v47.089c-.096 31.17-15.954 41.42-22.751 44.39-3.904 1.691-8.001 2.51-12.002 2.51-6.362 0-12.436-2.12-16.726-6.17zm402.715 194.442v-36.691c0-3.871-3.133-7-6.989-7s-6.989 3.129-6.989 7v39.579c0 1.86.723 3.641 2.025 4.949l26.703 26.691c1.35 1.371 3.181 2.05 4.965 2.05s3.567-.68 4.916-2.05c2.747-2.73 2.747-7.16 0-9.89l-24.63-24.638zm71.577 2.888c0 43.331-35.234 78.581-78.566 78.581s-78.567-35.25-78.567-78.581 35.235-78.569 78.567-78.569 78.566 35.249 78.566 78.569zm-102.329-89.47c7.567-2.019 15.569-3.099 23.763-3.099 5.013 0 9.881.399 14.653 1.169 6.604-5.53 12.821-14.319 18.846-26.789 13.352-27.601 17.882-62.431 13.4-103.52-.916-8.251-2.989-9.621-3.229-9.751-.578-.309-3.085-1.019-11.52 3.08-38.368 18.721-83.001 30.671-125.61 33.661-9.351.65-11.183 2.529-11.52 3.089-.144.23-1.253 2.459 2.121 10.049 16.629 37.83 37.933 65.741 63.335 82.961 5.591 3.8 10.893 6.87 15.762 9.149zm-64.107-37.469c-4.916 13.98-12.628 26.32-22.51 36.42-16.292-16.661-26.221-38.63-27.86-61.869h34.174c5.061 9.169 10.459 17.659 16.195 25.45zm-163.255 36.299c16.243-16.65 26.125-38.57 27.763-61.749h-55.575c1.687 23.949 12.002 45.558 27.812 61.749zm-27.812-75.75h55.575c-1.639-23.179-11.52-45.1-27.763-61.749-15.81 16.179-26.125 37.79-27.812 61.749zm105.125 105.13c19.714-1.369 37.982-8.49 52.972-19.96-18.605-19.211-29.788-44.489-31.427-71.169h-21.546v91.129zm-35.523-91.129h21.546v91.14c-19.81-1.401-37.982-8.68-52.828-20.089 18.509-19.192 29.643-44.431 31.282-71.05zm21.546-105.141v91.14h-21.546c-1.639-26.62-12.773-51.861-31.282-71.051 14.846-11.419 33.017-18.689 52.828-20.089zm35.523 91.14c1.639-26.631 12.773-51.87 31.282-71.069-15.039-11.53-33.355-18.681-52.828-20.071v91.14zm41.79-61.779c5.736 5.82 10.701 12.379 14.894 19.57-7.809.65-16.966 2.459-21.353 9.729-3.47 5.701-3.037 13.201 1.253 22.931 1.398 3.25 2.892 6.43 4.386 9.55h-26.944c1.639-23.191 11.52-45.129 27.763-61.779zm98.232 2.809c-7.76-3.649-16.002-10.529-25.016-20.969-20.1-23.212-33.451-55.702-39.766-96.57-1.253-8.2.434-10.061.579-10.249.482-.463 2.747-1.793 11.954-.01 41.934 8.148 88.159 8.148 130.093 0 9.206-1.783 11.423-.443 11.906.01.193.188 1.88 2.049.578 10.249-6.266 40.869-19.666 73.349-39.717 96.57-.386.409-.723.8-1.06 1.199-4.001.85-7.857 2.501-11.279 4.159-12.195 5.952-25.064 11.161-38.271 15.611zm104.836 225.36c0 51.051-41.549 92.58-92.593 92.58s-92.593-41.53-92.593-92.58c0-36.308 21.064-67.799 51.526-82.95-2.024-1.259-4.145-2.619-6.314-4.089-10.893-7.381-21.063-16.499-30.463-27.311-7.76 17.671-20.148 33.351-35.668 44.971-19.521 14.639-42.802 22.379-67.288 22.379-61.986 0-112.403-50.421-112.403-112.39s50.417-112.39 112.403-112.39c42.464 0 81.314 24.089 100.353 61.77 16.822-1.961 33.837-5.322 50.514-9.93-5.832-4.421-11.761-10.13-17.93-17.241-21.787-25.23-36.295-60.079-42.995-103.58-1.591-10.518-.048-17.868 4.724-22.481 6.411-6.179 16.34-5.196 24.293-3.658 40.247 7.808 84.544 7.808 124.791 0 7.905-1.538 17.834-2.521 24.245 3.658 4.82 4.613 6.362 11.963 4.724 22.481-6.266 40.801-19.377 73.992-38.994 98.771 4.338 3.64 6.893 9.8 7.905 18.759 4.772 43.74-.193 81.14-14.749 111.141-4.916 10.178-10.074 18.35-15.617 24.68 36.15 12.63 62.13 47.039 62.13 87.409zm-432.743-119.759c-1.687-.139-3.278-.211-4.868-.211-11.616 0-20.003 3.872-23.618 11.18-2.748 5.481-1.735 11.22.819 13.611 2.458 2.289 8.049 3.43 13.593 1.03 7.905-3.431 12.917-12.621 14.074-25.61zm22.172-42.14-1.591 7.75c-.771 3.79 1.687 7.481 5.446 8.25 3.808.77 7.519-1.681 8.29-5.46l1.542-7.75c2.265-11.18-1.542-22.261-10.267-29.63l-13.834-11.66c-2.073-1.76-4.965-2.15-7.423-1.011-2.506 1.151-4.097 3.631-4.097 6.351v61.29c-28.486-2.03-38.705 13.551-41.26 18.749-5.206 10.482-3.615 23.121 3.808 30.061 4.338 4.05 10.363 6.17 16.726 6.17 4.001 0 8.098-.831 12.002-2.521 6.796-2.959 22.702-13.21 22.751-44.38v-54.289l2.266 1.941c4.82 4.069 6.893 9.958 5.639 16.139zm200.128 237.519-10.99-11.018-11.038 11.018v39.11l6.073-6.068c1.301-1.31 3.085-2.051 4.965-2.051 1.832 0 3.615.74 4.916 2.051l6.073 6.068v-39.11zm-67.77-36.899-69.891 18.74c-3.085.821-6.025 1.231-8.965 1.231s-5.929-.41-8.965-1.231l-69.939-18.74v52.531c23.329 13.159 50.514 20.09 78.904 20.09s55.575-6.931 78.856-20.09zm-208.419-28.069 124.213 33.291c3.711.979 6.989.979 10.652 0l124.212-33.291-124.212-33.281c-3.663-.988-6.941-.988-10.652 0zm288.142 57.12-15.954-15.97v-31.53c2.699-2.359 4.29-5.789 4.29-9.619 0-5.88-3.808-10.85-9.495-12.37l-128.454-34.429c-6.121-1.64-11.809-1.64-17.931 0l-128.502 34.427c-5.688 1.52-9.496 6.49-9.496 12.37s3.808 10.861 9.496 12.38l44.585 11.941v60.309c0 2.461 1.301 4.73 3.374 6 26.221 15.74 57.214 24.061 89.508 24.061s63.239-8.32 89.46-24.061c2.121-1.271 3.422-3.54 3.422-6v-60.309l35.765-9.581v26.41l-16.002 15.97c-1.301 1.31-2.024 3.089-2.024 4.95v54.32c0 3.611 2.121 6.84 5.495 8.22 1.109.46 2.265.691 3.422.691 2.265 0 4.579-.911 6.266-2.621l9.833-9.819 9.785 9.819c2.555 2.56 6.363 3.319 9.737 1.93 3.326-1.38 5.495-4.609 5.495-8.22v-54.32c0-1.861-.771-3.64-2.073-4.95zm76.831-231.119c-2.41 3-6.844 3.449-9.833 1.009-3.904-3.18-9.158-4.301-14.026-3-4.868 1.309-8.821 4.899-10.652 9.61-1.061 2.79-3.712 4.509-6.507 4.509-.868 0-1.687-.15-2.506-.459-3.615-1.371-5.447-5.421-4.049-9.03 3.374-8.9 10.893-15.69 20.099-18.15 9.206-2.47 19.087-.35 26.462 5.669 3.036 2.44 3.47 6.852 1.012 9.841zm21.112-5.65c-3.615-1.371-5.398-5.421-4.049-9.03 3.422-8.9 10.893-15.69 20.1-18.15 9.206-2.47 19.087-.35 26.51 5.66 2.988 2.449 3.422 6.85 1.012 9.851-2.459 2.999-6.893 3.449-9.881 1.009-3.904-3.18-9.11-4.3-14.026-2.999-4.869 1.299-8.821 4.899-10.604 9.61-1.06 2.79-3.76 4.51-6.555 4.51-.819 0-1.687-.151-2.506-.46zm27.378 39.729c-4.435 9.49-12.773 16.481-22.895 19.19-3.037.81-6.121 1.211-9.158 1.211-7.182 0-14.219-2.19-20.244-6.39-3.181-2.22-3.952-6.581-1.687-9.749 2.217-3.171 6.555-3.941 9.737-1.721 5.157 3.621 11.616 4.76 17.738 3.131 6.121-1.642 11.134-5.861 13.785-11.581 1.639-3.51 5.832-5.019 9.303-3.389 3.519 1.629 5.013 5.799 3.422 9.299zm-28.246-184.63c2.266-3.129 1.591-7.511-1.542-9.77-3.133-2.269-7.519-1.559-9.785 1.57-2.988 4.089-7.712 6.53-12.773 6.53s-9.833-2.441-12.773-6.53c-2.265-3.129-6.652-3.839-9.785-1.57-3.133 2.259-3.856 6.641-1.591 9.77 5.591 7.72 14.605 12.331 24.148 12.331 9.495 0 18.557-4.611 24.1-12.331zm36.44 51.06c-6.748-8.021-16.581-12.621-27.089-12.621s-20.292 4.6-27.04 12.621c-2.507 2.96-2.121 7.381.867 9.86 1.301 1.1 2.892 1.64 4.483 1.64 1.976 0 4-.851 5.35-2.5 4.097-4.841 10.026-7.62 16.34-7.62s12.291 2.779 16.34 7.62c2.506 2.96 6.941 3.349 9.881.86 2.94-2.479 3.326-6.9.868-9.86zm-17.738-51.06c5.591 7.72 14.605 12.331 24.148 12.331 9.496 0 18.557-4.611 24.1-12.331 2.265-3.129 1.591-7.511-1.542-9.77-3.133-2.269-7.519-1.559-9.785 1.57-2.989 4.089-7.712 6.53-12.773 6.53s-9.833-2.441-12.773-6.53c-2.265-3.129-6.652-3.839-9.785-1.57-3.133 2.259-3.856 6.641-1.591 9.77z" fill-rule="evenodd"/></svg>