<svg id="Layer_1" enableBackground="new 0 0 120 120" viewBox="0 0 120 120" xmlns="http://www.w3.org/2000/svg"><g><g><g><path d="m95.1488419 99.9264221v.9900055c0 3.9700012-3.2198944 7.1898956-7.1899948 7.1898956h-57.3200036c-3.9699001 0-7.1898994-3.2198944-7.1898994-7.1898956v-.9900055c0-4.4699936 1.3698997-8.6298981 3.7199993-12.0700989 1.8199005-2.6998978 4.25-4.9498978 7.099802-6.5797958 3.1400986-1.8001022 6.7700005-2.830101 10.6601982-2.830101h28.7400017c4.0498962 0 7.8199005 1.1201019 11.0498962 3.0600967 2.7799988 1.669899 5.1500015 3.9499054 6.9100037 6.6499023 2.2299957 3.3798981 3.5199967 7.4198991 3.5199967 11.7699967z" fill="#5b5476"/></g><g><path d="m91.6288452 88.1564255-28.4398994 17.330101c-2.1702003 1.3300018-4.910202 1.3300018-7.0901031 0l-28.9298993-17.6302033c1.8199005-2.6998978 4.25-4.9498978 7.099802-6.5797958l21.8600998 16.6598969c2.1498985 1.6499023 4.8899002 1.6499023 7.0401001 0l21.5498962-16.4299011c2.7799988 1.6698989 5.1500016 3.9499053 6.9100037 6.6499023z" fill="#3f3b5b"/></g><g><path d="m87.9565506 108.8604736h-57.3154316c-4.3818359 0-7.9462891-3.5644531-7.9462891-7.9462891v-.9863281c0-12.2587891 9.9736309-22.2314453 22.23242-22.2314453h28.7431679c12.2587891 0 22.2324219 9.9726563 22.2324219 22.2314453v.9863281c0 4.381836-3.5644532 7.9462891-7.9462891 7.9462891zm-43.0293007-29.6640625c-11.4316406 0-20.73242 9.2998047-20.73242 20.7314453v.9863281c0 3.5546875 2.8916016 6.4462891 6.4462891 6.4462891h57.3154297c3.5546875 0 6.4462891-2.8916016 6.4462891-6.4462891v-.9863281c0-11.4316406-9.3007813-20.7314453-20.7324219-20.7314453z" fill="#0f0f0f"/></g><g><path d="m85.9233475 77.1103287-22.7504044 17.3394928c-2.1520004 1.6451035-4.8934975 1.6451035-7.0454979 0l-22.7504005-17.3394928 12.8702011-4.9453049h26.7957001z" fill="#ffd9b0"/></g><g><path d="m85.9189453 77.1063232-22.75 17.3401031c-2.1501999 1.6499023-4.8902016 1.6499023-7.0401001 0l-22.75-17.3401031 4.0099983-1.5397949 18.7400017 14.2897949c2.1498985 1.6402054 4.8899002 1.6402054 7.0401001 0l18.7398987-14.2897949z" fill="#edb57e"/></g><g><path d="m92.4619446 84.1558228-29.2682991 17.8465042c-2.1727028 1.324295-4.9141998 1.324295-7.0973015 0l-29.2681007-17.8465042c-1.851799-1.1380997-1.6034985-3.9106979.4345016-4.6969986l6.1142998-2.3484955 22.7504005 17.3394928c2.1520004 1.6451035 4.8934975 1.6451035 7.0454979 0l22.7504044-17.3394928 6.1143951 2.3484955c2.0381012.7863006 2.2863999 3.5588989.424202 4.6969986z" fill="#aff2b6"/></g><g><path d="m92.458847 84.1564255-29.2699013 17.8500977c-2.1702003 1.3198013-4.910202 1.3198013-7.0901031 0l-29.2699985-17.8500977c-1.5200005-.9400024-1.6200008-2.9800034-.4799995-4.1000977.1399994.1400986.2999992.2699966.4799995.3800964l29.2699986 17.8498993c2.1799011 1.3199997 4.9199028 1.3199997 7.0901031 0l29.2699012-17.8498992c.1800003-.1100998.3499985-.2399979.490097-.3899002 1.1499024 1.1199035 1.0498963 3.1698989-.490097 4.1099014z" fill="#7fd685"/></g><g><path d="m59.6489296 103.7501221c-1.3613281 0-2.7246094-.3681641-3.9414063-1.1064453l-29.2695293-17.8476563c-1.1044922-.6787109-1.7158203-1.9003906-1.5976563-3.1894531s.9423828-2.3808594 2.1533203-2.8476563l6.1152325-2.3486328c.2412109-.0927734.515625-.0546875.7236328.1035156l22.75 17.3388672c1.8916016 1.4462891 4.2421875 1.4462891 6.1357422.0009766l22.7500038-17.3398438c.2060547-.1582031.4804688-.1962891.7236328-.1035156l6.1142578 2.3486328c1.2119141.4677734 2.0361328 1.5585938 2.1533203 2.8476563.1162109 1.2900391-.4990234 2.5117188-1.6054688 3.1884766-.0009766 0-.0009766.0009766-.0009766.0009766l-29.2685585 17.8466797c-1.2119139.7382811-2.573242 1.1074218-3.9355467 1.1074218zm-26.3935547-25.7890625-5.7236309 2.1982422c-.6826172.2636719-1.1308594.8564453-1.1982422 1.5839844-.0664063.7285156.265625 1.390625.8876953 1.7734375l29.2656231 17.8447266c1.9501953 1.1835938 4.3720703 1.1855469 6.3164063 0l29.2685585-17.8466798c.625-.3818359.9589844-1.0449219.8935547-1.7724609-.0664063-.7275391-.5136719-1.3193359-1.1972656-1.5830078l-5.7226563-2.1982422-22.416996 17.0849609c-2.4169922 1.8466797-5.5410156 1.8457031-7.9560547-.0009766zm59.2070351 6.1943359h.0097656z" fill="#0f0f0f"/></g><g><path d="m59.6489296 103.7501221c-1.3613281 0-2.7246094-.3681641-3.9414063-1.1064453l-29.2695293-17.8476563c-1.1044922-.6787109-1.7158203-1.9003906-1.5976563-3.1894531s.9423828-2.3808594 2.1533203-2.8476563l18.9853497-7.2939453c.0849609-.0332031.1767578-.0498047.2685547-.0498047h26.7949257c.0917969 0 .1826172.0166016.2685547.0498047l18.9951172 7.2939453c1.2119141.4677734 2.0361328 1.5585938 2.1533203 2.8476563.1162109 1.2900391-.4990234 2.5117188-1.6054688 3.1884766-.0009766 0-.0009766.0009766-.0009766.0009766l-29.2685585 17.8466797c-1.211914.7382811-2.5732421 1.1074218-3.9355468 1.1074218zm-13.2626953-30.834961-18.8544903 7.2441407c-.6826172.2636719-1.1308594.8564453-1.1982422 1.5839844-.0664063.7285156.265625 1.390625.8876953 1.7734375l29.2665997 17.8457031c1.9521484 1.1835938 4.3730469 1.1845703 6.3154297-.0009766l29.2685585-17.8466797-.0009766.0009766c.6259766-.3828125.9599609-1.0458984.8945313-1.7734375-.0664063-.7275391-.5136719-1.3193359-1.1972656-1.5830078l-18.8642578-7.2441406h-26.517582zm46.0761757 11.2402344h.0097656z" fill="#0f0f0f"/></g><g><path d="m68.5287476 64.5665283v11.4300003h-17.889904v-11.1702041c2.6000023 1.3600998 5.5601006 2.1301041 8.7099991 2.1301041 3.3301009-.0000001 6.4600028-.8600999 9.1799049-2.3899003z" fill="#fff"/></g><g><path d="m68.533699 76.7452393h-17.8974647c-.4140625 0-.75-.3359375-.75-.75v-16.8525391c0-.4140625.3359375-.75.75-.75h17.8974647c.4140625 0 .75.3359375.75.75v16.8525391c0 .4140625-.3359375.75-.75.75zm-17.1474647-1.5h16.3974647v-15.3525391h-16.3974647z" fill="#0f0f0f"/></g><g><g><path d="m69.6267471 68.7872238 2.8451996 2.6555023c.536499.5007019.6989975 1.285202.4055939 1.9578018l-4.1405945 9.4931946c-.4845047 1.1108017-1.9309006 1.3929062-2.7973022.5457001l-5.8338013-5.7040939c-.7136993-.6977997-.6909981-1.8529053.0494003-2.5222015l7.1292038-6.444603c.6671982-.6029969 1.6848984-.5949021 2.3423004.0186996z" fill="#ff84a0"/></g><g><path d="m49.543045 68.7872238-2.8451996 2.6555023c-.5363998.5007019-.6989021 1.285202-.4056015 1.9578018l4.1407013 9.4931946c.4844971 1.1108017 1.9307976 1.3929062 2.7972984.5457001l5.8338013-5.7040939c.7136002-.6977997.6909981-1.8529053-.0494003-2.5222015l-7.1292992-6.444603c-.6671028-.6029969-1.6849021-.5949021-2.3423004.0186996z" fill="#ff84a0"/></g></g><g><g><path d="m72.8788452 73.3964233-4.1399994 9.5c-.4900055 1.1100998-1.9300003 1.3899002-2.7999039.5400009l-5.8300972-5.6998978c-.3500023-.3401031-.5200005-.7901001-.5200005-1.2300034v-.0099945c0-.4700012.1898994-.9402008.5699997-1.2801056l.3698997-.3299942 5.4101982 5.2899933c.8699036.8501053 2.3098984.5701065 2.7999039-.5399933l3.6199951-8.3001022.1100006.1100998c.5400011.5000001.7001039 1.2799989.4100038 1.949997z" fill="#f76189"/></g><g><path d="m59.5888443 76.4965286v.0099945c0 .4499054-.169899.8899002-.5200005 1.2300034l-5.8400002 5.6998978c-.8699989.8498993-2.3098984.5700989-2.7999001-.5400009l-4.1401978-9.5c-.2899017-.6699982-.1299019-1.4499969.4101982-1.9499969l.1099014-.1100998 3.6200981 8.3001022c.4900017 1.1100998 1.9299011 1.3900986 2.7999001.5399933l5.420002-5.2899933.3698997.3299942c.3801005.3399047.5700991.8101043.5700991 1.2801055z" fill="#f76189"/></g></g><g><g><path d="m67.14991 84.6827393c-.6416016 0-1.2666016-.2490234-1.734375-.7070313l-5.8339882-5.7041016c-.4873047-.4765625-.7597656-1.1416016-.7460938-1.8242188.0136719-.6806641.3105469-1.3339844.8164063-1.7910156l7.1298866-6.4443359c.9638672-.8701172 2.40625-.8583984 3.3564453.0263672l2.8457031 2.6552734c.7675781.7177734 1.0009766 1.8457031.5810547 2.8066406l-4.140625 9.4931641c-.3261719.7470703-.9980469 1.2871094-1.7988281 1.4433594-.1582031.03125-.3173828.0458985-.4755859.0458985zm1.2949218-15.6132813c-.234375 0-.46875.0849609-.6572266.2548828l-7.1298866 6.4453125c-.203125.1826172-.3173828.4345703-.3232422.7080078-.0048828.2734375.0996094.5302734.2958984.7216797l5.8339882 5.7041016c.2333984.2285156.5517578.3212891.8740234.2607422.3212891-.0625.5800781-.2705078.7109375-.5703125l4.140625-9.4931641c.1660156-.3808594.0742188-.8261719-.2294922-1.1103516l-2.8457031-2.6542969c-.189453-.1777343-.4296874-.2666015-.6699218-.2666015z" fill="#0f0f0f"/></g><g><path d="m52.0200233 84.6827393c-.1582031 0-.3173828-.0146484-.4755859-.0458984-.8007813-.15625-1.4726563-.6962891-1.7988281-1.4433594l-4.140625-9.4931641c-.4199219-.9609375-.1865234-2.0888672.5810547-2.8056641l2.8457031-2.65625c.9511719-.8857422 2.3935547-.8974609 3.3564453-.0253906l7.1289063 6.4433594c.5058594.4570313.8037109 1.109375.8173828 1.7910156.0136719.6826172-.2578125 1.3466797-.7460938 1.8242188l-5.8339844 5.7041016c-.4677734.4580077-1.0927734.7070312-1.734375.7070312zm-1.2958984-15.6132813c-.2392578 0-.4794922.0888672-.6689453.2666016l-2.8457031 2.6552734c-.3037109.2832031-.3955078.7285156-.2294922 1.109375l4.140625 9.4931641c.1308594.2998047.3896484.5078125.7109375.5703125.3232422.0654297.6416016-.0322266.8740234-.2607422l5.8339844-5.7041016c.1962891-.1914063.3007813-.4482422.2949219-.7216797-.0048828-.2734375-.1201172-.5244141-.3232422-.7080078l-7.1289063-6.4443359c-.1884765-.1708985-.4228515-.2558594-.6582031-.2558594zm-1.1806641-.2822266h.0097656z" fill="#0f0f0f"/></g></g><g><path d="m40.4697456 37.0786247v11.0049019c0 5.2067986 2.1135979 9.9326973 5.5242996 13.343399 3.4197998 3.4197998 8.1366997 5.5332031 13.3524971 5.5332031 10.4225998 0 18.8677979-8.4540024 18.8677979-18.8766022v-11.0049018z" fill="#fff"/></g><g><path d="m53.9688454 39.0265236c-6.0752029 0-11 4.9249001-11 11 0 5.2100029 2.1199989 9.9399033 5.5299988 13.3499031.1800995.1798973.3600006.3600998.5499001.5299988-1.0998001-.7200012-2.1198006-1.5500984-3.0499001-2.4799995-3.420002-3.410202-5.5299988-8.1401024-5.5299988-13.3400993v-11.0100022h37.7499962v1.9501991z" fill="#ddd"/></g><g><path d="m40.8393593 62.2901611c-.2314453 0-.4599609-.1064453-.6064453-.3076172-1.7861328-2.4462891-3.0654297-5.1728516-3.8017578-8.1044922-.1005859-.4013672.1435547-.8095703.5449219-.9101563.4033203-.1044922.8095703.1425781.9101563.5449219.6894531 2.7431641 1.8857422 5.2949219 3.5576172 7.5849609.2441406.3349609.1708984.8037109-.1630859 1.0478516-.1337892.0976563-.2880861.1445313-.4414064.1445313z" fill="#0f0f0f"/></g><g><path d="m43.8745155 65.6856689c-.1816406 0-.3632813-.0654297-.5078125-.1972656-.2470703-.2275391-.4912109-.4619141-.7304688-.7001953l-.3544922-.3632813c-.2871094-.2988281-.2773438-.7734375.0224609-1.0595703.296875-.2880859.7744141-.2783203 1.0595703.0224609l.3339844.3408203c.2226563.2216797.4511719.4404297.6845703.6542969.3046875.2802734.3251953.7548828.0449219 1.0605469-.1484374.1601563-.3505858.2421875-.5527343.2421875z" fill="#0f0f0f"/></g><g><path d="m59.3461952 67.710083c-5.2431641 0-10.1728516-2.0429688-13.8828125-5.7529297-3.703125-3.7041016-5.7431641-8.6318359-5.7431641-13.8740234v-11.0048828c0-.4140625.3359375-.75.75-.75h37.7441444c.4140625 0 .75.3359375.75.75v11.0048828c.0000001 10.8222656-8.8007812 19.6269531-19.6181678 19.6269531zm-18.1259765-29.8818359v10.2548828c0 4.8417969 1.8837891 9.3925781 5.3037109 12.8134766 3.4267578 3.4267578 7.9804688 5.3134766 12.8222656 5.3134766 9.9902382 0 18.1181679-8.1318359 18.1181679-18.1269531v-10.2548829z" fill="#0f0f0f"/></g><g><path d="m61.6772499 56.6973877h-2.6240234c-.4140625 0-.75-.3359375-.75-.75s.3359375-.75.75-.75h1.5302734l-1.3457031-3.484375c-.1494141-.3867188.0429688-.8212891.4287109-.9697266.3867188-.1513672.8222656.0439453.9697266.4287109l1.7402344 4.5048828c.0898438.2304688.0595703.4902344-.0810547.6943359-.1396485.2041017-.3710938.326172-.6181641.326172z" fill="#0f0f0f"/></g><g><path d="m61.8432655 45.491333h-5c-.4140625 0-.75-.3359375-.75-.75s.3359375-.75.75-.75h5c.4140625 0 .75.3359375.75.75s-.3359375.75-.75.75z" fill="#0f0f0f"/></g><g><path d="m72.8735428 44.3585205c-.2128906 0-.4248047-.0908203-.5732422-.2666016-.2675781-.3164063-.2265625-.7900391.0898438-1.0566406l5.1572266-4.3476563c.3164063-.2666016.7900391-.2265625 1.0566406.0898438.2675781.3164063.2265625.7900391-.0898438 1.0566406l-5.1572266 4.3476563c-.140625.1191406-.3125.1767578-.4833984.1767578z" fill="#0f0f0f"/></g><g><path d="m45.6274452 44.3585205c-.1708984 0-.3427734-.0576172-.4833984-.1767578l-5.1572266-4.3476563c-.3164063-.2666016-.3574219-.7402344-.0898438-1.0566406.2666016-.3173828.7402344-.3583984 1.0566406-.0898438l5.1572266 4.3476563c.3164063.2666016.3574219.7402344.0898438 1.0566406-.1484375.1757813-.3603516.2666016-.5732422.2666016z" fill="#0f0f0f"/></g><g><path d="m94.4281464 24.8101254-33.773201 11.1472988c-.184803.0610008-.384201.0610008-.5690002 0l-33.7836018-11.1506997c-.8309994-.2741985-.8309994-1.4497986 0-1.723999l33.7733002-11.1473007c.1847992-.0609999.3843002-.0609999.5690994 0l33.7834015 11.1506004c.8310031.2742997.8310031 1.4498005.0000019 1.7241002z" fill="#5b5476"/></g><g><path d="m94.4289474 24.8063259-1.5901031.5299988-32.1899986-10.629899c-.1900024-.0600004-.3900032-.0600004-.5700035 0l-32.1899987 10.6198988-1.5900993-.5199986c-.8299007-.2700005-.8299007-1.4500008 0-1.7200012l33.780098-11.1498995c.1800003-.0600004.3800011-.0600004.5700035 0l33.7801018 11.1498995c.829895.2700004.829895 1.4500008-.0000001 1.7200012z" fill="#3f3b5b"/></g><g><path d="m60.3715858 36.7530518c-.1767578 0-.3535156-.0283203-.5224609-.0839844l-33.7822246-11.1503906c-.6914063-.2285156-1.1386719-.8466797-1.1376953-1.5751953 0-.7275391.4472656-1.3457031 1.1386719-1.5732422l33.7724609-11.1464844c.3378906-.1123047.6982422-.1123047 1.0410156 0l33.7822304 11.1503906c.6914063.2285156 1.1386719.8466797 1.1376953 1.5751953 0 .7275391-.4472656 1.3457031-1.1386719 1.5732422l-33.7724667 11.1464844c-.1669922.055664-.3427734.0839844-.5185547.0839844zm.038086-24.1054688-33.8720684 11.1474609c-.0302734.0097656-.1083984.0361328-.1083984.1494141 0 .1142578.0810547.1416016.1083984.1503906l33.7841797 11.1503906 33.8710976-11.1474609c.0009766 0 .0009766 0 .0009766-.0009766.0292969-.0087891.1074219-.0351563.1074219-.1484375 0-.1142578-.0810547-.1416016-.1083984-.1503906z" fill="#0f0f0f"/></g><g><g><g><path d="m83.203743 27.3328247v9.7458h-47.7048989v-9.7458c0-5.3274994 47.7048989-5.3274994 47.7048989 0z" fill="#5b5476"/></g><g><path d="m83.1989441 27.3363247v2.9299011c0-5.3198013-47.7000999-5.3198013-47.7000999 0v-2.9299011c-.0000001-5.3297997 47.7000999-5.3297997 47.7000999 0z" fill="#3f3b5b"/></g><g><path d="m83.2036209 37.8282471h-47.7050819c-.4140625 0-.75-.3359375-.75-.75v-9.7451172c0-4.4042969 18.8310547-4.7460938 24.6025391-4.7460938s24.6025429.3417969 24.6025429 4.7460938v9.7451172c-.0000001.4140625-.3359376.75-.7500001.75zm-46.9550819-1.5h46.2050819v-8.9951172c0-.0126953-.1855469-1.2685547-6.8144531-2.2548828-4.2910156-.6396484-10.0751953-.9912109-16.2880898-.9912109-14.8759766 0-23.1025391 1.9189453-23.1025391 3.2460938v8.9951171z" fill="#0f0f0f"/></g><g><path d="m78.215 37.082h4.989v7.946h-4.989z" fill="#5b5476"/><path d="m83.2036209 45.7784424h-4.9892578c-.4140625 0-.75-.3359375-.75-.75v-7.9462891c0-.4140625.3359375-.75.75-.75h4.9892578c.4140625 0 .75.3359375.75.75v7.9462891c0 .4140625-.3359375.75-.75.75zm-4.2392578-1.5h3.4892578v-6.4462891h-3.4892578z" fill="#0f0f0f"/></g></g><g><path d="m35.499 37.082h4.989v7.946h-4.989z" fill="#5b5476"/><path d="m40.4877968 45.7784424h-4.9892578c-.4140625 0-.75-.3359375-.75-.75v-7.9462891c0-.4140625.3359375-.75.75-.75h4.9892578c.4140625 0 .75.3359375.75.75v7.9462891c0 .4140625-.3359375.75-.75.75zm-4.2392578-1.5h3.4892578v-6.4462891h-3.4892578z" fill="#0f0f0f"/></g></g><g><path d="m40.4969444 40.3095245v8.4632988h-.7801018c-2.3311996 0-4.2271004-1.8958969-4.2271004-4.2271996 0-1.1700974.4717026-2.2313995 1.2427025-2.9933968.762001-.7710037 1.8141975-1.2427025 2.9843979-1.2427025h.7801018z" fill="#fff"/><path d="m40.4965858 49.522583h-.7792968c-2.7441406 0-4.9775391-2.2324219-4.9775391-4.9765625 0-1.3398438.5205078-2.5927734 1.4658203-3.5273438.9277344-.9384766 2.1767578-1.4589844 3.5117188-1.4589844h.7792969c.4140625 0 .75.3359375.75.75v8.4628906c-.0000001.4140626-.3359376.7500001-.7500001.7500001zm-.7792968-8.4628906c-.9306641 0-1.8007813.3623047-2.4511719 1.0195313-.6640625.65625-1.0263672 1.5302734-1.0263672 2.4667969 0 1.9169922 1.5595703 3.4765625 3.4775391 3.4765625h.0292969z" fill="#0f0f0f"/></g><g><path d="m78.2225418 40.3095245v8.4632988h.7801056c2.3312988 0 4.2270966-1.8958969 4.2270966-4.2271996 0-1.1700974-.4717026-2.2313995-1.2426987-2.9933968-.762001-.7710037-1.8142014-1.2427025-2.9843979-1.2427025h-.7801056z" fill="#fff"/><path d="m79.002449 49.522583h-.7802734c-.4140625 0-.75-.3359375-.75-.75v-8.4628906c0-.4140625.3359375-.75.75-.75h.7802734c1.3349609 0 2.5839844.5205078 3.5175781 1.4648438.9394531.9287109 1.4599609 2.1816406 1.4599609 3.5214844.0000001 2.7441405-2.2333983 4.9765624-4.977539 4.9765624zm-.0302734-1.5h.0302734c1.9179688 0 3.4775391-1.5595703 3.4775391-3.4765625 0-.9365234-.3623047-1.8105469-1.0205078-2.4609375-.65625-.6630859-1.5263672-1.0253906-2.4570313-1.0253906h-.0302734z" fill="#0f0f0f"/></g><g><path d="m95.0512772 40.7667236c-.4140625 0-.75-.3359375-.75-.75v-16.0703125c0-.4140625.3359375-.75.75-.75s.75.3359375.75.75v16.0703125c0 .4140625-.3359375.75-.75.75z"/></g><g><path d="m97.4688416 42.2163239 1.5590057 5.7433014c.1714935.6318016-.3042068 1.2537994-.9588013 1.2537994h-6.1823044c-.6545944 0-1.1302948-.6219978-.9589005-1.2537994l1.5591049-5.7433014c.3051987-1.1243973 1.325798-1.9049988 2.4908981-1.9049988 1.1651002 0 2.1857988.7806015 2.4909975 1.9049988z" fill="#5b5476"/></g><g><path d="m97.2488403 41.6864243c-.1899948-.0599976-.3899994-.0800972-.5999985-.0800972-1.159996 0-2.1800003.780098-2.4899979 1.9098969l-1.5500031 5.7002029h-.7199936c-.6600037 0-1.1300049-.6301003-.9598999-1.2600021l1.5598984-5.7399979c.2998962-1.1201019 1.3199997-1.9101028 2.4899979-1.9101028.9701005-.0000001 1.8400041.550003 2.2699967 1.3801002z" fill="#3f3b5b"/></g><g><path d="m98.0688553 49.9630127h-6.1816406c-.5478516 0-1.0537109-.25-1.3857422-.6855469-.3330078-.4345703-.4404297-.9863281-.296875-1.5146484l1.5585938-5.7431641c.3935547-1.4472656 1.7158203-2.4580078 3.2148438-2.4580078s2.8212891 1.0107422 3.2148438 2.4570313v.0009766l1.5585938 5.7441406c.1435547.5273438.0361328 1.0791016-.296875 1.5136719-.3320315.4355468-.8378909.6855468-1.3857424.6855468zm-3.0908203-8.9013672c-.8242188 0-1.5507813.5556641-1.7675781 1.3515625l-1.5585938 5.7431641c-.0273438.1005859.0136719.1757813.0410156.2109375.0273438.0361328.0888672.0957031.1943359.0957031h6.1816406c.1054688 0 .1669922-.0595703.1943359-.0957031.0273438-.0351563.0683594-.1103516.0410156-.2099609l-1.5585938-5.7441406c-.2167967-.7958985-.9433592-1.3515626-1.7675779-1.3515626z"/></g><g><path d="m96.9362411 38.3512268c0 1.0811996-.8770981 1.9582977-1.9583969 1.9582977s-1.9582977-.8770981-1.9582977-1.9582977c0-1.0813026.8769989-1.9584999 1.9582977-1.9584999s1.9583969.8771973 1.9583969 1.9584999z" fill="#5b5476"/><path d="m94.978035 41.0596924c-1.4931641 0-2.7080078-1.2148438-2.7080078-2.7080078 0-1.4941406 1.2148438-2.7089844 2.7080078-2.7089844s2.7080078 1.2148438 2.7080078 2.7089844c0 1.493164-1.2148438 2.7080078-2.7080078 2.7080078zm0-3.9169922c-.6660156 0-1.2080078.5419922-1.2080078 1.2089844 0 .6660156.5419922 1.2080078 1.2080078 1.2080078s1.2080078-.5419922 1.2080078-1.2080078c0-.6669922-.5419922-1.2089844-1.2080078-1.2089844z"/></g><g><g><path d="m62.7777443 84.0857239 1.988903-1.7930985-5.1817016-5.0339966-5.1015015 4.9553986 1.908699 1.8716965z" fill="#ff84a0"/></g><g><path d="m62.7778358 84.8360596h-6.3857422c-.1962891 0-.3847656-.0771484-.5253906-.2148438l-1.9082031-1.8720703c-.1445313-.1416016-.2255859-.3349609-.2246094-.5371094s.0820313-.3955078.2275391-.5361328l5.1005859-4.9550781c.2910156-.2832031.7539063-.2832031 1.0449219 0l5.182621 5.0341797c.1494141.1445313.2314453.3447266.2275391.5517578-.0039063.2080078-.09375.4042969-.2480469.5429688l-1.9892616 1.7929688c-.1376953.1249999-.3164063.1933593-.5019532.1933593zm-6.0791015-1.5h5.7910156l1.1796875-1.0634766-4.0849609-3.9677734-4.0273438 3.9121094z" fill="#0f0f0f"/></g></g><g><path d="m65.3059464 100.6941223-2.1690025 1.3237991c-2.1385002 1.3035049-4.8368988 1.3035049-6.9856987 0l-2.281002-1.395195 2.5255013-16.5373001h6.3847008z" fill="#ff84a0"/></g><g><path d="m63.2188454 86.966423c-2.8985023 0-5.3625031 2.1170044-5.7989998 4.9825058l-1.5110016 9.9173965-2.0400009-1.2398987 2.5300026-16.5401001h6.3798981z" fill="#f76189"/></g><g><path d="m59.647953 103.7510986c-1.3427734 0-2.6855469-.3642578-3.8857422-1.0917969l-2.2832031-1.3964844c-.2578125-.1572266-.3955078-.4541016-.3496094-.7529297l2.5253906-16.5380859c.0556641-.3662109.3710938-.6367188.7412109-.6367188h6.3847656c.3710938 0 .6855469.2705078.7412109.6376953l2.5253944 16.609375c.0458984.2978516-.0927734.5947266-.3505859.7529297l-2.1689491 1.3232422c-1.1953124.7285157-2.5371092 1.0927735-3.8798827 1.0927735zm-4.9609375-3.5078125 1.8554688 1.1347656c1.9169922 1.1630859 4.296875 1.1621094 6.2041016-.0009766l1.7431679-1.0634766-2.3535195-15.4785155h-5.0957031z" fill="#0f0f0f"/></g><g><g><path d="m67.5854568 54.7159424c-3.9433632 0-7.151371-3.203125-7.151371-7.140625 0-3.9433594 3.2080078-7.1523438 7.151371-7.1523438s7.1523438 3.2089844 7.1523438 7.1523438c0 3.9375-3.2089844 7.140625-7.1523438 7.140625zm0-12.7929688c-3.1162109 0-5.651371 2.5351563-5.651371 5.6523438 0 3.1103516 2.5351601 5.640625 5.651371 5.640625 3.1171875 0 5.6523438-2.5302734 5.6523438-5.640625 0-3.1171875-2.5351563-5.6523438-5.6523438-5.6523438z" fill="#0f0f0f"/></g><g><path d="m50.7280312 54.7159424c-3.9433594 0-7.1523438-3.203125-7.1523438-7.140625 0-3.9433594 3.2089844-7.1523438 7.1523438-7.1523438s7.1513672 3.2089844 7.1513672 7.1523438c-.0000001 3.9375-3.2080079 7.140625-7.1513672 7.140625zm0-12.7929688c-3.1171875 0-5.6523438 2.5351563-5.6523438 5.6523438 0 3.1103516 2.5351563 5.640625 5.6523438 5.640625 3.1162109 0 5.6513672-2.5302734 5.6513672-5.640625-.0000001-3.1171875-2.5351563-5.6523438-5.6513672-5.6523438z" fill="#0f0f0f"/></g><g><path d="m52.2504921 47.5870361c-.1923828 0-.3837891-.0732422-.5302734-.2197266-.6679688-.6679688-1.7578125-.6679688-2.4257813 0-.2929688.2929688-.7675781.2929688-1.0605469 0s-.2929688-.7675781 0-1.0605469c1.2539063-1.2539063 3.2929688-1.2539063 4.546875 0 .2929688.2929688.2929688.7675781 0 1.0605469-.1464843.1464844-.3378906.2197266-.5302734.2197266z" fill="#0f0f0f"/></g><g><path d="m69.5678787 47.5870361c-.1914063 0-.3837891-.0732422-.5302734-.2197266-.6679688-.6689453-1.7587891-.6669922-2.4267578 0-.2929688.2939453-.7675781.2919922-1.0605469 0-.2929688-.2929688-.2929688-.7685547 0-1.0605469 1.2529297-1.2539063 3.2929688-1.2558594 4.5478516 0 .2929688.2919922.2929688.7675781 0 1.0605469-.1464844.1464844-.3378907.2197266-.5302735.2197266z" fill="#0f0f0f"/></g></g><g><path d="m63.8901405 60.8516846h-6.7607422c-.4140625 0-.75-.3359375-.75-.75s.3359375-.75.75-.75h6.7607422c.4140663 0 .7500038.3359375.7500038.75s-.3359375.75-.7500038.75z" fill="#0f0f0f"/></g></g><g><path d="m93.4262772 76.5675049c-.0878906 0-.1767578-.015625-.2636719-.0478516l-12.2138672-4.5820313c-.3876953-.1455078-.5839844-.578125-.4384766-.9658203.1464844-.3876953.578125-.5820313.9658203-.4384766l12.2138672 4.5820313c.3876953.1455078.5839844.578125.4384766.9658203-.1132813.3007813-.3984375.4863282-.7021484.4863282z" fill="#0f0f0f"/></g><g><path d="m78.5825272 70.9981689c-.0878906 0-.1767578-.015625-.2636719-.0478516l-.9111328-.3417969c-.3876953-.1455078-.5839844-.578125-.4384766-.9658203s.5800781-.5820313.9658203-.4384766l.9111328.3417969c.3876953.1455078.5839844.578125.4384766.9658203-.1132813.3007814-.3984375.4863282-.7021484.4863282z" fill="#0f0f0f"/></g><g><g><path d="m99.782547 62.191227c0 2.0417976-1.6516037 3.6934013-3.6865005 3.6934013-2.0418015 0-3.6934052-1.6516037-3.6934052-3.6934013 0-2.0349007 1.6516037-3.6865005 3.6934052-3.6865005 2.0348968-.0000001 3.6865005 1.6515998 3.6865005 3.6865005z" fill="#c3c9fb"/></g><g><path d="m99.7828445 62.1899261c0 2.0391006-1.6556015 3.6947021-3.6858978 3.6947021-1.5947037 0-2.9627991-1.0195007-3.476799-2.4399033.5576935.339901 1.2198944.5402985 1.9256973.5402985 2.0391006 0 3.6947021-1.6556969 3.6947021-3.6946983 0-.4269981-.0697021-.8452988-.2092056-1.2286987 1.0457001.6448975 1.751503 1.8037987 1.751503 3.1282997z" fill="#8693e2"/></g><g><path d="m96.096199 66.6348877c-2.4501953 0-4.4433594-1.9931641-4.4433594-4.4433594 0-2.4462891 1.9931641-4.4365234 4.4433594-4.4365234 2.4462891 0 4.4365234 1.9902344 4.4365234 4.4365234.0000001 2.4501953-1.9902343 4.4433594-4.4365234 4.4433594zm0-7.3798828c-1.6230469 0-2.9433594 1.3173828-2.9433594 2.9365234 0 1.6230469 1.3203125 2.9433594 2.9433594 2.9433594 1.6191406 0 2.9365234-1.3203125 2.9365234-2.9433594.0000001-1.6191406-1.3173827-2.9365234-2.9365234-2.9365234z" fill="#0f0f0f"/></g></g><g><g><path d="m31.0246449 65.0720215c-2.6144009.5384064-4.6709003 2.6013031-5.209301 5.2157059-.0324001.1557007-.2399998.1557007-.2724991 0-.2659016-1.3104019-.9146004-2.4781036-1.829401-3.3862991-.9016991-.9082031-2.0693989-1.5634003-3.3797989-1.8294067-.1557007-.0324936-.1557007-.240097 0-.2724991 1.3104-.2659988 2.4780998-.921196 3.3862991-1.8293991.9083004-.9081993 1.5569992-2.0758972 1.8229008-3.3862991.0324993-.1557007.240099-.1557007.2724991 0 .2660007 1.3104019.9146996 2.4780998 1.8229008 3.3862991.9081993.9082031 2.0758991 1.5634003 3.3864002 1.8293991.1555995.0324019.1555995.2400054 0 .272499z" fill="#aff2b6"/></g><g><path d="m31.0272446 65.0686264c-2.6198997.538002-4.6751003 2.6021957-5.2131996 5.2220001-.0353012.1499023-.2381001.1499023-.2735004 0-.2558002-1.2526016-.8467007-2.3729019-1.6935997-3.2550049 2.0287991-.3703995 3.5724983-2.0993958 3.6606998-4.2163963.0352993.0530014.0881996.1058998.1322994.1500015.9085999.9084969 2.073 1.5612984 3.3873005 1.825901.1498985.0352936.1498985.2469941 0 .2734986z" fill="#7fd685"/></g><g><path d="m25.6792049 71.1544189c-.4228516 0-.7802734-.2910156-.8701172-.7089844-.2324219-1.1494141-.7939453-2.1875-1.6240234-3.0117188-.8291016-.8349609-1.8652344-1.3964844-3.0009766-1.6259766-.4267578-.0917969-.71875-.4501953-.7167969-.875.0009766-.4238281.2949219-.7802734.7138672-.8671875 1.1367188-.2314453 2.1757813-.7929688 3.0087891-1.6259766.8271484-.8271484 1.3867188-1.8662109 1.6171875-3.0048828.0908203-.4257813.4482422-.7177734.8720703-.7177734h.0029297c.4238281.0009766.7802734.2958984.8671875.7158203.2324219 1.140625.7919922 2.1796875 1.6191406 3.0068359.8330078.8330078 1.8720703 1.3945313 3.0058594 1.625.421875.0878906.7158203.4443359.7167969.8681641.0019531.4248047-.2900391.7832031-.7089844.8730469-.0019531 0-.0039063.0009766-.0058594.0009766-2.3291016.4794922-4.1455078 2.2978516-4.6269531 4.6328125-.0869141.4199219-.4433594.7138672-.8671875.7148438-.0009765 0-.0019531 0-.0029297 0zm-3.4335937-6.21875c.734375.359375 1.4111328.84375 2 1.4375.5917969.5869141 1.0742188 1.2626953 1.4335938 2 .7285156-1.4970703 1.9384766-2.7089844 3.4345703-3.4365234-.7353516-.3603516-1.4130859-.84375-2.0058594-1.4365234-.5888672-.5888672-1.0703125-1.2646484-1.4287109-2-.3583984.7353516-.8388672 1.4101563-1.4287109 2-.5927735.5927734-1.2695313 1.0751953-2.0048829 1.4355468zm8.7792969.1367188h.0097656z" fill="#0f0f0f"/></g></g></g></svg>