<svg id="Layer_1" height="512" viewBox="0 0 50 50" width="512" xmlns="http://www.w3.org/2000/svg"><g><g><ellipse cx="25" cy="41.6" fill="#abb734" rx="6.8" ry="6.9"/><ellipse cx="41.7" cy="41.6" fill="#d9baa8" rx="6.8" ry="6.9"/><ellipse cx="8.3" cy="41.6" fill="#559aff" rx="6.8" ry="6.9"/><ellipse cx="33.3" cy="25" fill="#6cd8d5" rx="6.8" ry="6.9"/><ellipse cx="16.7" cy="25" fill="#6e9583" rx="6.8" ry="6.9"/><ellipse cx="25" cy="8.4" fill="#fa4968" rx="6.8" ry="6.9"/><path d="m13.3 46v.2c-1.2 1.4-3 2.2-5 2.2s-3.8-.9-5-2.2c0-.1 0-.2 0-.2 0-2.8 2.2-3.3 5-3.3s5 .5 5 3.3z" fill="#fff"/><ellipse cx="8.3" cy="39.1" fill="#fff" rx="2.3" ry="2.4"/><path d="m13.3 46v.2c-1.2 1.4-3 2.2-5 2.2s-3.8-.9-5-2.2c0-.1 0-.2 0-.2 0-2.8 2.2-3.3 5-3.3s5 .5 5 3.3z" fill="none" stroke="#682f2a" stroke-linecap="round" stroke-linejoin="round" stroke-miterlimit="10"/><ellipse cx="8.3" cy="39.1" fill="none" rx="2.3" ry="2.4" stroke="#682f2a" stroke-linecap="round" stroke-linejoin="round" stroke-miterlimit="10"/><ellipse cx="8.3" cy="41.6" fill="none" rx="6.8" ry="6.9" stroke="#682f2a" stroke-linecap="round" stroke-linejoin="round" stroke-miterlimit="10"/><path d="m30 46v.2c-1.2 1.4-3 2.2-5 2.2s-3.8-.9-5-2.2c0-.1 0-.2 0-.2 0-2.8 2.2-3.3 5-3.3s5 .5 5 3.3z" fill="#fff"/><ellipse cx="25" cy="39.1" fill="#fff" rx="2.3" ry="2.4"/><path d="m30 46v.2c-1.2 1.4-3 2.2-5 2.2s-3.8-.9-5-2.2c0-.1 0-.2 0-.2 0-2.8 2.2-3.3 5-3.3s5 .5 5 3.3z" fill="none" stroke="#682f2a" stroke-linecap="round" stroke-linejoin="round" stroke-miterlimit="10"/><ellipse cx="25" cy="39.1" fill="none" rx="2.3" ry="2.4" stroke="#682f2a" stroke-linecap="round" stroke-linejoin="round" stroke-miterlimit="10"/><ellipse cx="25" cy="41.6" fill="none" rx="6.8" ry="6.9" stroke="#682f2a" stroke-linecap="round" stroke-linejoin="round" stroke-miterlimit="10"/><path d="m46.7 46v.2c-1.2 1.4-3 2.2-5 2.2s-3.8-.9-5-2.2c0-.1 0-.2 0-.2 0-2.8 2.2-3.3 5-3.3 2.7 0 5 .5 5 3.3z" fill="#fff"/><ellipse cx="41.7" cy="39.1" fill="#fff" rx="2.3" ry="2.4"/><path d="m46.7 46v.2c-1.2 1.4-3 2.2-5 2.2s-3.8-.9-5-2.2c0-.1 0-.2 0-.2 0-2.8 2.2-3.3 5-3.3 2.7 0 5 .5 5 3.3z" fill="none" stroke="#682f2a" stroke-linecap="round" stroke-linejoin="round" stroke-miterlimit="10"/><ellipse cx="41.7" cy="39.1" fill="none" rx="2.3" ry="2.4" stroke="#682f2a" stroke-linecap="round" stroke-linejoin="round" stroke-miterlimit="10"/><ellipse cx="41.7" cy="41.6" fill="none" rx="6.8" ry="6.9" stroke="#682f2a" stroke-linecap="round" stroke-linejoin="round" stroke-miterlimit="10"/><path d="m21.7 29.4v.2c-1.2 1.4-3 2.2-5 2.2s-3.8-.9-5-2.2c0-.1 0-.2 0-.2 0-2.8 2.2-3.3 5-3.3 2.7 0 5 .5 5 3.3z" fill="#fff"/><ellipse cx="16.7" cy="22.4" fill="#fff" rx="2.3" ry="2.4"/><path d="m21.7 29.4v.2c-1.2 1.4-3 2.2-5 2.2s-3.8-.9-5-2.2c0-.1 0-.2 0-.2 0-2.8 2.2-3.3 5-3.3 2.7 0 5 .5 5 3.3z" fill="none" stroke="#682f2a" stroke-linecap="round" stroke-linejoin="round" stroke-miterlimit="10"/><ellipse cx="16.7" cy="22.4" fill="none" rx="2.3" ry="2.4" stroke="#682f2a" stroke-linecap="round" stroke-linejoin="round" stroke-miterlimit="10"/><ellipse cx="16.7" cy="25" fill="none" rx="6.8" ry="6.9" stroke="#682f2a" stroke-linecap="round" stroke-linejoin="round" stroke-miterlimit="10"/><path d="m38.3 29.4v.2c-1.2 1.4-3 2.2-5 2.2s-3.8-.9-5-2.2c0-.1 0-.2 0-.2 0-2.8 2.2-3.3 5-3.3s5 .5 5 3.3z" fill="#fff"/><ellipse cx="33.3" cy="22.4" fill="#fff" rx="2.3" ry="2.4"/><path d="m38.3 29.4v.2c-1.2 1.4-3 2.2-5 2.2s-3.8-.9-5-2.2c0-.1 0-.2 0-.2 0-2.8 2.2-3.3 5-3.3s5 .5 5 3.3z" fill="none" stroke="#682f2a" stroke-linecap="round" stroke-linejoin="round" stroke-miterlimit="10"/><ellipse cx="33.3" cy="22.4" fill="none" rx="2.3" ry="2.4" stroke="#682f2a" stroke-linecap="round" stroke-linejoin="round" stroke-miterlimit="10"/><ellipse cx="33.3" cy="25" fill="none" rx="6.8" ry="6.9" stroke="#682f2a" stroke-linecap="round" stroke-linejoin="round" stroke-miterlimit="10"/><path d="m30 12.7v.2c-1.2 1.4-3 2.2-5 2.2s-3.8-.9-5-2.2c0-.1 0-.2 0-.2 0-2.8 2.2-3.3 5-3.3s5 .6 5 3.3z" fill="#fff"/><ellipse cx="25" cy="5.8" fill="#fff" rx="2.3" ry="2.4"/><g fill="none" stroke="#682f2a" stroke-linecap="round" stroke-linejoin="round" stroke-miterlimit="10"><path d="m30 12.7v.2c-1.2 1.4-3 2.2-5 2.2s-3.8-.9-5-2.2c0-.1 0-.2 0-.2 0-2.8 2.2-3.3 5-3.3s5 .6 5 3.3z"/><ellipse cx="25" cy="5.8" rx="2.3" ry="2.4"/><ellipse cx="25" cy="8.4" rx="6.8" ry="6.9"/><path d="m25 15.4v2"/><path d="m28.2 20.3-3.2-2.9-3.2 2.9"/><path d="m33.3 32.2v1.9"/><path d="m36.5 37-3.2-2.9-3.1 2.9"/><path d="m16.7 32.2v1.9"/><path d="m19.8 37-3.1-2.9-3.2 2.9"/></g></g></g></svg>