<svg id="Layer_1" enable-background="new 0 0 468 468" height="512" viewBox="0 0 468 468" width="512" xmlns="http://www.w3.org/2000/svg" xmlns:xlink="http://www.w3.org/1999/xlink"><clipPath id="SVGID_2_"><path id="SVGID_1_" d="m466.003 330.296-27.444-27.76h-68.105c-3.322 0-6.015 2.703-6.015 6.038v108.519c0 3.335 2.693 6.038 6.015 6.038h89.535c3.322 0 6.015-2.703 6.015-6.038v-86.797z"/></clipPath><clipPath id="SVGID_4_"><path id="SVGID_3_" d="m311.885 388.949h-130.489c-4.418 0-8-3.582-8-8v-45.331c0-4.418 3.582-8 8-8h130.489c4.418 0 8 3.582 8 8v45.331c0 4.418-3.582 8-8 8z"/></clipPath><clipPath id="SVGID_6_"><path id="SVGID_5_" d="m311.885 466.003h-130.489c-4.418 0-8-3.582-8-8v-45.331c0-4.418 3.582-8 8-8h130.489c4.418 0 8 3.582 8 8v45.331c0 4.418-3.582 8-8 8z"/></clipPath><g><g><g><g><g><path d="m365.773 203.691h-267.246c-5.523 0-10-4.477-10-10v-181.693c0-5.523 4.477-10 10-10h267.246c5.523 0 10 4.477 10 10v181.693c0 5.523-4.477 10-10 10z" fill="#915efd"/><path d="m107.497 195.7c-5.514 0-9.984-4.472-9.984-9.988v-183.664c-5.045.501-8.986 4.759-8.986 9.937v181.717c0 5.516 4.47 9.988 9.984 9.988h267.277c4.83 0 8.859-3.431 9.784-7.99z" fill="#6e4acf"/></g><g><path d="m104.876 18.351h254.551v168.986h-254.551z" fill="#00d5fe"/><path d="m279.598 36.329c0 2.206 1.788 3.995 3.994 3.995h47.878c2.206 0 3.994 1.789 3.994 3.995v52.627c0 2.482 2.012 4.495 4.493 4.495 2.481 0 4.493-2.012 4.493-4.495v-54.624c0-5.516-4.47-9.988-9.984-9.988h-50.874c-2.206 0-3.994 1.789-3.994 3.995z" fill="#fff" opacity=".5"/><path d="m114.859 167.362v-149.011h-9.984v168.986h254.551v-9.988h-234.583c-5.514 0-9.984-4.471-9.984-9.987z" fill="#11a7e9"/><path d="m359.426 189.335h-254.55c-1.103 0-1.997-.894-1.997-1.998v-168.986c0-1.103.894-1.998 1.997-1.998h254.55c1.103 0 1.997.894 1.997 1.998v168.987c-.001 1.102-.895 1.997-1.997 1.997zm-252.554-3.995h250.557v-164.992h-250.557z" fill="#001445"/></g><g fill="#001445"><g><path d="m196.096 60.318 19.744 10.174c1.348.695 2.953-.284 2.953-1.801 0-.767-.433-1.468-1.118-1.811l-17.888-8.971 17.888-8.971c.685-.344 1.118-1.045 1.118-1.811 0-1.517-1.605-2.496-2.953-1.801l-19.744 10.174c-1.05.513-2.766 3.369 0 4.818z"/><path d="m225.812 73.692c.852 0 1.616-.524 1.923-1.319l12.763-33.058c.527-1.365-.48-2.834-1.943-2.834-.862 0-1.634.531-1.944 1.335l-12.723 33.074c-.519 1.35.478 2.802 1.924 2.802z"/><path d="m244.509 47.122c0 .769.435 1.472 1.124 1.815l18.027 8.971-18.027 8.971c-.688.343-1.124 1.046-1.124 1.815 0 1.516 1.603 2.495 2.951 1.803l19.7-10.108c2.826-1.469 1.655-4.174 0-4.963l-19.7-10.108c-1.349-.691-2.951.288-2.951 1.804z"/></g><g><g><path d="m173.403 99.555h-18.118c-1.103 0-1.997-.894-1.997-1.998 0-1.103.894-1.998 1.997-1.998h18.118c1.103 0 1.997.894 1.997 1.998s-.894 1.998-1.997 1.998z"/><path d="m310.566 99.555h-121.763c-1.103 0-1.997-.894-1.997-1.998 0-1.103.894-1.998 1.997-1.998h121.763c1.103 0 1.997.894 1.997 1.998s-.894 1.998-1.997 1.998z"/></g><path d="m309.859 129.519h-155.281c-1.103 0-1.997-.894-1.997-1.998 0-1.103.894-1.998 1.997-1.998h155.281c1.103 0 1.997.894 1.997 1.998-.001 1.103-.895 1.998-1.997 1.998z"/><path d="m309.859 159.482h-155.281c-1.103 0-1.997-.894-1.997-1.998 0-1.103.894-1.998 1.997-1.998h155.281c1.103 0 1.997.894 1.997 1.998-.001 1.104-.895 1.998-1.997 1.998z"/></g></g></g><g><path d="m271.155 250.048h-73.884l13.978-46.357h45.928z" fill="#f5f5f5"/><path d="m211.598 234.281 9.224-30.59h-9.572l-13.978 46.358h73.883l-2.409-7.99h-51.372c-4.046-.001-6.944-3.904-5.776-7.778z" fill="#e3d7fe"/></g></g><g><g><g><path d="m353.419 285.443c-3.322 0-6.015 2.703-6.015 6.038v113.512c0 3.335 2.693 6.038 6.015 6.038h80.601v-119.55c0-3.335-2.693-6.038-6.015-6.038z" fill="#ffce03"/><path d="m362.404 402.042c-3.322 0-6.015-2.703-6.015-6.038v-110.561h-2.971c-3.322 0-6.015 2.703-6.015 6.038v113.513c0 3.335 2.693 6.038 6.015 6.038h80.601v-8.989z" fill="#feac01"/></g><g><g><g><path d="m466.003 330.296-27.444-27.76h-68.105c-3.322 0-6.015 2.703-6.015 6.038v108.519c0 3.335 2.693 6.038 6.015 6.038h89.535c3.322 0 6.015-2.703 6.015-6.038v-86.797z" fill="#ffce03"/><path d="m379.439 414.141c-3.322 0-6.015-2.703-6.015-6.038v-105.568h-2.971c-3.322 0-6.015 2.703-6.015 6.038v108.519c0 3.335 2.693 6.038 6.015 6.038h89.535c3.322 0 6.015-2.703 6.015-6.038v-2.951z" fill="#feac01"/><g><g><g clip-path="url(#SVGID_2_)" fill="#fff" opacity=".5"><path d="m378.183 304.513h14.744v14.75h-14.744z"/><path d="m378.183 334.013h14.744v14.75h-14.744z"/><path d="m378.183 363.512h14.744v14.75h-14.744z"/><path d="m378.183 393.012h14.744v14.75h-14.744z"/><path d="m378.183 422.509h14.744v14.75h-14.744z"/><path d="m407.698 304.513h14.744v14.75h-14.744z"/><path d="m407.698 334.013h14.744v14.75h-14.744z"/><path d="m407.698 363.512h14.744v14.75h-14.744z"/><path d="m407.698 393.012h14.744v14.75h-14.744z"/><path d="m407.698 422.509h14.744v14.75h-14.744z"/><path d="m437.213 304.513h14.744v14.75h-14.744z"/><path d="m437.213 334.013h14.744v14.75h-14.744z"/><path d="m437.213 363.512h14.744v14.75h-14.744z"/><path d="m437.213 393.012h14.744v14.75h-14.744z"/><path d="m437.213 422.509h14.744v14.75h-14.744z"/><path d="m363.425 289.761h14.744v14.75h-14.744z"/><path d="m363.425 319.26h14.744v14.75h-14.744z"/><path d="m363.425 348.76h14.744v14.75h-14.744z"/><path d="m363.425 378.26h14.744v14.75h-14.744z"/><path d="m363.425 407.759h14.744v14.75h-14.744z"/><path d="m392.94 289.761h14.744v14.75h-14.744z"/><path d="m392.94 319.26h14.744v14.75h-14.744z"/><path d="m392.94 348.76h14.744v14.75h-14.744z"/><path d="m392.94 378.26h14.744v14.75h-14.744z"/><path d="m392.94 407.759h14.744v14.75h-14.744z"/><path d="m422.455 289.761h14.744v14.75h-14.744z"/><path d="m422.455 319.26h14.744v14.75h-14.744z"/><path d="m422.455 348.76h14.744v14.75h-14.744z"/><path d="m422.455 378.26h14.744v14.75h-14.744z"/><path d="m422.455 407.759h14.744v14.75h-14.744z"/><path d="m451.97 289.761h14.744v14.75h-14.744z"/><path d="m451.97 319.26h14.744v14.75h-14.744z"/><path d="m451.97 348.76h14.744v14.75h-14.744z"/><path d="m451.97 378.26h14.744v14.75h-14.744z"/><path d="m451.97 407.759h14.744v14.75h-14.744z"/></g></g></g></g><g><path d="m438.558 302.535v27.761h27.445z" fill="#f5f5f5"/><path d="m444.549 320.307v-11.713l-5.991-6.059v27.76h27.444l-4.937-4.994h-11.525c-2.756 0-4.991-2.235-4.991-4.994z" fill="#e3d7fe"/><path d="m467.423 328.891-27.445-27.76c-.375-.379-.886-.593-1.42-.593h-2.542v-9.056c0-4.431-3.594-8.036-8.012-8.036h-74.586c-4.418 0-8.012 3.605-8.012 8.036v113.512c0 4.431 3.594 8.035 8.012 8.035h9.023v4.063c0 4.431 3.594 8.036 8.012 8.036h89.534c4.418 0 8.013-3.605 8.013-8.036v-86.796c0-.526-.208-1.03-.577-1.405zm-26.868-21.495 20.665 20.902h-20.665zm-78.114 1.177v100.46h-9.023c-2.215 0-4.018-1.812-4.018-4.04v-113.512c0-2.228 1.803-4.04 4.018-4.04h74.586c2.215 0 4.018 1.813 4.018 4.04v9.056h-61.57c-4.417.001-8.011 3.605-8.011 8.036zm97.546 112.559h-89.534c-2.215 0-4.018-1.813-4.018-4.041v-108.518c0-2.228 1.803-4.04 4.018-4.04h66.108v25.763c0 1.103.894 1.998 1.997 1.998h25.448v84.799c0 2.226-1.803 4.039-4.019 4.039z" fill="#001445"/></g></g><g fill="#001445"><g><path d="m448.212 356.666h-65.984c-1.103 0-1.997-.894-1.997-1.998s.894-1.998 1.997-1.998h65.984c1.103 0 1.997.894 1.997 1.998s-.894 1.998-1.997 1.998z"/><path d="m448.212 379.419h-65.984c-1.103 0-1.997-.894-1.997-1.998 0-1.103.894-1.998 1.997-1.998h65.984c1.103 0 1.997.894 1.997 1.998s-.894 1.998-1.997 1.998z"/><path d="m448.212 401.173h-65.984c-1.103 0-1.997-.894-1.997-1.998s.894-1.998 1.997-1.998h65.984c1.103 0 1.997.894 1.997 1.998s-.894 1.998-1.997 1.998z"/></g><path d="m423.915 332.293h-41.687c-1.103 0-1.997-.894-1.997-1.998 0-1.103.894-1.998 1.997-1.998h41.687c1.103 0 1.997.894 1.997 1.998s-.894 1.998-1.997 1.998z"/></g></g></g><g><ellipse cx="389.24" cy="263.44" fill="#915efd" rx="8.048" ry="7.987"/><path d="m388.378 263.44c0-3.128 1.816-5.828 4.455-7.139-1.082-.538-2.3-.848-3.593-.848-4.445 0-8.048 3.576-8.048 7.987s3.603 7.987 8.048 7.987c1.293 0 2.51-.31 3.593-.848-2.639-1.311-4.455-4.011-4.455-7.139z" fill="#6e4acf"/></g></g><g><g><ellipse cx="78.785" cy="279.421" fill="#915efd" rx="8.048" ry="7.987"/><path d="m77.922 279.421c0-3.128 1.816-5.828 4.455-7.139-1.082-.538-2.3-.848-3.593-.848-4.445 0-8.048 3.576-8.048 7.987s3.603 7.987 8.048 7.987c1.293 0 2.51-.31 3.593-.848-2.638-1.311-4.455-4.012-4.455-7.139z" fill="#6e4acf"/></g><g><g><path d="m135.419 346.182c-1.11-15.269-13.934-27.317-29.603-27.317-7.536 0-14.412 2.792-19.647 7.383-5.591-11.439-17.452-19.332-31.181-19.332-19.109 0-34.6 15.29-34.6 34.151 0 1.492.108 2.958.295 4.399-10.694 2.405-18.686 11.955-18.686 23.378 0 13.237 10.728 23.968 23.962 23.968h101.657c13.234 0 23.962-10.731 23.962-23.968 0-10.504-6.757-19.423-16.159-22.662z" fill="#00d5fe"/><path d="m101.329 330.632c-1.439 1.955-.479 4.726 1.852 5.403 5.808 1.687 10.877 5.088 14.614 9.616 1.587 1.922 4.542 1.867 6.022-.138.971-1.315 1.028-3.124.065-4.445-4.487-6.157-11.311-10.524-19.185-11.815-1.29-.213-2.593.324-3.368 1.379z" fill="#fff" opacity=".5"/><path d="m12.98 368.844c0-9.962 6.077-18.499 14.725-22.115 2.262-.946 3.669-3.164 3.666-5.616 0-.015 0-.031 0-.046 0-17.008 12.598-31.107 29.085-33.714-1.782-.28-3.606-.437-5.468-.437-19.109 0-34.6 15.29-34.6 34.151 0 1.492.108 2.958.295 4.399-10.694 2.405-18.686 11.955-18.686 23.378 0 13.237 10.727 23.968 23.959 23.968h10.985c-13.233.001-23.961-10.731-23.961-23.968z" fill="#11a7e9"/></g><g><g><g><path d="m118.177 420.84h-82.598v23.787c0 6.394 18.49 11.578 41.299 11.578s41.299-5.184 41.299-11.578c0-.245 0-23.787 0-23.787z" fill="#ff8cde"/><path d="m44.565 444.628v-23.788h-8.986v23.787c0 6.394 18.49 11.578 41.299 11.578 1.519 0 3.017-.025 4.493-.069-20.694-.628-36.806-5.54-36.806-11.508z" fill="#fd4cc8"/></g><circle cx="104" cy="442.759" fill="#001445" r="2.996"/></g><g><g><path d="m118.177 395.871h-82.598v23.787c0 6.394 18.49 11.578 41.299 11.578s41.299-5.184 41.299-11.578c0-.247 0-23.787 0-23.787z" fill="#ff8cde"/><path d="m44.565 419.658v-23.787h-8.986v23.787c0 6.394 18.49 11.578 41.299 11.578 1.519 0 3.017-.025 4.493-.069-20.694-.629-36.806-5.541-36.806-11.509z" fill="#fd4cc8"/></g><circle cx="104" cy="417.789" fill="#001445" r="2.996"/></g><g><g><path d="m118.177 371.313h-82.598v23.787c0 6.394 18.49 11.578 41.299 11.578s41.299-5.184 41.299-11.578c0-.246 0-23.787 0-23.787z" fill="#ff8cde"/><path d="m44.565 395.102v-23.787h-8.986v23.787c0 6.394 18.49 11.578 41.299 11.578 1.519 0 3.017-.025 4.493-.069-20.694-.63-36.806-5.542-36.806-11.509z" fill="#fd4cc8"/></g><circle cx="104" cy="393.232" fill="#001445" r="2.996"/></g><g><ellipse cx="76.878" cy="371.313" fill="#fc09b2" rx="41.299" ry="11.578"/><path d="m45.563 371.313c0-5.92 15.854-10.799 36.307-11.491-1.638-.055-3.301-.087-4.992-.087-22.809 0-41.299 5.184-41.299 11.578s18.49 11.578 41.299 11.578c1.691 0 3.355-.032 4.992-.087-20.453-.691-36.307-5.57-36.307-11.491z" fill="#bd0a94"/><path d="m137.29 344.749c-1.804-15.736-15.383-27.881-31.474-27.881-6.888 0-13.553 2.224-19.023 6.308-6.464-11.167-18.686-18.257-31.806-18.257-20.179 0-36.596 16.216-36.596 36.148 0 .947.042 1.918.124 2.904-10.829 3.25-18.515 13.437-18.515 24.873 0 14.318 11.645 25.966 25.959 25.966h7.624v49.818c0 8.913 21.781 13.576 43.296 13.576s43.295-4.663 43.295-13.576v-49.818h7.443c14.314 0 25.959-11.648 25.959-25.966-.001-10.642-6.492-20.165-16.286-24.095zm-21.11 99.879c0 3.906-15.31 9.581-39.301 9.581s-39.302-5.674-39.302-9.581v-18.92c7.257 4.96 23.348 7.526 39.302 7.526s32.045-2.567 39.301-7.526c0-.001 0 18.92 0 18.92zm0-24.97c0 3.906-15.31 9.581-39.301 9.581s-39.302-5.674-39.302-9.581v-18.508c7.257 4.96 23.348 7.526 39.302 7.526s32.045-2.567 39.301-7.526zm0-24.556c0 3.906-15.31 9.581-39.301 9.581s-39.302-5.674-39.302-9.581v-17.738c7.257 4.96 23.348 7.526 39.302 7.526s32.045-2.566 39.301-7.526c0-.001 0 17.738 0 17.738zm-39.302-14.207c-23.991 0-39.302-5.674-39.302-9.58s15.311-9.58 39.302-9.58 39.301 5.674 39.301 9.58-15.309 9.58-39.301 9.58zm50.739 9.919h-7.443v-19.501c0-8.913-21.78-13.575-43.295-13.575s-43.296 4.663-43.296 13.575v19.501h-7.624c-12.112 0-21.965-9.856-21.965-21.97 0-10.185 7.203-19.197 17.127-21.429 1.007-.226 1.676-1.184 1.542-2.207-.185-1.417-.279-2.81-.279-4.141 0-17.729 14.625-32.153 32.603-32.153 12.445 0 23.982 7.149 29.388 18.212.273.559.791.959 1.401 1.081.609.122 1.241-.046 1.709-.456 5.064-4.441 11.574-6.888 18.33-6.888 14.445 0 26.573 11.186 27.611 25.465.059.797.586 1.484 1.342 1.744 8.861 3.051 14.813 11.399 14.813 20.773.001 12.115-9.853 21.969-21.964 21.969z" fill="#001445"/></g></g></g></g><g><g><g><g><path d="m311.885 388.949h-130.489c-4.418 0-8-3.582-8-8v-45.331c0-4.418 3.582-8 8-8h130.489c4.418 0 8 3.582 8 8v45.331c0 4.418-3.582 8-8 8z" fill="#a1e032"/><path d="m190.369 379.96c-4.411 0-7.987-3.577-7.987-7.99v-44.352h-.998c-4.411 0-7.987 3.577-7.987 7.99v45.35c0 4.413 3.576 7.99 7.987 7.99h130.514c4.411 0 7.987-3.577 7.987-7.99v-.999z" fill="#80b240"/><g><g><g clip-path="url(#SVGID_4_)" fill="#fff" opacity=".7"><g><path d="m172.877 320.541h13.839v13.839h-13.839z" opacity=".5" transform="matrix(.707 -.707 .707 .707 -178.895 223.072)"/><path d="m172.878 340.111h13.839v13.839h-13.839z" opacity=".5" transform="matrix(.707 -.707 .707 .707 -192.734 228.805)"/><path d="m172.879 359.68h13.839v13.839h-13.839z" opacity=".5" transform="matrix(.707 -.707 .707 .707 -206.573 234.539)"/><path d="m172.88 379.249h13.839v13.839h-13.839z" opacity=".5" transform="matrix(.707 -.707 .707 .707 -220.411 240.272)"/></g><g><path d="m192.45 320.54h13.839v13.839h-13.839z" opacity=".5" transform="matrix(.707 -.707 .707 .707 -173.161 236.913)"/><path d="m192.451 340.109h13.839v13.839h-13.839z" opacity=".5" transform="matrix(.707 -.707 .707 .707 -187 242.646)"/><path d="m192.452 359.679h13.839v13.839h-13.839z" opacity=".5" transform="matrix(.707 -.707 .707 .707 -200.838 248.38)"/><path d="m192.453 379.248h13.839v13.839h-13.839z" opacity=".5" transform="matrix(.707 -.707 .707 .707 -214.677 254.113)"/></g><g><path d="m212.022 320.539h13.839v13.839h-13.839z" opacity=".5" transform="matrix(.707 -.707 .707 .707 -167.427 250.753)"/><path d="m212.023 340.109h13.839v13.839h-13.839z" opacity=".5" transform="matrix(.707 -.707 .707 .707 -181.266 256.487)"/><path d="m212.024 359.679h13.839v13.839h-13.839z" opacity=".5" transform="matrix(.707 -.707 .707 .707 -195.105 262.22)"/><path d="m212.025 379.248h13.839v13.839h-13.839z" opacity=".5" transform="matrix(.707 -.707 .707 .707 -208.943 267.953)"/></g><g><path d="m231.572 320.539h13.839v13.839h-13.839z" opacity=".5" transform="matrix(.707 -.707 .707 .707 -161.7 264.578)"/><path d="m231.573 340.109h13.839v13.839h-13.839z" opacity=".5" transform="matrix(.707 -.707 .707 .707 -175.538 270.311)"/><path d="m231.574 359.678h13.839v13.839h-13.839z" opacity=".5" transform="matrix(.707 -.707 .707 .707 -189.377 276.045)"/><path d="m231.575 379.247h13.839v13.839h-13.839z" opacity=".5" transform="matrix(.707 -.707 .707 .707 -203.215 281.778)"/></g><g><path d="m250.876 320.538h13.839v13.839h-13.839z" opacity=".5" transform="matrix(.707 -.707 .707 .707 -156.044 278.228)"/><path d="m250.877 340.108h13.839v13.839h-13.839z" opacity=".5" transform="matrix(.707 -.707 .707 .707 -169.883 283.962)"/><path d="m250.878 359.677h13.839v13.839h-13.839z" opacity=".5" transform="matrix(.707 -.707 .707 .707 -183.721 289.696)"/><path d="m250.879 379.246h13.839v13.839h-13.839z" opacity=".5" transform="matrix(.707 -.707 .707 .707 -197.56 295.428)"/></g><g><path d="m270.449 320.537h13.839v13.839h-13.839z" opacity=".5" transform="matrix(.707 -.707 .707 .707 -150.31 292.069)"/><path d="m270.45 340.107h13.839v13.839h-13.839z" opacity=".5" transform="matrix(.707 -.707 .707 .707 -164.148 297.803)"/><path d="m270.451 359.676h13.839v13.839h-13.839z" opacity=".5" transform="matrix(.707 -.707 .707 .707 -177.987 303.536)"/><path d="m270.452 379.246h13.839v13.839h-13.839z" opacity=".5" transform="matrix(.707 -.707 .707 .707 -191.825 309.269)"/></g><g><path d="m290.022 320.536h13.839v13.839h-13.839z" opacity=".5" transform="matrix(.707 -.707 .707 .707 -144.575 305.91)"/><path d="m290.023 340.106h13.839v13.839h-13.839z" opacity=".5" transform="matrix(.707 -.707 .707 .707 -158.414 311.644)"/><path d="m290.024 359.675h13.839v13.839h-13.839z" opacity=".5" transform="matrix(.707 -.707 .707 .707 -172.253 317.377)"/><path d="m290.024 379.245h13.839v13.839h-13.839z" opacity=".5" transform="matrix(.707 -.707 .707 .707 -186.091 323.11)"/></g><g><path d="m309.594 320.536h13.839v13.839h-13.839z" opacity=".5" transform="matrix(.707 -.707 .707 .707 -138.842 319.75)"/><path d="m309.595 340.105h13.839v13.839h-13.839z" opacity=".5" transform="matrix(.707 -.707 .707 .707 -152.68 325.484)"/><path d="m309.596 359.675h13.839v13.839h-13.839z" opacity=".5" transform="matrix(.707 -.707 .707 .707 -166.519 331.218)"/><path d="m309.596 379.244h13.839v13.839h-13.839z" opacity=".5" transform="matrix(.707 -.707 .707 .707 -180.357 336.95)"/></g></g></g></g></g><g><g><g><path d="m192.996 345.335h18.953v25.898h-18.953z" fill="#f5f5f5"/><path d="m199.985 359.247v-13.913h-6.989v25.898h18.953v-5.993h-5.974c-3.308.001-5.99-2.682-5.99-5.992z" fill="#e3d7fe"/><path d="m211.949 373.23h-18.953c-1.103 0-1.997-.894-1.997-1.998v-25.898c0-1.103.894-1.998 1.997-1.998h18.953c1.103 0 1.997.894 1.997 1.998v25.898c0 1.104-.894 1.998-1.997 1.998zm-16.957-3.995h14.96v-21.903h-14.96z" fill="#001445"/></g><g><path d="m229.007 345.335h18.953v25.898h-18.953z" fill="#f5f5f5"/><path d="m235.996 359.247v-13.913h-6.989v25.898h18.953v-5.993h-5.974c-3.308.001-5.99-2.682-5.99-5.992z" fill="#e3d7fe"/><path d="m247.96 373.23h-18.953c-1.103 0-1.997-.894-1.997-1.998v-25.898c0-1.103.894-1.998 1.997-1.998h18.953c1.103 0 1.997.894 1.997 1.998v25.898c0 1.104-.894 1.998-1.997 1.998zm-16.956-3.995h14.96v-21.903h-14.96z" fill="#001445"/></g></g><g><path d="m300.285 350.106h-33.561c-1.103 0-1.997-.894-1.997-1.998s.894-1.998 1.997-1.998h33.561c1.103 0 1.997.894 1.997 1.998s-.894 1.998-1.997 1.998z" fill="#001445"/><g><path d="m299.852 370.457h-33.561c-1.103 0-1.997-.894-1.997-1.998 0-1.103.894-1.998 1.997-1.998h33.561c1.103 0 1.997.894 1.997 1.998s-.894 1.998-1.997 1.998z" fill="#001445"/></g></g></g></g><g><g><path d="m311.885 466.003h-130.489c-4.418 0-8-3.582-8-8v-45.331c0-4.418 3.582-8 8-8h130.489c4.418 0 8 3.582 8 8v45.331c0 4.418-3.582 8-8 8z" fill="#a1e032"/><path d="m190.369 457.013c-4.411 0-7.987-3.577-7.987-7.99v-44.352h-.998c-4.411 0-7.987 3.577-7.987 7.99v45.35c0 4.413 3.576 7.99 7.987 7.99h130.514c4.411 0 7.987-3.577 7.987-7.99v-.999z" fill="#80b240"/><g><g><g clip-path="url(#SVGID_6_)" fill="#fff" opacity=".7"><g><path d="m172.881 418.388h13.839v13.839h-13.839z" opacity=".5" transform="matrix(.707 -.707 .707 .707 -248.088 251.738)"/><path d="m172.881 398.819h13.839v13.839h-13.839z" opacity=".5" transform="matrix(.707 -.707 .707 .707 -234.25 246.005)"/><path d="m172.882 437.958h13.839v13.839h-13.839z" opacity=".5" transform="matrix(.707 -.707 .707 .707 -261.926 257.472)"/><path d="m172.883 457.527h13.839v13.839h-13.839z" opacity=".5" transform="matrix(.707 -.707 .707 .707 -275.765 263.205)"/></g><g><path d="m192.454 418.387h13.839v13.839h-13.839z" opacity=".5" transform="matrix(.707 -.707 .707 .707 -242.353 265.579)"/><path d="m192.454 398.818h13.839v13.839h-13.839z" opacity=".5" transform="matrix(.707 -.707 .707 .707 -228.515 259.846)"/><path d="m192.455 437.957h13.839v13.839h-13.839z" opacity=".5" transform="matrix(.707 -.707 .707 .707 -256.192 271.313)"/><path d="m192.455 457.526h13.839v13.839h-13.839z" opacity=".5" transform="matrix(.707 -.707 .707 .707 -270.031 277.045)"/></g><g><path d="m212.026 418.387h13.839v13.839h-13.839z" opacity=".5" transform="matrix(.707 -.707 .707 .707 -236.62 279.42)"/><path d="m212.026 398.818h13.839v13.839h-13.839z" opacity=".5" transform="matrix(.707 -.707 .707 .707 -222.781 273.687)"/><path d="m212.027 437.957h13.839v13.839h-13.839z" opacity=".5" transform="matrix(.707 -.707 .707 .707 -250.458 285.153)"/><path d="m212.027 457.526h13.839v13.839h-13.839z" opacity=".5" transform="matrix(.707 -.707 .707 .707 -264.297 290.886)"/></g><g><path d="m231.576 418.386h13.839v13.839h-13.839z" opacity=".5" transform="matrix(.707 -.707 .707 .707 -230.892 293.244)"/><path d="m231.576 398.817h13.839v13.839h-13.839z" opacity=".5" transform="matrix(.707 -.707 .707 .707 -217.054 287.511)"/><path d="m231.577 437.956h13.839v13.839h-13.839z" opacity=".5" transform="matrix(.707 -.707 .707 .707 -244.731 298.978)"/><path d="m231.577 457.525h13.839v13.839h-13.839z" opacity=".5" transform="matrix(.707 -.707 .707 .707 -258.569 304.711)"/></g><g><path d="m250.88 418.385h13.839v13.839h-13.839z" opacity=".5" transform="matrix(.707 -.707 .707 .707 -225.237 306.895)"/><path d="m250.88 398.816h13.839v13.839h-13.839z" opacity=".5" transform="matrix(.707 -.707 .707 .707 -211.398 301.162)"/><path d="m250.881 437.955h13.839v13.839h-13.839z" opacity=".5" transform="matrix(.707 -.707 .707 .707 -239.075 312.628)"/><path d="m250.881 457.524h13.839v13.839h-13.839z" opacity=".5" transform="matrix(.707 -.707 .707 .707 -252.914 318.361)"/></g><g><path d="m270.453 418.385h13.839v13.839h-13.839z" opacity=".5" transform="matrix(.707 -.707 .707 .707 -219.502 320.736)"/><path d="m270.453 398.815h13.839v13.839h-13.839z" opacity=".5" transform="matrix(.707 -.707 .707 .707 -205.664 315.003)"/><path d="m270.454 437.954h13.839v13.839h-13.839z" opacity=".5" transform="matrix(.707 -.707 .707 .707 -233.341 326.469)"/><path d="m270.454 457.523h13.839v13.839h-13.839z" opacity=".5" transform="matrix(.707 -.707 .707 .707 -247.179 332.202)"/></g><g><path d="m290.026 418.384h13.839v13.839h-13.839z" opacity=".5" transform="matrix(.707 -.707 .707 .707 -213.768 334.576)"/><path d="m290.025 398.814h13.839v13.839h-13.839z" opacity=".5" transform="matrix(.707 -.707 .707 .707 -199.93 328.844)"/><path d="m290.027 437.953h13.839v13.839h-13.839z" opacity=".5" transform="matrix(.707 -.707 .707 .707 -227.606 340.31)"/><path d="m290.027 457.522h13.839v13.839h-13.839z" opacity=".5" transform="matrix(.707 -.707 .707 .707 -241.445 346.043)"/></g><g><path d="m309.598 418.383h13.839v13.839h-13.839z" opacity=".5" transform="matrix(.707 -.707 .707 .707 -208.034 348.417)"/><path d="m309.598 398.814h13.839v13.839h-13.839z" opacity=".5" transform="matrix(.707 -.707 .707 .707 -194.196 342.684)"/><path d="m309.599 437.953h13.839v13.839h-13.839z" opacity=".5" transform="matrix(.707 -.707 .707 .707 -221.873 354.151)"/><path d="m309.599 457.522h13.839v13.839h-13.839z" opacity=".5" transform="matrix(.707 -.707 .707 .707 -235.711 359.883)"/></g></g></g></g></g><g><g><g><path d="m192.996 422.388h18.953v25.898h-18.953z" fill="#f5f5f5"/><path d="m199.985 436.3v-13.913h-6.989v25.898h18.953v-5.993h-5.974c-3.308.001-5.99-2.682-5.99-5.992z" fill="#e3d7fe"/><path d="m211.949 450.283h-18.953c-1.103 0-1.997-.894-1.997-1.998v-25.898c0-1.103.894-1.998 1.997-1.998h18.953c1.103 0 1.997.894 1.997 1.998v25.898c0 1.104-.894 1.998-1.997 1.998zm-16.957-3.995h14.96v-21.903h-14.96z" fill="#001445"/></g><g><path d="m229.007 422.388h18.953v25.898h-18.953z" fill="#f5f5f5"/><path d="m235.996 436.3v-13.913h-6.989v25.898h18.953v-5.993h-5.974c-3.308.001-5.99-2.682-5.99-5.992z" fill="#e3d7fe"/><path d="m247.96 450.283h-18.953c-1.103 0-1.997-.894-1.997-1.998v-25.898c0-1.103.894-1.998 1.997-1.998h18.953c1.103 0 1.997.894 1.997 1.998v25.898c0 1.104-.894 1.998-1.997 1.998zm-16.956-3.995h14.96v-21.903h-14.96z" fill="#001445"/></g></g><g><path d="m300.285 427.159h-33.561c-1.103 0-1.997-.894-1.997-1.998s.894-1.998 1.997-1.998h33.561c1.103 0 1.997.894 1.997 1.998s-.894 1.998-1.997 1.998z" fill="#001445"/><g><path d="m299.852 447.51h-33.561c-1.103 0-1.997-.894-1.997-1.998 0-1.103.894-1.998 1.997-1.998h33.561c1.103 0 1.997.894 1.997 1.998 0 1.103-.894 1.998-1.997 1.998z" fill="#001445"/></g></g></g></g><g><path d="m190.266 388.949h112.748v15.715h-112.748z" fill="#f5f5f5"/><path d="m197.255 391.991v-3.042h-6.989v15.715h112.748v-5.993h-99.081c-3.688 0-6.678-2.991-6.678-6.68z" fill="#e3d7fe"/><path d="m311.897 390.947c5.505 0 9.984-4.48 9.984-9.988v-45.35c0-5.507-4.479-9.988-9.984-9.988h-130.513c-5.505 0-9.984 4.48-9.984 9.988v45.35c0 5.507 4.479 9.988 9.984 9.988h6.886v11.727h-6.886c-5.505 0-9.984 4.48-9.984 9.988v45.35c0 5.507 4.479 9.988 9.984 9.988h130.513c5.505 0 9.984-4.48 9.984-9.988v-45.35c0-5.507-4.479-9.988-9.984-9.988h-6.886v-11.727zm5.991 21.715v45.35c0 3.305-2.687 5.993-5.991 5.993h-130.513c-3.303 0-5.991-2.688-5.991-5.993v-45.35c0-3.305 2.687-5.993 5.991-5.993h130.513c3.304 0 5.991 2.688 5.991 5.993zm-142.495-31.702v-45.35c0-3.305 2.687-5.993 5.991-5.993h130.513c3.303 0 5.991 2.688 5.991 5.993v45.35c0 3.305-2.687 5.993-5.991 5.993h-130.513c-3.303-.002-5.991-2.69-5.991-5.993zm125.625 21.707h-108.755v-11.72h108.755z" fill="#001445"/></g></g><g><ellipse cx="243.997" cy="308.207" fill="#915efd" rx="8.048" ry="7.987"/><path d="m243.134 308.207c0-3.128 1.816-5.828 4.455-7.139-1.083-.538-2.3-.848-3.593-.848-4.445 0-8.048 3.576-8.048 7.987s3.603 7.987 8.048 7.987c1.293 0 2.51-.31 3.593-.848-2.638-1.311-4.455-4.011-4.455-7.139z" fill="#6e4acf"/><path d="m391.238 253.655v-28.445c0-1.103-.894-1.998-1.997-1.998h-46.873v-17.524h23.422c6.607 0 11.981-5.377 11.981-11.985v-181.718c0-6.608-5.375-11.985-11.981-11.985h-267.279c-6.607 0-11.981 5.377-11.981 11.985v181.717c0 6.609 5.374 11.985 11.981 11.985h27.147v17.524h-46.873c-1.103 0-1.997.894-1.997 1.998v44.426c-4.586.923-8.048 4.959-8.048 9.785 0 5.506 4.506 9.984 10.045 9.984s10.045-4.479 10.045-9.984c0-4.826-3.462-8.862-8.048-9.785v-42.428h46.873c1.103 0 1.997-.894 1.997-1.998v-19.521h78.91l-13.202 43.783c-.225 1.499.412 2.358 1.912 2.575h73.883c1.5-.217 2.137-1.075 1.912-2.575l-13.202-43.783h41.65v81.623h-57.518c-1.103 0-1.997.894-1.997 1.998v9.113c-4.586.923-8.048 4.959-8.048 9.785 0 5.506 4.506 9.984 10.045 9.984s10.045-4.479 10.045-9.984c0-4.826-3.462-8.862-8.048-9.785v-7.116h57.518c1.103 0 1.997-.894 1.997-1.998v-83.62h32.865v19.521c0 1.103.894 1.998 1.997 1.998h46.873v26.448c-4.586.923-8.048 4.959-8.048 9.785 0 5.506 4.506 9.984 10.045 9.984s10.045-4.479 10.045-9.984c-.001-4.825-3.463-8.862-8.048-9.785zm-306.402 25.766c0 3.303-2.714 5.989-6.051 5.989s-6.051-2.687-6.051-5.989c0-3.303 2.714-5.989 6.051-5.989 3.336-.001 6.051 2.686 6.051 5.989zm165.212 28.786c0 3.303-2.714 5.989-6.051 5.989s-6.051-2.687-6.051-5.989 2.714-5.989 6.051-5.989 6.051 2.686 6.051 5.989zm18.419-60.156h-68.507l12.773-42.363h42.961zm-169.956-46.358c-4.404 0-7.987-3.585-7.987-7.99v-181.718c0-4.406 3.583-7.99 7.987-7.99h267.279c4.404 0 7.987 3.585 7.987 7.99v181.717c0 4.406-3.583 7.99-7.987 7.99zm290.73 67.736c-3.337 0-6.051-2.687-6.051-5.989 0-3.303 2.714-5.989 6.051-5.989s6.051 2.687 6.051 5.989c0 3.303-2.715 5.989-6.051 5.989z" fill="#001445"/></g></g></g><g><g fill="#001445"><g><g><circle cx="28.039" cy="139.314" r="3.994"/><circle cx="28.039" cy="164.283" r="3.994"/><circle cx="28.039" cy="113.345" r="3.994"/></g><g><circle cx="28.039" cy="67.401" r="3.994"/><circle cx="28.039" cy="92.371" r="3.994"/><circle cx="28.039" cy="41.432" r="3.994"/></g><g><circle cx="51.003" cy="139.314" r="3.994"/><circle cx="51.003" cy="164.283" r="3.994"/><circle cx="51.003" cy="113.345" r="3.994"/></g><g><circle cx="51.003" cy="67.401" r="3.994"/><circle cx="51.003" cy="92.371" r="3.994"/><circle cx="51.003" cy="41.432" r="3.994"/></g></g><g><g><circle cx="417.423" cy="139.314" r="3.994"/><circle cx="417.423" cy="164.283" r="3.994"/><circle cx="417.423" cy="113.345" r="3.994"/></g><g><circle cx="417.423" cy="67.401" r="3.994"/><circle cx="417.423" cy="92.371" r="3.994"/><circle cx="417.423" cy="41.432" r="3.994"/></g><g><circle cx="440.387" cy="139.314" r="3.994"/><circle cx="440.387" cy="164.283" r="3.994"/><circle cx="440.387" cy="113.345" r="3.994"/></g><g><circle cx="440.387" cy="67.401" r="3.994"/><circle cx="440.387" cy="92.371" r="3.994"/><circle cx="440.387" cy="41.432" r="3.994"/></g></g></g><g><path d="m155.569 282.432 3.821 6.094c.813 1.297 2.723 1.234 3.449-.114l3.162-5.87c.199-.369.508-.666.885-.849l6.443-3.134c1.6-.778 1.461-3.103-.221-3.685l-5.997-2.074c-.514-.178-.933-.557-1.161-1.052l-3.048-6.612c-.692-1.502-2.805-1.56-3.579-.098l-3.68 6.959c-.233.441-.623.779-1.092.947l-5.508 1.971c-1.638.586-1.795 2.841-.255 3.65l6.016 3.158c.314.165.577.41.765.709z" fill="#fb09b1"/><g fill="#11a7e9"><path d="m28.512 240.627 3.821 6.094c.813 1.297 2.723 1.234 3.449-.114l3.162-5.87c.199-.369.508-.666.885-.849l6.443-3.134c1.6-.778 1.461-3.103-.221-3.684l-5.997-2.074c-.514-.178-.933-.558-1.161-1.052l-3.048-6.612c-.692-1.502-2.805-1.56-3.579-.098l-3.68 6.959c-.233.441-.623.779-1.092.947l-5.508 1.971c-1.638.586-1.795 2.841-.255 3.65l6.016 3.158c.313.165.577.409.765.708z"/><path d="m433.04 232.657 3.821 6.094c.813 1.297 2.723 1.234 3.449-.114l3.162-5.87c.199-.369.508-.666.885-.849l6.443-3.134c1.6-.778 1.461-3.103-.221-3.684l-5.997-2.074c-.514-.178-.933-.558-1.161-1.052l-3.048-6.612c-.692-1.502-2.805-1.56-3.578-.098l-3.68 6.959c-.233.441-.623.779-1.092.947l-5.508 1.971c-1.638.586-1.795 2.841-.255 3.65l6.016 3.158c.313.165.576.409.764.708z"/></g></g></g></g></svg>