<?xml version="1.0" encoding="iso-8859-1"?>
<!-- Generator: Adobe Illustrator 19.0.0, SVG Export Plug-In . SVG Version: 6.00 Build 0)  -->
<svg version="1.1" id="Capa_1" xmlns="http://www.w3.org/2000/svg" xmlns:xlink="http://www.w3.org/1999/xlink" x="0px" y="0px"
	 viewBox="0 0 512 512" style="enableBackground:new 0 0 512 512;" xml:space="preserve">
<rect x="97.595" y="153.59" style="fill:#E8D4B1;" width="316.809" height="300.293"/>
<rect x="97.595" y="153.59" style="fill:#E0C08D;" width="20.02" height="300.293"/>
<g>
	<rect x="37.537" y="103.541" style="fill:#C68D6D;" width="30.029" height="34.534"/>
	<rect x="37.537" y="469.398" style="fill:#C68D6D;" width="30.029" height="34.534"/>
	<rect x="444.434" y="469.398" style="fill:#C68D6D;" width="30.029" height="34.534"/>
</g>
<g>
	<rect x="7.507" y="138.075" style="fill:#E8D4B1;" width="90.088" height="331.324"/>
	<rect x="414.405" y="138.075" style="fill:#E8D4B1;" width="90.088" height="331.324"/>
</g>
<path style="fill:#E0C08D;" d="M481.1,138.077l-42.141,128.656c-4.524,13.824-13.283,25.325-24.554,33.293v153.86h-20.02V309.584
	c-5.736,1.622-11.771,2.482-17.958,2.482c-6.957,0-13.844-1.101-20.5-3.283c-16.706-5.465-30.28-17.117-38.227-32.802
	c-7.938-15.685-9.299-33.523-3.824-50.229l23.633-72.16h76.895v-15.515L481.1,138.077L481.1,138.077z"/>
<g>
	<rect x="37.537" y="118.055" style="fill:#AD7153;" width="30.029" height="20.02"/>
	<rect x="37.537" y="469.398" style="fill:#AD7153;" width="30.029" height="20.02"/>
	<rect x="444.434" y="469.398" style="fill:#AD7153;" width="30.029" height="20.02"/>
</g>
<path style="fill:#FFFFFF;" d="M385.907,70.161l-53.009,161.828c-7.873,24.035,5.229,49.902,29.264,57.775l0,0
	c0.229,0.075,0.459,0.135,0.69,0.207L457.788,9.152C425.344,14.181,396.827,36.823,385.907,70.161z"/>
<path style="fill:#D8D7DA;" d="M499.563,12.591c-13.946-4.567-28.204-5.544-41.775-3.44l-94.937,280.818
	c23.838,7.402,49.287-5.665,57.085-29.471l81.053-247.44L499.563,12.591z"/>
<g>
	<rect x="7.507" y="138.075" style="fill:#E0C08D;" width="20.02" height="331.324"/>
	<rect x="484.473" y="138.075" style="fill:#E0C08D;" width="20.02" height="331.324"/>
</g>
<path d="M470.396,130.57L510.461,8.261l-8.561-2.804c-24.773-8.116-51.224-6.098-74.48,5.683
	c-23.255,11.78-40.532,31.91-48.646,56.683l-25.636,78.261H105.103V130.57H75.073V96.036H30.029v34.534H0v346.338h30.029v34.534
	h45.044v-34.534h30.029v-15.515h301.795v15.515h30.029v34.534h45.044v-34.534H512V130.57L470.396,130.57L470.396,130.57z
	 M45.044,111.051h15.015v19.519H45.044V111.051z M60.059,496.427H45.044v-19.519h15.015V496.427z M90.088,145.584v316.309l0,0l0,0
	H15.015l0,0V145.584l0,0L90.088,145.584L90.088,145.584L90.088,145.584z M406.897,446.378H105.103V161.099h243.116l-22.455,68.552
	c-8.425,25.723,3.877,53.327,27.689,64.679l-22.084,65.323l14.224,4.81l22.183-65.615c2.89,0.48,5.796,0.726,8.696,0.726
	c8.254,0,16.454-1.94,24.03-5.778c2.238-1.134,4.369-2.416,6.395-3.823L406.897,446.378L406.897,446.378z M372.679,284.343
	l49.852-147.461l-14.224-4.81l-50,147.897c-16.04-8.604-24.135-27.757-18.275-45.644l53.01-161.828
	c11.388-34.768,43.793-56.882,78.538-56.882c6.579,0,13.251,0.795,19.871,2.445l-78.649,240.1
	C407.119,275.515,390.142,286.057,372.679,284.343z M466.956,496.427h-15.015v-19.519h15.015V496.427z M496.985,461.893
	L496.985,461.893h-75.073l0,0l0,0V274.03c2.117-3.481,3.859-7.224,5.159-11.192l38.408-117.254h31.507V461.893z"/>
<rect x="434.449" y="48.064" transform="matrix(0.9474 0.3202 -0.3202 0.9474 41.169 -138.5642)" width="15.015" height="15.696"/>
<rect x="415.106" y="105.624" transform="matrix(0.9474 0.3202 -0.3202 0.9474 58.4715 -129.3586)" width="15.015" height="15.014"/>
<rect x="424.743" y="77.19" transform="matrix(0.9473 0.3203 -0.3203 0.9473 49.9022 -133.9895)" width="15.014" height="15.013"/>
<g>
	<rect x="30.029" y="380.311" style="fill:#FFFFFF;" width="15.015" height="59.058"/>
	<rect x="60.059" y="254.188" style="fill:#FFFFFF;" width="15.015" height="93.091"/>
	<rect x="60.059" y="362.294" style="fill:#FFFFFF;" width="15.015" height="14.014"/>
	<rect x="43.543" y="160.597" style="fill:#FFFFFF;" width="30.029" height="15.015"/>
	<rect x="30.029" y="261.195" style="fill:#FFFFFF;" width="15.015" height="30.029"/>
	<rect x="30.029" y="201.137" style="fill:#FFFFFF;" width="15.015" height="15.015"/>
	<rect x="30.029" y="231.166" style="fill:#FFFFFF;" width="15.015" height="15.015"/>
	<rect x="436.927" y="336.268" style="fill:#FFFFFF;" width="15.015" height="45.544"/>
	<rect x="436.927" y="396.828" style="fill:#FFFFFF;" width="15.015" height="15.015"/>
	<rect x="451.941" y="431.862" style="fill:#FFFFFF;" width="30.029" height="15.015"/>
	<rect x="466.956" y="279.213" style="fill:#FFFFFF;" width="15.015" height="15.015"/>
	<rect x="466.956" y="309.242" style="fill:#FFFFFF;" width="15.015" height="15.015"/>
	<rect x="466.956" y="189.125" style="fill:#FFFFFF;" width="15.015" height="75.073"/>
	<rect x="268.012" y="201.137" style="fill:#FFFFFF;" width="37.787" height="15.015"/>
	<rect x="132.88" y="201.137" style="fill:#FFFFFF;" width="90.088" height="15.015"/>
	<rect x="237.982" y="201.137" style="fill:#FFFFFF;" width="15.015" height="15.015"/>
	<rect x="132.88" y="239.174" style="fill:#FFFFFF;" width="40.039" height="15.015"/>
	<rect x="217.963" y="239.174" style="fill:#FFFFFF;" width="40.039" height="15.015"/>
	<rect x="187.934" y="239.174" style="fill:#FFFFFF;" width="15.015" height="15.015"/>
	<rect x="273.017" y="239.174" style="fill:#FFFFFF;" width="32.782" height="15.015"/>
	<rect x="237.982" y="277.211" style="fill:#FFFFFF;" width="15.015" height="15.015"/>
	<rect x="268.012" y="277.211" style="fill:#FFFFFF;" width="37.787" height="15.015"/>
	<rect x="132.88" y="277.211" style="fill:#FFFFFF;" width="90.088" height="15.015"/>
	<rect x="217.963" y="315.248" style="fill:#FFFFFF;" width="102.85" height="15.015"/>
	<rect x="132.88" y="315.248" style="fill:#FFFFFF;" width="40.039" height="15.015"/>
	<rect x="187.934" y="315.248" style="fill:#FFFFFF;" width="15.015" height="15.015"/>
	<rect x="162.909" y="353.285" style="fill:#FFFFFF;" width="15.015" height="15.015"/>
	<rect x="132.88" y="353.285" style="fill:#FFFFFF;" width="15.015" height="15.015"/>
	<rect x="192.938" y="353.285" style="fill:#FFFFFF;" width="126.373" height="15.015"/>
	<rect x="132.88" y="391.322" style="fill:#FFFFFF;" width="186.182" height="15.015"/>
	<rect x="364.106" y="391.322" style="fill:#FFFFFF;" width="15.015" height="15.015"/>
	<rect x="334.076" y="391.322" style="fill:#FFFFFF;" width="15.015" height="15.015"/>
</g>
<g>
</g>
<g>
</g>
<g>
</g>
<g>
</g>
<g>
</g>
<g>
</g>
<g>
</g>
<g>
</g>
<g>
</g>
<g>
</g>
<g>
</g>
<g>
</g>
<g>
</g>
<g>
</g>
<g>
</g>
</svg>
