<svg id="Flat" height="512" viewBox="0 0 340 340" width="512" xmlns="http://www.w3.org/2000/svg"><path d="m318.582 28.226a6.368 6.368 0 0 0 -6.367 6.26l-2.293 135.2h17.319l-2.292-135.2a6.368 6.368 0 0 0 -6.367-6.26z" fill="#d3dbea"/><path d="m287.523 192.289a204.224 204.224 0 0 1 15.469-24.153 16.682 16.682 0 0 1 24.99-1.817c1.268 1.247 2.549 2.585 3.806 4.008a16.778 16.778 0 0 1 1.463 20.421l-18.07 27.141s-19.381-9.504-27.658-25.6z" fill="#ffcac0"/><path d="m130.662 330h21.926a64.122 64.122 0 0 1 31.749 0h21.926l5.695-27.51h-86.67z" fill="#3e3e59"/><path d="m152.588 306.97h31.749v23.03h-31.749z" fill="#ffb655"/><path d="m136.053 145.677h64.819s10 66.02 9.677 162c0 0-36.138 7.835-84.833 0 0 .004-7.353-70.987 10.337-162z" fill="#fff"/><path d="m210.549 307.681c.008-2.227.008-4.431 0-6.625-18.416.7-31.373-.955-39.811-2.834a14.989 14.989 0 0 1 -11.675-15.964l10.3-115.952-12.403-20.629h-20.907c-17.69 91.013-10.337 162-10.337 162 48.695 7.839 84.833.004 84.833.004z" fill="#d3dbea"/><path d="m200.872 145.677h-64.819q-1.445 7.433-2.668 14.675c1.012 1.857 8.315 14.848 18.269 22l16.621-12.352 15.7 12.35s10.19-5.014 19.153-18.887c-1.304-11.5-2.256-17.786-2.256-17.786z" fill="#d3dbea"/><path d="m155.6 233.875-3.013 36.466 15.875 15.595 15.874-15.595-6.066-73.424c-9.102 9.376-16.58 21.845-22.67 36.958z" fill="#719de2"/><path d="m178.271 196.917-3.731-45.152h-12.155l-6.784 82.11z" fill="#6279cc"/><path d="m186.2 135.319h-35.47l-14.677 10.358a94.952 94.952 0 0 0 16.177 24.158l16.233-15.205 16.237 15.205a94.923 94.923 0 0 0 16.177-24.158z" fill="#fff"/><path d="m150.73 125.2v10.119l17.733 19.311 17.732-19.311v-9.435z" fill="#ffcac0"/><path d="m150.73 125.2c12.206 5.619 27.894 5.718 35.465.684v-13.1h-35.465z" fill="#ef9292"/><path d="m136.053 145.677s-.944 26.1-2.074 61.36c-4.112 16.627-4.1 35.026-1.65 54.471-.667 23.58-1.274 47.554-1.667 68.492l-38.924-.018s-6.9-57.608-.146-111.131c1.1-8.747 2.112-17.384 2.964-25.643a45.028 45.028 0 0 1 18.928-32.256c7.358-5.161 15.833-10.984 22.569-15.275z" fill="#d37577"/><path d="m132.329 261.508c.3-10.7.618-21.321.931-31.541l-38.434-4.33-4.23.947c-6.723 51.19-16.069 103.39-16.069 103.39l17.957.009a12.8 12.8 0 0 0 12.806-12.8v-41.5c7.243-6.4 6.963-16.141 6.963-16.141 6.797-1.024 15.293.727 20.076 1.966z" fill="#9b454d"/><path d="m287.523 192.289-20.007 29.911-34.394-49.079a74.126 74.126 0 0 0 -19.229-18.913c-3.632-2.451-8.016-5.347-13.021-8.535 0 0 4.011 110.854 5.391 184.323h28.987s-1.187-39.962-3.559-84.595l30.682 24.711a13.724 13.724 0 0 0 20.026-3.074l32.782-49.153z" fill="#d37577"/><path d="m3.959 207.17s50.214-20.313 70.568 25.342l-55.479-6.191s-4.255-13.541-15.089-19.151z" fill="#ffe7c7"/><path d="m145.1 207.17s-50.214-20.313-70.568 25.342l59.22-4.092s.51-15.64 11.348-21.25z" fill="#ffe7c7"/><path d="m74.527 232.512s-25.7-23.043-66.436-5.522a5.252 5.252 0 0 0 -3.164 4.822v16.359a2.824 2.824 0 0 0 4.1 2.525c9.677-4.94 35.406-15.034 65.5-2.128 30.1-12.906 55.825-2.812 65.5 2.128a2.824 2.824 0 0 0 4.1-2.525v-16.359a5.253 5.253 0 0 0 -3.165-4.822c-40.729-17.521-66.435 5.522-66.435 5.522z" fill="#ffb655"/><path d="m57.4 264.213v47.7a18.086 18.086 0 0 0 18.084 18.087 18.086 18.086 0 0 0 18.086-18.086v-53.831z" fill="#d37577"/><path d="m62.434 241.868h24.186a14.982 14.982 0 0 1 14.98 14.982 18.835 18.835 0 0 1 -18.835 18.835h-16.478a18.835 18.835 0 0 1 -18.835-18.835 14.982 14.982 0 0 1 14.982-14.982z" fill="#ffcac0"/><path d="m126.321 71.629h10.235a0 0 0 0 1 0 0v27.327a0 0 0 0 1 0 0h-10.235a11.445 11.445 0 0 1 -11.445-11.445v-4.437a11.445 11.445 0 0 1 11.445-11.445z" fill="#ef9292"/><path d="m208.274 71.629h10.235a0 0 0 0 1 0 0v27.327a0 0 0 0 1 0 0h-10.235a11.445 11.445 0 0 1 -11.445-11.445v-4.437a11.445 11.445 0 0 1 11.445-11.445z" fill="#ef9292" transform="matrix(-1 0 0 -1 415.338 170.585)"/><path d="m140.382 25.455a23.369 23.369 0 0 0 -21.875 8.945c-8.553 10.727-11.676 35.063 18.129 47.7l64.752-9.734a64.583 64.583 0 0 0 11.237.7c6.007-.148 11.717-6.8 11.692-12.81a24.823 24.823 0 0 0 -2.761-10.608 48.24 48.24 0 0 1 -4.138-13.242c-1.561-9.726-8.557-26.406-38.18-26.406-30.43 0-38.856 15.455-38.856 15.455z" fill="#3e3e59"/><path d="m139.05 104.776c3.771 5.381 10.2 11.063 21.16 14.308a31.076 31.076 0 0 0 26.234-3.8 38.638 38.638 0 0 0 14.142-17.753 30.429 30.429 0 0 0 2.214-11.552v-12.271a6.755 6.755 0 0 0 -3.689-6.011c-4.968-2.546-14.01-8.635-21.157-21.576a14.213 14.213 0 0 0 -6.245-6.04q-.43-.206-.9-.41c-17.527-7.6-37.063 5.673-37.063 24.777v22.928a30.279 30.279 0 0 0 5.304 17.4z" fill="#ffcac0"/><g fill="#ef9292"><path d="m158.021 79.225a3.5 3.5 0 0 1 -3.5-3.5v-3.247a3.5 3.5 0 1 1 7 0v3.247a3.5 3.5 0 0 1 -3.5 3.5z"/><path d="m180.811 79.225a3.5 3.5 0 0 1 -3.5-3.5v-3.247a3.5 3.5 0 1 1 7 0v3.247a3.5 3.5 0 0 1 -3.5 3.5z"/><path d="m169.369 101.607c-8.416 0-12.458-3.777-13.805-5.4a3.5 3.5 0 0 1 5.388-4.469c.4.479 2.671 2.869 8.417 2.869s8.018-2.39 8.416-2.869a3.5 3.5 0 1 1 5.387 4.47c-1.346 1.623-5.387 5.399-13.803 5.399z"/></g></svg>