<svg id="Layer_1" enableBackground="new 0 0 500 500" height="512" viewBox="0 0 500 500" width="512" xmlns="http://www.w3.org/2000/svg"><g clip-rule="evenodd" fill-rule="evenodd"><path d="m29.85 95.58h94.13c10.35 0 18.83 8.47 18.83 18.83v94.13c0 10.35-8.47 18.83-18.83 18.83h-94.13c-10.35 0-18.83-8.47-18.83-18.83v-94.14c0-10.35 8.47-18.82 18.83-18.82z" fill="#d71b5a"/><ellipse cx="76.91" cy="161.47" fill="#eaeaea" rx="31.41" ry="31.41" transform="matrix(.987 -.16 .16 .987 -24.871 14.405)"/><path d="m288.34 340.91h108.57c11.94 0 21.71 9.77 21.71 21.71v108.57c0 11.94-9.77 21.71-21.71 21.71h-108.57c-11.94 0-21.71-9.77-21.71-21.71v-108.57c0-11.94 9.77-21.71 21.71-21.71z" fill="#fcb13c"/><path d="m19 337.76h213.8v136.66c0 10.18-8.3 18.48-18.48 18.48h-176.84c-10.18 0-18.48-8.3-18.48-18.48z" fill="#ed2224"/><path d="m24.72 287.7 170.81-45.77c9.83-2.63 20 3.24 22.64 13.07l7.35 27.43-206.52 55.33-7.35-27.43c-2.63-9.83 3.24-20 13.07-22.63z" fill="#ed2224"/><path d="m331.35 80.41c46.44 0 84.09 37.65 84.09 84.09 0 31.86-21.78 59.28-39.14 84.34h-89.56c-17.46-25.19-39.47-52.25-39.47-84.34 0-46.44 37.64-84.09 84.08-84.09z" fill="#ffdc97"/><g fill="#fff"><path d="m296.94 293.46 7.85 11.67c3.22 4.78 8.17 7.42 13.94 7.42h25.24c5.76 0 10.72-2.64 13.94-7.42l7.85-11.67z"/><path d="m290.57 248.84h81.56c14.76 0 14.76 22.31 0 22.31h-81.56c-14.76 0-14.76-22.31 0-22.31z"/><path d="m290.57 293.46h81.56c14.76 0 14.76-22.31 0-22.31h-81.56c-14.76 0-14.76 22.31 0 22.31z"/></g><path d="m373.26 177.13-65.24 37.67v-75.33z" fill="#ffdc97"/><path d="m489.07 161.66h-33.82c-1.06 0-1.95.31-2.48 1.27-.29.52-.42 1.14-.42 1.73 0 1.83 1.02 3 2.91 3h33.82c1.06 0 1.95-.31 2.48-1.27.29-.52.42-1.14.42-1.73 0-1.83-1.03-3-2.91-3z" fill="#010101"/><path d="m29.85 88.61h94.13c14.22 0 25.83 11.61 25.83 25.83v94.13c0 14.22-11.61 25.83-25.83 25.83h-94.13c-14.22 0-25.83-11.61-25.83-25.83v-94.13c0-14.22 11.61-25.83 25.83-25.83zm345.96 95.15-64.29 37.12c-4.89 2.83-10.5-.83-10.5-6.36v-75.02c0-5.74 6.5-8.95 11.05-5.71l64.66 37.33c5.56 3.2 4.17 9.7-.92 12.64zm-60.79 18.97 44.28-25.57-44.28-25.57zm-24.45 75.45c-5.5 0-5.5 8.31 0 8.31h81.56c5.5 0 5.5-8.31 0-8.31zm96.05-7c5.07-6.99 4.74-16.98-.96-23.52l1.63-2.32c16.81-23.88 35.15-49.92 35.15-80.81 0-50.3-40.78-91.09-91.09-91.09-50.3 0-91.09 40.78-91.09 91.09 0 31.96 19.43 57.98 36.97 82.92-5.86 6.5-6.27 16.67-1.15 23.73-8.51 11.72-1.34 29.31 14.48 29.31h2.67l5.75 8.55c2.26 3.36 5.16 5.98 8.53 7.77 3.41 1.81 7.2 2.76 11.21 2.76h25.24c4.01 0 7.8-.95 11.21-2.76 3.37-1.79 6.27-4.42 8.53-7.77l5.75-8.55h2.67c15.84.01 23.01-17.59 14.5-29.31zm-33.98 29.32-.53.78c-.96 1.42-2.15 2.51-3.5 3.23-1.32.7-2.89 1.07-4.64 1.07h-25.24c-1.76 0-3.33-.37-4.64-1.07-1.35-.72-2.54-1.81-3.5-3.23l-.53-.78zm-28.26-293.56c0-9.17 13.95-9.17 13.95 0v33.82c0 9.17-13.95 9.17-13.95 0zm-150.75 164.69c-3.85 0-6.97-3.12-6.97-6.97s3.12-6.97 6.97-6.97h33.82c3.85 0 6.97 3.12 6.97 6.97s-3.12 6.97-6.97 6.97zm41.25-113.55c-6.51-6.51 3.39-16.41 9.9-9.9l23.91 23.91c6.51 6.51-3.39 16.41-9.9 9.9zm274.19 99.58c9.21 0 9.21 14 0 14h-33.82c-9.21 0-9.21-14 0-14zm-51.14-109.47c6.51-6.51 16.41 3.39 9.9 9.9l-23.92 23.91c-6.51 6.51-16.41-3.39-9.9-9.9zm-65.8 193.68h.03.5c1.27-1.82 2.23-3.19 3.2-4.56 15.58-22.13 32.58-46.27 32.58-72.77 0-42.57-34.51-77.09-77.09-77.09-42.57 0-77.09 34.51-77.09 77.09 0 26.33 16.67 49.9 32.16 71.78l3.92 5.55zm-81.61 14h81.66c5.44.04 5.44 8.31-.05 8.31h-81.56c-5.49 0-5.49-8.27-.05-8.31zm-131.71 190.29-49.93 28.83c-5.32 3.06-10.47-1.14-10.47-6.86v-56.91c0-5.74 6.5-8.95 11.05-5.71l49.42 28.53c4.73 2.72 4.58 9.52-.07 12.12zm-46.41 10.7 29.06-16.78-29.06-16.78zm-86.4-79.19h19.59l22.72-32.88h-42.31zm36.56 0 22.72-32.88h43.51l-22.72 32.88zm60.46 0h43.51l22.72-32.88h-43.51zm60.47 0 22.72-32.88h19.59v32.88zm42.31 14h-199.8v82.78c0 6.32 5.17 11.48 11.48 11.48h176.84c6.32 0 11.48-5.17 11.48-11.48zm-58.23-134.98 30.47 25.89 18.92-5.07-5.54-20.68c-1.64-6.13-7.95-9.76-14.08-8.12zm14.07 30.29-42.01 11.26-30.47-25.89 42.01-11.26zm-58.41 15.65-30.47-25.89-42.01 11.26 30.47 25.89zm-58.41 15.65-40.87 10.95-5.54-20.68c-1.63-6.11 2.01-12.43 8.12-14.07l7.82-2.1zm-41.9-37.3c-13.54 3.63-21.65 17.65-18.02 31.2l7.1 26.51v45.99 89.78c0 14.04 11.44 25.48 25.48 25.48h176.84c14.04 0 25.48-11.44 25.48-25.48v-89.78-46.88c0-3.87-3.13-7-7-7h-160.66l155.19-41.58c3.73-1 5.95-4.83 4.95-8.56l-7.35-27.43c-3.62-13.53-17.66-21.65-31.2-18.02zm304.49 140.95c3.84 0 7.48.88 10.72 2.44v-54.85c0-3.87 3.13-7 7-7 1.45 0 2.8.44 3.92 1.2l30 17.32c3.34 1.93 4.48 6.21 2.54 9.54-1.93 3.34-6.21 4.48-9.54 2.54l-19.92-11.5v65.03c0 6.83-2.77 13.01-7.24 17.48-9.6 9.6-25.36 9.6-34.96 0-15.35-15.36-4.7-42.2 17.48-42.2zm-10.72 24.72c0 14.1 21.44 14.1 21.44 0s-21.44-14.1-21.44 0zm-28.35-112.71c-15.81 0-28.71 12.91-28.71 28.71v108.57c0 15.81 12.91 28.71 28.71 28.71h108.57c15.81 0 28.71-12.91 28.71-28.71v-108.57c0-15.81-12.91-28.71-28.71-28.71zm108.57 14h-108.57c-8.08 0-14.71 6.63-14.71 14.71v108.57c0 8.08 6.63 14.71 14.71 14.71h108.57c8.08 0 14.71-6.64 14.71-14.71v-108.57c0-8.07-6.63-14.71-14.71-14.71zm-292.84-213.6c-14.92-14.92-39.4-14.92-54.31 0-14.92 14.92-14.92 39.4 0 54.31 14.92 14.92 39.4 14.92 54.31 0 14.91-14.91 14.91-39.39 0-54.31zm-9.9 9.9c-9.48-9.48-25.04-9.48-34.52 0s-9.48 25.04 0 34.52 25.04 9.48 34.52 0 9.48-25.04 0-34.52zm29.81-41.63h-94.13c-6.49 0-11.83 5.34-11.83 11.83v94.13c0 6.49 5.34 11.83 11.83 11.83h94.13c6.49 0 11.83-5.34 11.83-11.83v-94.13c-.01-6.49-5.34-11.83-11.83-11.83z" fill="#010101"/></g></svg>