<?xml version="1.0" encoding="utf-8"?>
<!-- Generator: Adobe Illustrator 27.5.0, SVG Export Plug-In . SVG Version: 6.00 Build 0)  -->
<svg version="1.1" id="Layer_1" xmlns="http://www.w3.org/2000/svg" xmlns:xlink="http://www.w3.org/1999/xlink" x="0px" y="0px"
	 viewBox="0 0 2730 2048" style="enable-background:new 0 0 2730 2048;" xml:space="preserve">
<g>
	<path style="fill:#FEFEFE;" d="M-0.294,0h2726.836c4.339,7.581,2.339,23.601,2.339,32.45l0.02,1588.182l-0.02,319.194
		c0,15.32,2.319,95.914-0.82,105.254c-0.34,1.02-1,2.02-1.52,2.92H-0.294V0z"/>
	<path style="fill:#C6D9F8;" d="M464.53,577.622c4.973-0.282,10.799,1.226,15.249,3.458c7.45,3.736,12.676,9.66,15.103,17.68
		c0.16,0.528,0.307,1.061,0.44,1.598c0.132,0.536,0.251,1.075,0.356,1.618c0.104,0.543,0.194,1.087,0.27,1.634
		s0.137,1.095,0.184,1.646c0.047,0.551,0.079,1.102,0.098,1.654c0.019,0.552,0.023,1.104,0.012,1.656
		c-0.011,0.553-0.036,1.105-0.076,1.656c-0.04,0.551-0.094,1.1-0.162,1.648c-0.068,0.548-0.151,1.094-0.248,1.638
		c-0.097,0.544-0.209,1.085-0.334,1.624c-0.125,0.537-0.265,1.071-0.418,1.602c-0.153,0.531-0.32,1.057-0.5,1.58
		c-0.181,0.521-0.376,1.038-0.584,1.55c-0.208,0.512-0.429,1.018-0.664,1.518c-0.235,0.5-0.482,0.994-0.742,1.482
		c-0.26,0.487-0.533,0.967-0.818,1.44c-5.618,9.254-13.12,12.184-22.993,14.844c-6.184-0.35-11.802-1.356-17.313-4.348
		c-7.81-4.242-13.878-11.456-15.971-20.172c-1.871-7.798-0.606-15.994,3.869-22.688C445.446,582.73,454.245,579.626,464.53,577.622z
		"/>
	<path style="fill:#E8EEF6;" d="M464.984,593.556c1.905,0.268,3.817,0.528,5.666,1.078c0.488,0.145,0.966,0.316,1.436,0.512
		c0.469,0.195,0.927,0.414,1.374,0.658c0.445,0.244,0.877,0.511,1.296,0.8c0.419,0.289,0.82,0.6,1.206,0.932
		c0.385,0.332,0.752,0.683,1.102,1.052c0.348,0.371,0.676,0.759,0.984,1.164c0.308,0.404,0.594,0.824,0.858,1.26
		c0.264,0.435,0.504,0.882,0.72,1.342c1.6,3.428,1.5,6.968,0.184,10.47c-2.245,5.974-6.394,8.014-11.876,10.482
		c-2.475-0.4-5.046-0.802-7.342-1.854c-3.973-1.824-7.29-5.254-8.713-9.418c-0.147-0.42-0.271-0.847-0.374-1.28
		c-0.101-0.433-0.181-0.871-0.238-1.312c-0.057-0.441-0.091-0.885-0.102-1.33c-0.011-0.444,0.002-0.888,0.038-1.332
		c0.035-0.444,0.093-0.885,0.174-1.322s0.185-0.869,0.312-1.296s0.275-0.846,0.444-1.258c0.169-0.411,0.36-0.812,0.572-1.204
		C455.397,596.72,459.833,595.05,464.984,593.556z"/>
	<path style="fill:#C6D9F8;" d="M2453.764,640.664c8.817-1.444,16.555-1.254,24.553,3.252c1,0.56,1.973,1.169,2.919,1.828
		c0.933,0.66,1.833,1.366,2.699,2.118c0.88,0.751,1.713,1.545,2.499,2.382c0.786,0.836,1.526,1.71,2.219,2.622
		c0.693,0.912,1.346,1.857,1.959,2.836c0.6,0.979,1.146,1.985,1.64,3.02c0.493,1.036,0.94,2.094,1.339,3.174
		c0.387,1.08,0.72,2.177,1,3.292c2.099,8.202,0.86,17.404-3.779,24.542c-5.039,7.776-12.717,12.026-21.554,13.956
		c-4.779,1.09-10.317,0.69-15.115-0.406c-8.417-1.932-15.175-6.06-19.594-13.67c-4.439-7.666-5.458-17.63-2.759-26.058
		C2435.63,651.636,2443.367,646.252,2453.764,640.664z"/>
	<path style="fill:#FEFEFE;" d="M2457.903,657.996c3.699-0.536,7.398-1.008,10.897,0.616c3.959,1.832,7.118,5.59,8.477,9.714
		c1.22,3.752,0.88,7.742-1.1,11.18c-2.219,3.86-5.299,5.376-9.377,6.678c-1.26,0.282-2.479,0.562-3.779,0.624
		c-3.999,0.188-7.998-1.04-10.737-4.066c-3.039-3.348-3.819-7.634-3.259-12.014C2449.806,664.344,2452.925,661.644,2457.903,657.996
		z"/>
	<path style="fill:#C32658;" d="M897.385,426.508c14.672,28.172,18.54,62.248,9.075,92.712c-0.609,1.945-1.266,3.875-1.971,5.788
		c-0.705,1.913-1.457,3.808-2.255,5.684c-0.8,1.875-1.645,3.729-2.535,5.564c-0.892,1.833-1.828,3.643-2.809,5.43
		c-0.981,1.787-2.006,3.548-3.075,5.284c-1.069,1.736-2.181,3.445-3.335,5.126c-1.153,1.68-2.348,3.331-3.585,4.952
		c-1.236,1.621-2.511,3.211-3.825,4.768c-1.316,1.559-2.668,3.083-4.059,4.572c-1.39,1.491-2.817,2.946-4.281,4.366
		c-1.464,1.419-2.961,2.801-4.493,4.146c-1.532,1.345-3.096,2.651-4.693,3.918c-1.597,1.267-3.224,2.493-4.88,3.68
		c-1.658,1.185-3.344,2.329-5.059,3.432c-1.716,1.101-3.456,2.16-5.222,3.176c-1.767,1.015-3.559,1.985-5.374,2.912
		c-29.087,15.09-61.311,17.29-92.408,7.058c-12.116-3.986-22.817-9.806-33.17-17.2c3.873-2.214,39.218-2.142,47.286-3.416
		c12.844-2.026,26.146-6.812,37.671-12.782c37.059-19.202,71.972-59.878,85.012-99.686c4.127-12.596,3.639-26.406,7.704-38.68
		C897.193,427.044,897.291,426.776,897.385,426.508z"/>
	<path style="fill:#94CC75;" d="M2294.233,871.922c7.478-4.984,32.53-44.008,43.487-55.28c11.757-12.098,48.166-41.006,65.16-41.148
		l1.739,1.998c12.256,10.728,16.835,49.738,17.955,66.58c1.619,24.042-3.219,89.462-16.775,108.194l-1.459,1.088l-0.42,3.258
		c-2.699,0.128-3.599-2.87-7.038-3.56c-17.574-3.538-34.49-8.596-51.924-12.53c-1.659-3.076,0.2-5.606-1.419-9.634l0.34-4
		l-2.419,0.396c-4.059,5.184-5.198,11.402-8.137,17.158c-1.36,2.642-1.38,2.928-4.179,3.852
		c-8.317-4.986-54.603-19.05-56.423-21.476c2.259-5.18,4.759-10.232,5.838-15.818l-2.399-1.302
		C2280.957,901.14,2293.893,881.202,2294.233,871.922z"/>
	<path style="fill:#283581;" d="M542.404,1804.968c41.665-1.962,84.44-1.306,126.144-0.314c28.338,0.674,57.735,2.402,85.97,0.374
		l723.425,0.56l241.971,0.018c41.372-0.024,83.269,1.272,124.588-0.386c49.671,0.544,99.386,0.122,149.063,0.094
		c26.55-0.016,54.262,1.676,80.673-0.246l158.153,0.14c27.991-0.016,56.443,1.048,84.394-0.214
		c26.612,1.554,54.104,0.564,80.796,0.398c13.816-0.086,30.111-2.048,43.547,1.51c4.199,1.11,6.178,2.226,8.198,5.944
		c-0.28,1.3-0.5,2.592-1.2,3.752c-1.34,2.232-4.359,5.224-6.978,5.856c-8.877,2.14-21.973,0.148-31.43,0.148l-82.695,0.18
		l-381.589,0.076l-1611.669-0.012c-8.447-0.016-17.339,1.224-24.846-3.336c-2.347-3.432-2.409-3.742-2.249-7.904
		c1.863-3.658,3.843-4.892,7.314-6.98c30.639,2.596,62.747,0.706,93.572,0.66C452.401,1805.216,497.588,1806.23,542.404,1804.968z"
		/>
	<path style="fill:#F05A6E;" d="M719.431,581.876c-15.941-9.782-29.843-26.612-38.456-43.064c-0.924-1.788-1.803-3.598-2.637-5.43
		c-0.835-1.832-1.622-3.683-2.363-5.554c-0.742-1.871-1.437-3.759-2.083-5.664c-0.648-1.907-1.248-3.827-1.801-5.762
		c-0.552-1.936-1.055-3.885-1.51-5.846c-0.455-1.96-0.86-3.931-1.218-5.912c-0.357-1.981-0.664-3.97-0.922-5.966
		c-0.257-1.996-0.465-3.997-0.624-6.004c-0.157-2.007-0.265-4.016-0.324-6.028c-0.057-2.012-0.065-4.024-0.024-6.036
		c0.043-2.013,0.135-4.023,0.278-6.03c0.143-2.008,0.335-4.011,0.578-6.01c0.241-1.999,0.533-3.989,0.876-5.972
		c0.341-1.984,0.732-3.958,1.172-5.922c0.44-1.964,0.928-3.916,1.464-5.856c0.537-1.94,1.122-3.865,1.755-5.776
		c9.911-30.858,31.027-57.532,60.19-72.108c1.785-0.896,3.59-1.749,5.416-2.558c1.827-0.808,3.673-1.571,5.536-2.29
		c1.863-0.719,3.744-1.391,5.64-2.018c1.895-0.627,3.805-1.207,5.73-1.74c1.925-0.535,3.862-1.021,5.81-1.46
		c1.949-0.44,3.907-0.832,5.874-1.176c1.967-0.344,3.941-0.64,5.922-0.888c1.982-0.248,3.969-0.447,5.96-0.598
		c1.991-0.151,3.985-0.253,5.982-0.308c1.997-0.053,3.993-0.059,5.99-0.016c1.997,0.044,3.991,0.136,5.982,0.276
		c1.993,0.141,3.981,0.331,5.964,0.568c1.982,0.237,3.958,0.523,5.928,0.856c1.969,0.333,3.928,0.715,5.878,1.144
		c1.952,0.429,3.891,0.906,5.818,1.43c1.927,0.523,3.841,1.093,5.74,1.71c28.241,9.432,57.137,33.924,70.431,60.64
		c-0.094,0.268-0.192,0.536-0.282,0.804c-4.065,12.274-3.577,26.084-7.704,38.68c-13.04,39.808-47.953,80.484-85.012,99.686
		c-11.524,5.97-24.826,10.756-37.671,12.782C758.649,579.734,723.304,579.662,719.431,581.876z"/>
	<path style="fill:#FEFEFE;" d="M832.197,443.958c1.402,0.156,2.798,0.354,4.189,0.594c3.905,0.704,7.624,2.13,9.775,5.69
		c1.585,2.626,1.617,5.578,0.862,8.476c-3.497,13.42-54.983,64.302-68.575,71.852c-12.568-1.998-23.937-17.376-32.42-26.228
		c-5.534-5.04-14.222-11.252-15.705-18.9c-0.858-4.42,0.712-10.122,3.639-13.542c1.793-2.098,3.997-2.95,6.712-3.064
		c10.999-0.466,28.609,20.848,36.517,28.324C791.203,483.926,817.247,451.782,832.197,443.958z"/>
	<path style="fill:#E8EEF6;" d="M2579.366,1203.6c4.039,2.662,5.019,3.826,6.098,8.798c2.399,11.086,2.979,22.79,3.859,34.094
		c7.178,92.188-23.373,188.098-73.858,264.642c-36.969,56.072-83.635,99.172-135.299,141.2
		c-10.577,8.608-26.092,23.644-39.368,26.382c4.039-12.134,2.839-50.94-1.679-63.104c-12.936-34.844-59.442-25.822-88.374-24.848
		c-7.018,0.236-15.775,1.252-22.293-1.732l-2.819-7.898c4.598-9.41,2.979-62.748,1.839-75.536
		c15.015-2.152,60.342-18.398,72.298-26.87c31.89-8.404,85.354-43.92,112.386-63.958c62.841-46.604,114.745-104.214,150.914-173.832
		C2568.89,1229.764,2577.527,1216.03,2579.366,1203.6z"/>
	
		<linearGradient id="SVGID_1_" gradientUnits="userSpaceOnUse" x1="-9732.2188" y1="5452.9888" x2="-9504.0195" y2="5850.1772" gradientTransform="matrix(1 0 0 -1 11985 6910)">
		<stop  offset="0" style="stop-color:#15615C"/>
		<stop  offset="1" style="stop-color:#57B398"/>
	</linearGradient>
	<path style="fill:url(#SVGID_1_);" d="M2258.503,1127.98c18.494-4.574,35.249-12.446,50.505-23.9
		c30.591-22.966,51.784-52.742,70.019-85.88c3.859-6.994,9.737-15.89,10.877-23.682l59.962,50.326
		c12.096,9.988,24.953,19.504,36.469,30.156c10.117,9.368,22.313,28.092,31.851,35.174c2.299,1.698,3.139,1.038,5.518,1.944
		c0.38,0.142,0.64,0.498,0.94,0.746c11.856,0.302,48.485-0.474,57.403,5.772c5.138,0.51,10.277,1.488,13.736,5.72
		c4.558,5.574,4.198,15.074,3.099,21.85c-2.02,12.714-11.417,48.234-19.514,57.394c-1.839,12.43-10.477,26.164-16.295,37.338
		c-36.169,69.618-88.073,127.228-150.914,173.832c-27.032,20.038-80.496,55.554-112.386,63.958
		c-11.956,8.472-57.283,24.718-72.298,26.87c0.22-14.824,3.059-36.898-1.44-50.884c1.4-4.222,1.44-6.584,0.28-10.876
		c0.62-2.364,0.96-4.69,1.04-7.14c0.24-8.278-1.88-17.146-7.758-23.196c-14.916-15.382-37.969-12.858-57.482-13.368
		c7.058-24.764,21.133-48.768,34.729-70.446c5.498-8.758,13.616-18.852,17.015-28.532c6.338-5.084,6.738-30.654,7.958-39.368
		c4.319-30.852,11.317-62.558,20.194-92.384c4.199-14.082,11.656-28.604,14.056-42.956l0.96,0.006L2258.503,1127.98z"/>
	<path style="fill:#E8EEF6;" d="M2258.503,1127.98c18.494-4.574,35.249-12.446,50.505-23.9
		c30.591-22.966,51.784-52.742,70.019-85.88c3.859-6.994,9.737-15.89,10.877-23.682l59.962,50.326
		c12.096,9.988,24.953,19.504,36.469,30.156c10.117,9.368,22.313,28.092,31.851,35.174c2.299,1.698,3.139,1.038,5.518,1.944
		c0.38,0.142,0.64,0.498,0.94,0.746c-96.251-0.276-182.065,50.782-248.745,117.242c-14.775,14.726-27.432,31.092-41.707,46.156
		c-4.159,6.892-9.737,14.702-16.435,19.272c5.058-8.182,17.775-91.056,23.933-112.816
		C2245.667,1168.658,2258.304,1140.592,2258.503,1127.98z"/>
	
		<linearGradient id="SVGID_00000049184862530194035220000014444121269501993383_" gradientUnits="userSpaceOnUse" x1="-9787.3213" y1="5453.9976" x2="-9352.1133" y2="5727.4497" gradientTransform="matrix(1 0 0 -1 11985 6910)">
		<stop  offset="0" style="stop-color:#176361"/>
		<stop  offset="1" style="stop-color:#55B092"/>
	</linearGradient>
	<path style="fill:url(#SVGID_00000049184862530194035220000014444121269501993383_);" d="M2582.046,1118.636
		c5.138,0.51,10.277,1.488,13.736,5.72c4.558,5.574,4.198,15.074,3.099,21.85c-2.02,12.714-11.417,48.234-19.514,57.394
		c-1.839,12.43-10.477,26.164-16.295,37.338c-36.169,69.618-88.073,127.228-150.914,173.832
		c-27.032,20.038-80.496,55.554-112.386,63.958c-11.956,8.472-57.283,24.718-72.298,26.87c0.22-14.824,3.059-36.898-1.44-50.884
		c1.4-4.222,1.44-6.584,0.28-10.876c1.26-0.574,2.519-1.112,3.659-1.892c5.958-4.066,40.608-42.398,41.627-47.25
		c9.817-4.336,37.209-35.302,46.786-44.856c22.713-23.037,45.873-45.622,69.479-67.754c16.415-15.192,34.79-29.752,49.865-46.212
		c34.31-27.642,65.82-58.71,100.83-85.612C2546.756,1143.952,2578.927,1125.366,2582.046,1118.636z"/>
	<path style="fill:#283581;" d="M2271.6,1394.696c9.817-4.336,37.209-35.302,46.786-44.856
		c22.713-23.037,45.873-45.622,69.479-67.754c16.415-15.192,34.79-29.752,49.865-46.212c-0.16,1.01-0.1,2.09-0.5,3.03
		c-1.419,3.27-63.541,59.084-71.518,66.792c-20.414,19.674-41.208,39.706-60.262,60.69c-11.956,13.172-33.81,41.91-46.426,51.612
		c-0.26,0.198-0.54,0.368-0.8,0.552c-4.479,7.796-23.653,33.532-31.47,35.978c-0.24,0.074-0.48,0.124-0.72,0.186
		c1.4-4.222,1.44-6.584,0.28-10.876c1.26-0.574,2.519-1.112,3.659-1.892C2235.93,1437.88,2270.58,1399.548,2271.6,1394.696z"/>
	<path style="fill:#E8EEF6;" d="M427.219,1117.242l2.061,0.264c6.338,10.438,14.412,20.114,21.711,29.898
		c19.92,26.702,42.219,55.242,56.191,85.638c1.913,3.934,3.759,7.836,5.394,11.898c20.042,28.262,38.3,81.624,49.359,114.974
		l2.063,6.422l1.549,5.648c11.545,38.648,21.88,79.83,24.799,120.154l-0.306,12.08l0.106,0.952c2.369,5.426,2.233,11.4,2.493,17.222
		c-31.577,0.217-63.154,0.218-94.731,0.002c-16.701-0.052-36.955-2.388-53.126,1.376c-8.324,1.938-15.815,6.654-21.698,12.794
		c-0.55,0.576-1.087,1.166-1.609,1.77c-0.521,0.604-1.027,1.22-1.518,1.848c-0.492,0.629-0.967,1.27-1.426,1.922
		c-0.458,0.652-0.901,1.315-1.328,1.99c-0.425,0.675-0.834,1.359-1.226,2.054s-0.767,1.399-1.124,2.114
		c-0.356,0.713-0.694,1.435-1.016,2.166c-0.32,0.729-0.622,1.467-0.906,2.214c-0.284,0.745-0.549,1.497-0.796,2.256
		c-0.247,0.759-0.474,1.523-0.682,2.294c-0.208,0.769-0.397,1.544-0.568,2.324c-0.169,0.78-0.319,1.563-0.45,2.35
		c-0.131,0.787-0.241,1.577-0.332,2.37c-0.092,0.792-0.163,1.586-0.214,2.382c-0.052,0.796-0.084,1.593-0.096,2.392
		c-0.012,0.797-0.004,1.595,0.024,2.392c0.402,10.908,5.125,20.416,13.266,27.65c0.8,0.71,0.968,0.794,1.746,1.312
		c8.685,6.326,16.093,9.728,26.566,12.084l0.076,22.362c0.35,49.986-4.601,98.786,34.264,137.208
		c8.747,8.648,19.114,16.08,29.911,21.95c8.12,4.17,19.494,6.274,26.754,11c-44.816,1.262-90.003,0.248-134.849,0.318
		c-30.825,0.046-62.933,1.936-93.572-0.66c13.63-2.75,31.009-0.954,44.952-0.942c35.711,0.034,71.764,1.182,107.43-0.502
		c-5.061-2.011-10.088-4.105-15.081-6.282c-117.261-51.34-247.517-170.096-294.243-291.158
		c-34.735-89.994-34.823-199.35,31.483-275.498c25.649-29.456,58.522-52.676,74.575-89.682c0.168-0.39,0.328-0.782,0.49-1.174
		c10.549,6.144,20.994,9.458,33.282,9.51C331.552,1149.042,387.029,1119.264,427.219,1117.242z"/>
	
		<linearGradient id="SVGID_00000021078062853576499750000006670224136254923947_" gradientUnits="userSpaceOnUse" x1="-11490.7939" y1="5520.7026" x2="-11536.2656" y2="5609.6206" gradientTransform="matrix(1 0 0 -1 11985 6910)">
		<stop  offset="0" style="stop-color:#67B75A"/>
		<stop  offset="1" style="stop-color:#92D578"/>
	</linearGradient>
	<path style="fill:url(#SVGID_00000021078062853576499750000006670224136254923947_);" d="M551.835,1367.092
		c-36.575,1.464-98.066,38.49-128.909,24.724c-10.707-4.78-18.706-14.06-22.527-25.078c-0.249-0.737-0.48-1.481-0.694-2.23
		c-0.213-0.749-0.407-1.503-0.582-2.262c-0.176-0.759-0.333-1.521-0.47-2.288s-0.255-1.536-0.354-2.308
		c-0.099-0.772-0.178-1.546-0.238-2.322c-0.06-0.777-0.101-1.555-0.122-2.334c-0.021-0.777-0.023-1.555-0.006-2.334
		c0.017-0.779,0.054-1.557,0.11-2.334c0.056-0.776,0.131-1.551,0.226-2.324c0.095-0.773,0.209-1.543,0.342-2.31
		c0.133-0.768,0.286-1.531,0.458-2.29c0.171-0.76,0.361-1.515,0.57-2.266c0.209-0.749,0.437-1.493,0.682-2.232
		c0.247-0.739,0.511-1.471,0.794-2.198c0.283-0.725,0.583-1.443,0.902-2.154c0.319-0.711,0.655-1.413,1.008-2.106
		c0.314-0.62,0.644-1.232,0.99-1.836c0.345-0.604,0.705-1.199,1.08-1.784c0.374-0.585,0.763-1.161,1.166-1.728
		c0.404-0.565,0.821-1.121,1.252-1.668c0.43-0.545,0.875-1.079,1.333-1.602c0.457-0.524,0.928-1.036,1.412-1.536
		c0.483-0.5,0.978-0.987,1.486-1.462c0.507-0.475,1.025-0.937,1.556-1.386c0.53-0.449,1.072-0.885,1.624-1.308
		c0.553-0.423,1.116-0.831,1.688-1.224c0.573-0.395,1.155-0.775,1.745-1.14c0.592-0.365,1.192-0.715,1.801-1.05
		c0.609-0.336,1.226-0.656,1.849-0.96c0.625-0.304,1.258-0.593,1.897-0.866c0.638-0.273,1.284-0.53,1.935-0.77
		c0.652-0.241,1.31-0.466,1.973-0.674c8.857-2.848,18.43-2.938,27.476-0.96c29.615,6.476,77.759,36.214,106.65,51.422l2.063,6.422
		l1.549,5.648L551.835,1367.092z"/>
	<path style="fill:#376242;" d="M551.835,1367.092c-22.357-8.354-51.918-9.588-75.589-7.752
		c-11.169,0.866-23.431,3.074-34.538,1.754l0.718-1.098c28.079-8.714,70.505-7.754,99.306-1.196
		c7.248,1.652,13.526,5.454,20.512,7.142c0.584,0.142,1.17,0.262,1.755,0.394l1.549,5.648L551.835,1367.092z"/>
	
		<linearGradient id="SVGID_00000062190725133976634660000011386971652720529328_" gradientUnits="userSpaceOnUse" x1="-11532.4023" y1="5635.2979" x2="-11606.3066" y2="5733.1733" gradientTransform="matrix(1 0 0 -1 11985 6910)">
		<stop  offset="0" style="stop-color:#64B555"/>
		<stop  offset="1" style="stop-color:#91D478"/>
	</linearGradient>
	<path style="fill:url(#SVGID_00000062190725133976634660000011386971652720529328_);" d="M512.577,1244.94
		c-43.283-3.578-111.928,38.008-148.471,19.652c-9.875-4.96-17.053-13.606-20.406-24.132c-3.757-11.8-2.883-25.186,2.877-36.198
		c0.356-0.672,0.728-1.335,1.116-1.99c0.389-0.653,0.794-1.297,1.214-1.93c0.421-0.633,0.858-1.256,1.31-1.868
		c0.452-0.612,0.918-1.212,1.4-1.8c0.483-0.588,0.979-1.164,1.49-1.728c0.51-0.563,1.035-1.113,1.573-1.65
		c0.537-0.537,1.088-1.061,1.654-1.572c0.564-0.509,1.14-1.004,1.73-1.484c0.589-0.481,1.19-0.947,1.803-1.398
		c0.612-0.451,1.235-0.886,1.869-1.306c0.633-0.419,1.277-0.822,1.931-1.21c0.655-0.387,1.318-0.757,1.991-1.112
		c0.673-0.353,1.354-0.69,2.043-1.01c0.689-0.32,1.386-0.623,2.091-0.908c0.705-0.285,1.417-0.553,2.135-0.802
		c0.718-0.249,1.442-0.481,2.171-0.694c33.166-9.566,103.525,34.72,133.084,51.242
		C509.096,1236.976,510.942,1240.878,512.577,1244.94z"/>
	
		<linearGradient id="SVGID_00000108998153177521728890000006754456124806630582_" gradientUnits="userSpaceOnUse" x1="-11448.8486" y1="5393.8799" x2="-11521.0313" y2="5503.1714" gradientTransform="matrix(1 0 0 -1 11985 6910)">
		<stop  offset="0" style="stop-color:#60B457"/>
		<stop  offset="1" style="stop-color:#8ED37A"/>
	</linearGradient>
	<path style="fill:url(#SVGID_00000108998153177521728890000006754456124806630582_);" d="M590.148,1505.17
		c-30.379-17.568-65.46-7.784-98.93-7.944c-16.533-0.08-34.905-2.754-46.934-15.262c-8.649-8.996-11.794-21.538-11.592-33.748
		c0.198-11.862,6.29-23.79,14.794-31.904c8.174-7.798,20.35-12.252,31.6-11.86c39.422,1.374,86.094,60.804,111.262,87.686
		l-0.306,12.08L590.148,1505.17z"/>
	<path style="fill:#E8EEF6;" d="M327.861,907.306c0.446-0.264,46.294-63.712,55.109-73.494
		c45.574-50.572,105.914-98.97,175.635-107.958c29.255-3.77,59.932-1.124,89.391-0.594c32.966,0.592,65.588-0.11,98.52-1.776
		l-0.516,538.252c6.098-2.714,12.502-4.056,18.974-5.572c-0.109-9.42,0.115-18.832,0.674-28.236
		c0.213,9.365,0.273,18.732,0.178,28.1c17.015,0.916,32.156,5.638,43.969,18.608c7.474,8.206,11.934,18.84,11.201,30.028
		c-0.948,14.458-10.119,26.49-20.712,35.648c-10.637,9.196-23.249,16.578-35.391,23.61c-6.226,2.11-12.466,4.47-18.778,6.282
		c-14.242,6.856-28.915,12.617-44.017,17.284c-8.749,11.768-19.27,22.494-28.955,33.516c-15.601,16.654-26.708,34.574-39.524,53.296
		c-11.323,14.508-22.943,31.466-31.047,48.008l-9.931,0.084c-0.26-5.822-0.124-11.796-2.493-17.222l-0.106-0.952l0.306-12.08
		c-2.919-40.324-13.254-81.506-24.799-120.154l-1.549-5.648l-2.063-6.422c-11.059-33.35-29.317-86.712-49.359-114.974
		c-1.635-4.062-3.481-7.964-5.394-11.898c-13.972-30.396-36.271-58.936-56.191-85.638c-7.3-9.784-15.373-19.46-21.711-29.898
		l-2.061-0.264c-40.19,2.022-95.667,31.8-130.349,31.656c-12.288-0.052-22.733-3.366-33.282-9.51
		c-9.055-7.092-16.079-15.884-19.598-26.954c-0.235-0.732-0.452-1.469-0.652-2.212c-0.199-0.743-0.379-1.49-0.542-2.242
		c-0.161-0.751-0.305-1.505-0.43-2.264c-0.125-0.759-0.232-1.52-0.32-2.284c-0.088-0.764-0.157-1.53-0.206-2.298
		c-0.051-0.767-0.082-1.535-0.094-2.304c-0.012-0.768-0.005-1.537,0.02-2.306c0.025-0.768,0.069-1.535,0.132-2.302
		c0.063-0.767,0.145-1.531,0.246-2.292c0.1-0.763,0.219-1.523,0.358-2.28c0.137-0.756,0.294-1.508,0.47-2.256
		c0.175-0.749,0.368-1.493,0.58-2.232c0.211-0.74,0.44-1.474,0.688-2.202c0.248-0.728,0.513-1.449,0.796-2.164
		c0.283-0.715,0.583-1.422,0.902-2.122c0.317-0.7,0.652-1.392,1.004-2.076c7.354-14.104,19.312-20.71,33.986-25.16l-0.564-52.4
		c-2.273-2.264-4.527-4.56-6.558-7.048c-9.133-11.188-14.316-24.604-12.768-39.174c1.418-13.338,8.388-25.376,18.776-33.758
		C294.195,907.454,310.081,905.544,327.861,907.306z"/>
	<path style="fill:#C6D9F8;" d="M712.641,936.064c2.257-0.296,4.817-0.532,7.08-0.33c3.475,0.308,4.75,0.854,6.744,3.572
		l-0.636,3.172c-6.43,7.516-11.43,8.428-20.708,10.522c-2.179,0.822-4.695,2.008-7.046,1.988c-2.583-0.02-3.003-0.782-4.761-2.452
		c0.008-1.402-0.046-2.79,0.496-4.122C697.215,940.08,704.939,938.452,712.641,936.064z"/>
	<path style="fill:#C6D9F8;" d="M679.937,968.534c2.415,0.312,4.057,0.982,6.25,1.968c0.896,1.085,1.714,2.227,2.453,3.426
		c0.738,1.199,1.392,2.442,1.959,3.73c0.568,1.288,1.044,2.609,1.43,3.964c0.387,1.353,0.678,2.727,0.874,4.122
		c1.166,7.76,1.34,12.06-3.417,18.652c-2.353-0.222-3.837-0.982-5.912-2.074c-4.355-5.406-6.122-11.66-6.768-18.472
		C676.214,977.62,675.764,973.606,679.937,968.534z"/>
	<path style="fill:#C6D9F8;" d="M645.581,953.596c2.295-0.29,4.705-0.676,7.018-0.638c3.459,0.056,5.27,0.434,7.71,2.762
		l-0.362,3.02c-5.802,7.568-11.621,8.974-20.456,11.484c-2.559,0.206-5.548,0.656-8.096,0.372c-3.583-0.398-4.747-0.982-6.91-3.726
		l0.66-3.394C631.339,955.796,636.258,955.342,645.581,953.596z"/>
	<path style="fill:#C6D9F8;" d="M662.594,897.89c3.073,0.048,4.861,0.33,7.704,1.492c2.883,3.36,4.703,6.954,5.912,11.208
		c2.063,7.248,2.429,17.046-1.13,23.676c-2.155,0.27-4.177,0.062-6.334-0.098c-3.661-2.756-4.795-6.418-5.98-10.738
		C660.851,916.46,659.023,904.37,662.594,897.89z"/>
	<path style="fill:#C6D9F8;" d="M488.287,787.01c4.431,0.052,9.137,0.362,13.346,1.858c7.836,2.786,14.142,8.448,17.433,16.11
		c0.423,1.008,0.792,2.035,1.108,3.082c0.317,1.045,0.58,2.105,0.788,3.178c0.207,1.073,0.358,2.154,0.454,3.242
		c0.097,1.089,0.138,2.181,0.122,3.274c-0.017,1.092-0.09,2.181-0.218,3.266c-0.128,1.085-0.311,2.161-0.55,3.228
		c-0.24,1.067-0.533,2.118-0.88,3.154c-0.348,1.037-0.748,2.053-1.2,3.048c-4.807,10.534-12.558,15.35-22.945,19.054
		c-7.48,0.03-13.494,0.074-20.222-3.776c-0.484-0.272-0.96-0.557-1.428-0.854c-0.468-0.299-0.928-0.609-1.38-0.93
		c-0.452-0.323-0.894-0.657-1.328-1.002c-0.435-0.347-0.859-0.704-1.274-1.072c-0.415-0.368-0.819-0.747-1.214-1.138
		c-0.395-0.389-0.779-0.789-1.154-1.2c-0.373-0.411-0.735-0.831-1.086-1.26c-0.351-0.429-0.69-0.868-1.018-1.316
		c-0.328-0.448-0.643-0.905-0.946-1.37c-0.304-0.464-0.595-0.936-0.874-1.416c-0.277-0.48-0.543-0.967-0.796-1.462
		c-0.252-0.495-0.49-0.995-0.716-1.502c-0.225-0.507-0.437-1.019-0.636-1.538c-0.199-0.519-0.383-1.042-0.554-1.57
		c-0.171-0.528-0.327-1.06-0.468-1.596c-0.143-0.537-0.271-1.077-0.384-1.62c-1.841-8.414-0.138-17.614,4.853-24.664
		C470.978,791.948,478.755,788.782,488.287,787.01z"/>
	<path style="fill:#E8EEF6;" d="M485.921,802.546c1.508-0.048,3.013-0.09,4.521-0.016c4.531,0.22,8.383,2.234,11.337,5.68
		c2.871,3.352,4.235,7.46,3.669,11.852c-0.87,6.752-4.441,9.846-9.725,13.634c-1.356,0.03-2.707,0.05-4.063-0.016
		c-4.969-0.242-9.487-2.114-12.664-6.066c-2.427-3.014-3.385-6.498-2.977-10.332C476.77,810.206,480.701,806.678,485.921,802.546z"
		/>
	<path style="fill:#94CC75;" d="M643.286,1445.402c-9.973-24.274-31.297-71.406-28.212-97.016
		c1.182-9.81,5.332-19.494,13.526-25.434c8.002-5.8,19.474-7.804,29.157-6.17c6.914,1.168,13.586,4.028,17.667,9.986
		c16.289,23.78-17.695,80.056-23.249,107.73l-2.267,1.222c-3.639-5.262,0.302-71.08-5.952-79.546l0.586,2.29l-1.158,0.88l0.228,1.74
		c2.037,16.204,6.566,69.36,0.892,81.792c-0.238,0.522-0.458,1.052-0.708,1.568C643.64,1444.77,643.456,1445.082,643.286,1445.402z"
		/>
	<path style="fill:#515EB1;" d="M374.701,1037.586c5.332,6.006,9.245,15.494,17.393,17.268c11.91,12.834,19.524,30.15,31.896,42.482
		c2.695,4.326,5.856,8.704,8.016,13.314l1.747,0.588c1.937,4.916,4.581,10.246,9.059,13.334l1.505,0.752
		c29.961,35.516,53.348,74.644,76.243,114.894l3.259,5.008c1.156,3.618,2.153,6.502,4.405,9.582
		c9.827,20.876,19.25,41.756,27.34,63.388c5.154,13.786,8.959,30.948,16.087,43.61c0.758,2.786,1.611,5.586,2.195,8.412
		c10.033,38.53,22.637,80.834,23.219,120.786c2.465,5.072,2.043,16.158,2.519,22.07c12.684-23.614,28.585-45.566,43.701-67.672
		c0.17-0.32,0.354-0.632,0.51-0.958c0.25-0.516,0.47-1.046,0.708-1.568c5.674-12.432,1.146-65.588-0.892-81.792l-0.228-1.74
		l1.158-0.88l-0.586-2.29c6.254,8.466,2.313,74.284,5.952,79.546l2.267-1.222c15.069-17.677,30.044-35.434,44.926-53.27
		c0.242-0.156,0.488-0.306,0.726-0.468c7-4.808,13.018-14.326,18.414-20.936c9.871-12.092,40.12-49.476,54.362-54.094l0.712,0.874
		c-5.628,7.058-13.052,12.738-19.478,19.086c-12.512,12.358-44.834,45.322-49.739,61.798c-8.749,11.768-19.27,22.494-28.955,33.516
		c-15.601,16.654-26.708,34.574-39.524,53.296c-11.323,14.508-22.943,31.466-31.047,48.008l-9.931,0.084
		c-0.26-5.822-0.124-11.796-2.493-17.222l-0.106-0.952l0.306-12.08c-2.919-40.324-13.254-81.506-24.799-120.154l-1.549-5.648
		l-2.063-6.422c-11.059-33.35-29.317-86.712-49.359-114.974c-1.635-4.062-3.481-7.964-5.394-11.898
		c-13.972-30.396-36.271-58.936-56.191-85.638c-7.3-9.784-15.373-19.46-21.711-29.898l-2.061-0.264
		c-2.469-2.994-4.453-6.406-6.534-9.678c-8.695-15.198-21.542-29.586-32.232-43.544
		C385.344,1055.196,379.008,1046.036,374.701,1037.586z"/>
	
		<linearGradient id="SVGID_00000114037380113149529310000011627964128538831243_" gradientUnits="userSpaceOnUse" x1="-11360.96" y1="5564.9438" x2="-11351.3887" y2="5701.1641" gradientTransform="matrix(1 0 0 -1 11985 6910)">
		<stop  offset="0" style="stop-color:#65B555"/>
		<stop  offset="1" style="stop-color:#8FD479"/>
	</linearGradient>
	<path style="fill:url(#SVGID_00000114037380113149529310000011627964128538831243_);" d="M571.651,1361.806
		c7.402-41.572,6.812-121.408,43.753-147.586c8.247-5.846,18.051-7.882,27.962-6.168c12.24,2.116,25.104,10.058,32.24,20.266
		c0.349,0.499,0.685,1.005,1.008,1.52c0.323,0.516,0.631,1.04,0.926,1.572c0.296,0.531,0.577,1.069,0.844,1.616
		c0.268,0.547,0.521,1.099,0.76,1.658c0.238,0.56,0.463,1.125,0.672,1.696c0.209,0.572,0.403,1.149,0.582,1.73
		c0.18,0.581,0.344,1.167,0.492,1.756c0.149,0.589,0.283,1.183,0.4,1.78c0.119,0.596,0.221,1.195,0.308,1.798
		c0.087,0.601,0.157,1.205,0.212,1.812c0.056,0.605,0.096,1.212,0.12,1.82c0.024,0.608,0.032,1.216,0.024,1.824
		c-0.008,0.608-0.032,1.215-0.072,1.822c-0.039,0.607-0.094,1.212-0.166,1.816c-0.071,0.604-0.157,1.206-0.258,1.806
		c-0.103,0.6-0.22,1.197-0.354,1.79c-5.476,25.332-61.477,63.724-81.937,83.258c-10.027,9.572-18.027,19.04-25.318,30.826
		C573.263,1367.392,572.409,1364.592,571.651,1361.806z"/>
	<path style="fill:#94CC75;" d="M765.649,1227.928c0.213,9.365,0.273,18.732,0.178,28.1c17.015,0.916,32.156,5.638,43.969,18.608
		c7.474,8.206,11.934,18.84,11.201,30.028c-0.948,14.458-10.119,26.49-20.712,35.648c-10.637,9.196-23.249,16.578-35.391,23.61
		c-6.226,2.11-12.466,4.47-18.778,6.282c-14.242,6.856-28.915,12.617-44.017,17.284c4.904-16.476,37.227-49.44,49.739-61.798
		c6.426-6.348,13.85-12.028,19.478-19.086l-0.712-0.874c-14.242,4.618-44.491,42.002-54.362,54.094
		c-5.396,6.61-11.414,16.128-18.414,20.936c-0.238,0.162-0.484,0.312-0.726,0.468c9.537-34.278,19.156-98.38,48.899-119.492
		c6.098-2.714,12.502-4.056,18.974-5.572C764.866,1246.744,765.09,1237.332,765.649,1227.928z"/>
	
		<linearGradient id="SVGID_00000116195908020377779050000018349917136757956786_" gradientUnits="userSpaceOnUse" x1="-11526.4395" y1="5791.6831" x2="-11515.7119" y2="5941.8687" gradientTransform="matrix(1 0 0 -1 11985 6910)">
		<stop  offset="0" style="stop-color:#64B050"/>
		<stop  offset="1" style="stop-color:#92D57C"/>
	</linearGradient>
	<path style="fill:url(#SVGID_00000116195908020377779050000018349917136757956786_);" d="M423.99,1097.336
		c-7.772-32.128-23.271-74.904-4.731-105.468c0.445-0.733,0.908-1.455,1.39-2.164c0.48-0.711,0.978-1.409,1.493-2.094
		c0.514-0.687,1.046-1.359,1.595-2.018c0.548-0.66,1.112-1.305,1.691-1.936c0.581-0.632,1.177-1.249,1.788-1.85
		c0.61-0.603,1.236-1.19,1.875-1.762c0.64-0.571,1.293-1.125,1.959-1.664c0.667-0.539,1.346-1.061,2.039-1.566
		c0.693-0.507,1.398-0.995,2.113-1.464c0.717-0.471,1.446-0.923,2.185-1.358c0.738-0.435,1.487-0.851,2.247-1.25
		c0.76-0.397,1.529-0.776,2.307-1.136c0.779-0.36,1.565-0.7,2.359-1.02c0.796-0.321,1.598-0.623,2.407-0.904
		c0.81-0.281,1.627-0.542,2.449-0.782c0.824-0.241,1.652-0.462,2.485-0.662c15.027-3.68,30.829-0.708,43.939,7.376
		c11.748,7.248,20.844,18.5,23.843,32.132c3.239,14.718-1.334,28.422-9.459,40.67c-18.381,27.698-47.624,48.854-65.65,76.908
		l-1.505-0.752c-4.479-3.088-7.122-8.418-9.059-13.334l-1.747-0.588C429.846,1106.04,426.685,1101.662,423.99,1097.336z"/>
	<path style="fill:#376242;" d="M433.753,1111.238c4.557-26.926,7.826-51.03,16.437-77.2c1.138-3.456,2.565-10.254,5.201-12.572
		c0.226-0.2,0.508-0.33,0.76-0.494l1.274,0.68c0.092,11.358-6.412,24.19-9.441,35.072c-5.842,20.988-7.924,46.088-5.17,67.848
		C438.334,1121.484,435.69,1116.154,433.753,1111.238z"/>
	
		<linearGradient id="SVGID_00000074418426439623727510000000088532980370848422_" gradientUnits="userSpaceOnUse" x1="-11416.458" y1="5674.0137" x2="-11416.5195" y2="5828.667" gradientTransform="matrix(1 0 0 -1 11985 6910)">
		<stop  offset="0" style="stop-color:#62B14F"/>
		<stop  offset="1" style="stop-color:#94D97F"/>
	</linearGradient>
	<path style="fill:url(#SVGID_00000074418426439623727510000000088532980370848422_);" d="M520.561,1240.218
		c-3.409-39.136-17.631-111.298,9.305-142.95c8.799-10.34,21.729-16.248,35.169-17.232c15.571-1.138,30.569,5.484,42.203,15.634
		c9.431,8.228,15.307,18.57,15.951,31.192c0.876,17.158-8.12,30.986-19.422,43.058c-12.926,13.808-27.654,25.862-40.822,39.432
		c-12.588,12.972-22.559,26.894-33.256,41.34l-1.466,4.116c-2.251-3.08-3.249-5.964-4.405-9.582L520.561,1240.218z"/>
	<path style="fill:#376242;" d="M531.949,1208.004c1.89,1.684,3.247,2.778,4.475,5.05c-2.913,12.276-6.326,24.988-6.734,37.638
		l-1.466,4.116c-2.251-3.08-3.249-5.964-4.405-9.582C525.659,1232.636,528.021,1220.12,531.949,1208.004z"/>
	<path style="fill:#376242;" d="M531.949,1208.004c7.318-27.836,18.385-60.444,37.257-82.564
		c-4.996,14.282-11.93,27.7-17.783,41.628c-6.216,14.794-10.993,30.462-14.999,45.986
		C535.196,1210.782,533.839,1209.688,531.949,1208.004z"/>
	
		<linearGradient id="SVGID_00000106145403648298033220000011370711149566310053_" gradientUnits="userSpaceOnUse" x1="-11626.5811" y1="5845.2734" x2="-11689.7285" y2="5997.8862" gradientTransform="matrix(1 0 0 -1 11985 6910)">
		<stop  offset="0" style="stop-color:#65AE52"/>
		<stop  offset="1" style="stop-color:#99D881"/>
	</linearGradient>
	<path style="fill:url(#SVGID_00000106145403648298033220000011370711149566310053_);" d="M280.363,999.038
		c-2.273-2.264-4.527-4.56-6.558-7.048c-9.133-11.188-14.316-24.604-12.768-39.174c1.418-13.338,8.388-25.376,18.776-33.758
		c14.382-11.604,30.267-13.514,48.048-11.752c18.212,6.798,29.313,17.592,37.409,35.374c11.275,24.764,15.211,53.812,19.908,80.384
		c1.859,10.522,3.053,21.784,6.916,31.79c-8.147-1.774-12.06-11.262-17.393-17.268c4.307,8.45,10.643,17.61,13.752,26.434
		c-9.527-4.01-18.872-10.156-27.927-15.186C332.88,1033.48,305.806,1017.924,280.363,999.038z"/>
	
		<linearGradient id="SVGID_00000180325257570720853560000011155273143495944602_" gradientUnits="userSpaceOnUse" x1="-11628.7744" y1="5760.2651" x2="-11694.0996" y2="5866.3413" gradientTransform="matrix(1 0 0 -1 11985 6910)">
		<stop  offset="0" style="stop-color:#65B353"/>
		<stop  offset="1" style="stop-color:#93D47C"/>
	</linearGradient>
	<path style="fill:url(#SVGID_00000180325257570720853560000011155273143495944602_);" d="M280.363,999.038
		c25.442,18.886,52.516,34.442,80.162,49.796c9.055,5.03,18.4,11.176,27.927,15.186c10.691,13.958,23.537,28.346,32.232,43.544
		c2.081,3.272,4.065,6.684,6.534,9.678c-40.19,2.022-95.667,31.8-130.349,31.656c-12.288-0.052-22.733-3.366-33.282-9.51
		c-9.055-7.092-16.079-15.884-19.598-26.954c-0.235-0.732-0.452-1.469-0.652-2.212c-0.199-0.743-0.379-1.49-0.542-2.242
		c-0.161-0.751-0.305-1.505-0.43-2.264c-0.125-0.759-0.232-1.52-0.32-2.284c-0.088-0.764-0.157-1.53-0.206-2.298
		c-0.051-0.767-0.082-1.535-0.094-2.304c-0.012-0.768-0.005-1.537,0.02-2.306c0.025-0.768,0.069-1.535,0.132-2.302
		c0.063-0.767,0.145-1.531,0.246-2.292c0.1-0.763,0.219-1.523,0.358-2.28c0.137-0.756,0.294-1.508,0.47-2.256
		c0.175-0.749,0.368-1.493,0.58-2.232c0.211-0.74,0.44-1.474,0.688-2.202c0.248-0.728,0.513-1.449,0.796-2.164
		c0.283-0.715,0.583-1.422,0.902-2.122c0.317-0.7,0.652-1.392,1.004-2.076c7.354-14.104,19.312-20.71,33.986-25.16L280.363,999.038z
		"/>
	<path style="fill:#E8EEF6;" d="M280.363,999.038c25.442,18.886,52.516,34.442,80.162,49.796c9.055,5.03,18.4,11.176,27.927,15.186
		c10.691,13.958,23.537,28.346,32.232,43.544c-35.269-17.768-102.641-58.062-139.758-56.126L280.363,999.038z"/>
	<path style="fill:#E8EEF6;" d="M633.619,1474.3c37.857-0.136,74.607,10.302,112.34,4.626l-0.038,43.656l20.402-0.254l2.483,0.92
		c14.966,2.26,26.71,6.898,35.987,19.502c7.214,9.802,10.703,22.866,8.671,34.944c-1.342,7.978-5.642,17.99-11.605,23.534
		c-8.211,10.116-20.052,18.992-33.28,20.882c10.265,19.656,21.318,35.418,43.695,42.358c21.641,6.712,74.501,2.324,99.9,2.512
		c32.342,1.25,64.936,0.514,97.305,0.558l188.993,0.066l617.061,0.31l-0.026,17.656c-0.532,23.37-4.161,68.25,0.242,89.652
		c1.267,6.158,3.755,12.276,8.213,16.82c6.006,6.122,13.53,8.672,20.54,13.178c-41.32,1.658-83.217,0.362-124.588,0.386
		l-241.971-0.018l-723.425-0.56c-28.235,2.028-57.633,0.3-85.97-0.374c-41.703-0.992-84.478-1.648-126.144,0.314
		c-7.26-4.726-18.634-6.83-26.754-11c-10.797-5.87-21.164-13.302-29.911-21.95c-38.864-38.422-33.914-87.222-34.264-137.208
		l-0.076-22.362c-10.473-2.356-17.881-5.758-26.566-12.084c-0.778-0.518-0.946-0.602-1.746-1.312
		c-8.141-7.234-12.864-16.742-13.266-27.65c-0.028-0.797-0.036-1.595-0.024-2.392c0.012-0.799,0.044-1.596,0.096-2.392
		c0.051-0.796,0.122-1.59,0.214-2.382c0.091-0.793,0.201-1.583,0.332-2.37c0.131-0.786,0.281-1.57,0.45-2.35
		c0.171-0.78,0.36-1.555,0.568-2.324c0.208-0.771,0.435-1.535,0.682-2.294c0.247-0.759,0.512-1.511,0.796-2.256
		c0.284-0.747,0.586-1.485,0.906-2.214c0.321-0.731,0.66-1.453,1.016-2.166c0.357-0.715,0.732-1.419,1.124-2.114
		s0.8-1.379,1.226-2.054c0.427-0.675,0.869-1.338,1.328-1.99c0.459-0.652,0.934-1.293,1.426-1.922
		c0.491-0.628,0.996-1.244,1.518-1.848c0.522-0.604,1.059-1.194,1.609-1.77c5.882-6.14,13.374-10.856,21.698-12.794
		c16.171-3.764,36.425-1.428,53.126-1.376c31.577,0.216,63.154,0.215,94.731-0.002l9.931-0.084
		C610.676,1505.766,622.296,1488.808,633.619,1474.3z"/>
	<path style="fill:#6688EE;" d="M714.372,1634.34c17.495,0.166,35.481-1.028,52.876,0.12c0.076,7.202-0.236,14.666,0.54,21.816
		c0.148,13.746,1.459,27.924,0.624,41.612c-1.667,27.314-15.707,55.638-34.823,74.928c-16.547,16.698-37.483,25.186-60.01,30.368
		c26.46,3.758,54.21,0.162,80.94,1.844c-28.235,2.028-57.633,0.3-85.97-0.374c-41.703-0.992-84.478-1.648-126.144,0.314
		c-7.26-4.726-18.634-6.83-26.754-11c8.735-5.516,32.66-8.718,43.915-12.304c15.409-4.908,30.721-12.726,44.736-20.76
		c39.148-22.442,70.579-56.386,93.812-94.824c5.852-9.684,12.284-20.566,15.243-31.514L714.372,1634.34z"/>
	<path style="fill:#283581;" d="M767.248,1634.46c-0.076-4.34-0.454-8.286,1.332-12.35c10.265,19.656,21.318,35.418,43.695,42.358
		c21.641,6.712,74.501,2.324,99.9,2.512c32.342,1.25,64.936,0.514,97.305,0.558l188.993,0.066l617.061,0.31l-0.026,17.656
		l-677.823-0.118l-211.202-0.018c-34.975,0.012-71.298,2.406-106.08-0.316c-21.729-1.702-38.804-12.454-52.614-28.842
		C767.012,1649.126,767.324,1641.662,767.248,1634.46z"/>
	<path style="fill:#7596ED;" d="M451.476,1634.81c87.182,0.024,174.749-1.848,261.881-0.244
		c-2.959,10.948-9.391,21.83-15.243,31.514c-23.233,38.438-54.664,72.382-93.812,94.824c-14.016,8.034-29.327,15.852-44.736,20.76
		c-11.255,3.586-35.179,6.788-43.915,12.304c-10.797-5.87-21.164-13.302-29.911-21.95
		C446.875,1733.596,451.826,1684.796,451.476,1634.81z"/>
	<path style="fill:#7596ED;" d="M633.619,1474.3c37.857-0.136,74.607,10.302,112.34,4.626l-0.038,43.656l20.402-0.254l2.483,0.92
		c14.966,2.26,26.71,6.898,35.987,19.502c7.214,9.802,10.703,22.866,8.671,34.944c-1.342,7.978-5.642,17.99-11.605,23.534
		c-8.211,10.116-20.052,18.992-33.28,20.882c-1.786,4.064-1.408,8.01-1.332,12.35c-17.395-1.148-35.381,0.046-52.876-0.12
		l-1.016,0.226c-87.132-1.604-174.699,0.268-261.881,0.244l-0.076-22.362c-10.473-2.356-17.881-5.758-26.566-12.084
		c-0.778-0.518-0.946-0.602-1.746-1.312c-8.141-7.234-12.864-16.742-13.266-27.65c-0.028-0.797-0.036-1.595-0.024-2.392
		c0.012-0.799,0.044-1.596,0.096-2.392c0.051-0.796,0.122-1.59,0.214-2.382c0.091-0.793,0.201-1.583,0.332-2.37
		c0.131-0.786,0.281-1.57,0.45-2.35c0.171-0.78,0.36-1.555,0.568-2.324c0.208-0.771,0.435-1.535,0.682-2.294
		c0.247-0.759,0.512-1.511,0.796-2.256c0.284-0.747,0.586-1.485,0.906-2.214c0.321-0.731,0.66-1.453,1.016-2.166
		c0.357-0.715,0.732-1.419,1.124-2.114s0.8-1.379,1.226-2.054c0.427-0.675,0.869-1.338,1.328-1.99
		c0.459-0.652,0.934-1.293,1.426-1.922c0.491-0.628,0.996-1.244,1.518-1.848c0.522-0.604,1.059-1.194,1.609-1.77
		c5.882-6.14,13.374-10.856,21.698-12.794c16.171-3.764,36.425-1.428,53.126-1.376c31.577,0.216,63.154,0.215,94.731-0.002
		l9.931-0.084C610.676,1505.766,622.296,1488.808,633.619,1474.3z"/>
	<path style="fill:#E8EEF6;" d="M633.619,1474.3c37.857-0.136,74.607,10.302,112.34,4.626l-0.038,43.656
		c-47.244,1.308-96.143,1.478-143.349-0.274C610.676,1505.766,622.296,1488.808,633.619,1474.3z"/>
	<path style="fill:#5575E6;" d="M768.806,1523.248c14.966,2.26,26.71,6.898,35.987,19.502c7.214,9.802,10.703,22.866,8.671,34.944
		c-1.342,7.978-5.642,17.99-11.605,23.534c-8.211,10.116-20.052,18.992-33.28,20.882c-1.786,4.064-1.408,8.01-1.332,12.35
		c-17.395-1.148-35.381,0.046-52.876-0.12l-1.016,0.226c-87.132-1.604-174.699,0.268-261.881,0.244l-0.076-22.362
		c-10.473-2.356-17.881-5.758-26.566-12.084c1.28-0.768,2.349-1.306,3.883-1.332c15.531-0.266,31.366,0.842,46.954,0.898
		l143.125,0.292c12.832-1.318,26.37-0.544,39.284-0.508l68.765,0.246c16.079-15.486,35.755-33.602,40.424-56.41
		c1.272-6.204-0.138-12.716,1.184-18.78C768.562,1524.262,768.688,1523.756,768.806,1523.248z"/>
	<path style="fill:#515EB1;" d="M424.834,1600.364c1.28-0.768,2.349-1.306,3.883-1.332c15.531-0.266,31.366,0.842,46.954,0.898
		l143.125,0.292c34.645,2.106,72.826,2.554,107.467,0.86l39.382,0.258c0.08,3.708,1.074,8.686-0.882,11.818
		c-13.91,1.3-29.853,1.24-43.801,0.192l-0.926,0.008c-44.059-1.41-88.587-0.08-132.698-0.18c-45.3-0.104-90.651-1.636-135.939-0.73
		C440.927,1610.092,433.519,1606.69,424.834,1600.364z"/>
	<path style="fill:#6688EE;" d="M768.806,1523.248c14.966,2.26,26.71,6.898,35.987,19.502c7.214,9.802,10.703,22.866,8.671,34.944
		c-1.342,7.978-5.642,17.99-11.605,23.534l-1.651-1.362c-4.897,4.828-10.117,9.004-15.653,13.06
		c-5.568,4.08-7.866,6.036-14.774,4.954c-0.956-4.45-1.146-9.116-1.544-13.646c3.709-2.676,11.227-1.784,15.885-1.988
		c-4.379-1.916-13.492-0.866-18.478-0.906l-39.382-0.258c-34.641,1.694-72.822,1.246-107.467-0.86
		c12.832-1.318,26.37-0.544,39.284-0.508l68.765,0.246c16.079-15.486,35.755-33.602,40.424-56.41
		c1.272-6.204-0.138-12.716,1.184-18.78C768.562,1524.262,768.688,1523.756,768.806,1523.248z"/>
	<path style="fill:#E8EEF6;" d="M983.667,651.074c22.667-45.206,34.843-94.99,50.241-142.974
		c38.598-120.29,95.765-227.678,222.933-269.89c115.857-38.46,241.897-12.64,356.386,17.442
		c49.043,12.886,97.66,27.864,148.693,29.89c37.965,1.508,75.611-2.098,111.984-13.414c18.454-5.742,36.455-12.97,55.129-18.014
		c74.108-20.022,154.004-16.696,223.162,18.288c76.357,38.624,124.583,108.036,150.554,187.974
		c19.934,61.354,26.572,124.062,23.393,188.386c-1.56,26.595-4.152,53.088-7.778,79.48c-3.399,23.104-28.472,131.61-24.133,143.68
		c-0.34,9.28-13.276,29.218-18.074,37.776l2.399,1.302c-1.08,5.586-3.579,10.638-5.838,15.818
		c1.82,2.426,48.105,16.49,56.423,21.476c2.799-0.924,2.819-1.21,4.179-3.852c2.939-5.756,4.079-11.974,8.137-17.158l2.419-0.396
		l-0.34,4c1.619,4.028-0.24,6.558,1.419,9.634c17.435,3.934,34.35,8.992,51.924,12.53c3.439,0.69,4.339,3.688,7.038,3.56l0.42-3.258
		l1.459-1.088c0.08,9.736-9.337,34.862-15.895,42.252c-1.14,7.792-7.018,16.688-10.877,23.682
		c-18.235,33.138-39.428,62.914-70.019,85.88c-15.256,11.454-32.01,19.326-50.505,23.9l-1.479-1.526l-0.96-0.006
		c-2.399,14.352-9.857,28.874-14.056,42.956c-8.877,29.826-15.875,61.532-20.194,92.384c-1.22,8.714-1.62,34.284-7.958,39.368
		c-3.399,9.68-11.517,19.774-17.015,28.532c-13.596,21.678-27.672,45.682-34.729,70.446c-10.877,1.364-23.033,0.084-34.01-0.246
		l-4.779-0.032c-10.637,0.372-24.273,1.67-34.55-1.246c-10.977,2.954-59.802,0.366-74.118,0.246l-0.26-94.798
		c1.919-64.166,0.2-128.868,0.34-193.09c0.1-52.454,2.279-105.18,1.719-157.576c-0.9-80.358-3.539-161.098-1.62-241.488
		c-0.187-1.945-0.447-3.88-0.78-5.804c-0.347-1.923-0.773-3.827-1.28-5.714c-0.507-1.888-1.093-3.751-1.759-5.588
		c-0.667-1.837-1.406-3.643-2.219-5.416c-0.826-1.775-1.719-3.511-2.679-5.21c-0.96-1.699-1.993-3.353-3.099-4.962
		c-1.106-1.611-2.279-3.171-3.519-4.682c-1.242-1.511-2.545-2.966-3.907-4.366c-9.495-9.568-23.113-16.994-36.577-18.678
		c-24.876-3.112-67.086-0.624-94.247-0.588l-200.364,0.092L983.667,651.074z"/>
	<path style="fill:#C6D9F8;" d="M2244.667,656.662c10.397-1.852,19.274-2,28.452,3.986c0.92,0.605,1.806,1.255,2.659,1.948
		c0.853,0.693,1.666,1.427,2.439,2.2c0.786,0.773,1.526,1.583,2.219,2.43c0.707,0.847,1.366,1.725,1.979,2.636
		c0.613,0.912,1.18,1.851,1.7,2.818c0.533,0.968,1.006,1.959,1.419,2.972c0.426,1.015,0.8,2.047,1.119,3.098
		c0.333,1.051,0.607,2.115,0.82,3.192c1.719,8.346,0.56,17.142-4.358,24.238c-4.959,7.154-12.036,11.022-20.374,12.728
		c-3.579,1.682-9.237,1.252-13.116,0.566c-8.357-1.484-15.035-6.426-19.794-13.36c-5.279-7.7-7.378-17.364-5.159-26.498
		C2227.553,667.844,2234.831,662.328,2244.667,656.662z"/>
	<path style="fill:#E8EEF6;" d="M2251.166,672.66c3.659-0.328,7.658-0.958,11.037,0.822c0.533,0.28,1.046,0.588,1.54,0.924
		c0.493,0.336,0.966,0.697,1.419,1.084c0.467,0.387,0.906,0.797,1.32,1.232c0.413,0.435,0.8,0.89,1.16,1.366
		c0.36,0.476,0.693,0.971,1,1.484c0.306,0.512,0.586,1.039,0.839,1.582c0.253,0.544,0.48,1.099,0.68,1.666
		c0.186,0.568,0.347,1.144,0.48,1.728c0.12,0.552,0.207,1.109,0.26,1.67c0.067,0.561,0.1,1.124,0.1,1.688
		c0,0.565-0.033,1.129-0.1,1.69c-0.053,0.561-0.14,1.118-0.26,1.67c-0.12,0.552-0.267,1.096-0.44,1.632s-0.38,1.061-0.62,1.576
		c-0.227,0.515-0.487,1.016-0.78,1.504c-0.28,0.487-0.586,0.957-0.919,1.412c-2.999,4.034-6.638,5.13-11.397,5.95
		c-1.18,0.192-1.22,0.26-2.619,0.134c-3.299-0.3-6.838-2.126-8.977-4.656c-3.079-3.648-3.499-8.956-2.759-13.496
		C2243.168,679.118,2246.287,676.268,2251.166,672.66z"/>
	<path style="fill:#C6D9F8;" d="M1501.49,441.606c4.733,0.256,9.435,1.006,13.748,3.082c8.234,3.96,14.47,10.934,17.149,19.704
		c2.683,8.786,1.847,18.468-2.859,26.418c-6.12,10.342-14.622,13.432-25.53,16.274c-6.922-0.56-13.116-1.562-19.218-5.232
		c-7.432-4.468-12.742-11.53-14.722-19.992c-0.125-0.539-0.236-1.08-0.334-1.624c-0.097-0.543-0.181-1.089-0.25-1.638
		c-0.068-0.548-0.122-1.097-0.162-1.648c-0.04-0.551-0.066-1.103-0.078-1.656c-0.011-0.552-0.007-1.104,0.01-1.656
		c0.017-0.553,0.049-1.105,0.096-1.654c0.047-0.551,0.107-1.1,0.182-1.648c0.075-0.548,0.164-1.093,0.268-1.636
		c0.104-0.543,0.221-1.082,0.352-1.618c0.132-0.537,0.278-1.07,0.438-1.598c0.159-0.529,0.332-1.054,0.52-1.574
		c0.187-0.52,0.386-1.035,0.6-1.544s0.44-1.013,0.68-1.512c0.24-0.497,0.493-0.988,0.76-1.472c0.265-0.485,0.543-0.963,0.834-1.432
		c0.29-0.469,0.593-0.931,0.908-1.386C1481.552,447.006,1490.58,443.548,1501.49,441.606z"/>
	<path style="fill:#E8EEF6;" d="M1494.8,461.308c0.464-0.052,0.924-0.112,1.387-0.156c5.888-0.564,11.065,0.024,15.645,4.108
		c2.723,2.426,4.259,5.562,4.275,9.234c0.026,5.91-3.349,9.546-7.278,13.508c-1.953,0.536-3.927,1.03-5.96,1.112
		c-4.121,0.166-7.794-1.136-10.759-4.048c-2.735-2.684-3.999-6.172-4.039-9.972C1488.006,468.936,1490.67,465.546,1494.8,461.308z"
		/>
	
		<linearGradient id="SVGID_00000041998080324083607120000016968568429984191160_" gradientUnits="userSpaceOnUse" x1="-9707.8271" y1="5786.2383" x2="-9684.5264" y2="5978.5234" gradientTransform="matrix(1 0 0 -1 11985 6910)">
		<stop  offset="0" style="stop-color:#559F43"/>
		<stop  offset="1" style="stop-color:#89D462"/>
	</linearGradient>
	<path style="fill:url(#SVGID_00000041998080324083607120000016968568429984191160_);" d="M2276.158,909.698l2.399,1.302
		c-1.08,5.586-3.579,10.638-5.838,15.818c1.82,2.426,48.105,16.49,56.423,21.476c2.799-0.924,2.819-1.21,4.179-3.852
		c2.939-5.756,4.079-11.974,8.137-17.158l2.419-0.396l-0.34,4c-2.079,13.132-27.032,64.732-33.47,79.77
		c-11.357,26.538-21.554,53.802-33.63,79.984c-3.579,7.718-13.496,30.998-19.414,35.812l-0.96-0.006
		c-0.4-0.672-0.787-1.35-1.16-2.034c-22.773-41.594-6.698-127.574,6.078-171.5c4.179-14.35,10.937-27.93,14.916-42.274
		L2276.158,909.698z"/>
	
		<linearGradient id="SVGID_00000089572748648056982280000008391519745487185817_" gradientUnits="userSpaceOnUse" x1="-9690.002" y1="5775.3828" x2="-9613.0449" y2="5967.7803" gradientTransform="matrix(1 0 0 -1 11985 6910)">
		<stop  offset="0" style="stop-color:#529F47"/>
		<stop  offset="1" style="stop-color:#91D768"/>
	</linearGradient>
	<path style="fill:url(#SVGID_00000089572748648056982280000008391519745487185817_);" d="M2343.538,930.888
		c1.619,4.028-0.24,6.558,1.419,9.634c17.435,3.934,34.35,8.992,51.924,12.53c3.439,0.69,4.339,3.688,7.038,3.56l0.42-3.258
		l1.459-1.088c0.08,9.736-9.337,34.862-15.895,42.252c-1.14,7.792-7.018,16.688-10.877,23.682
		c-18.235,33.138-39.428,62.914-70.019,85.88c-15.256,11.454-32.01,19.326-50.505,23.9l-1.479-1.526
		c5.918-4.814,15.835-28.094,19.414-35.812c12.076-26.182,22.273-53.446,33.63-79.984
		C2316.506,995.62,2341.458,944.02,2343.538,930.888z"/>
	
		<linearGradient id="SVGID_00000021108681686415910550000012786898433832954801_" gradientUnits="userSpaceOnUse" x1="-9848.0215" y1="6385.7427" x2="-9972.9502" y2="6510.1353" gradientTransform="matrix(1 0 0 -1 11985 6910)">
		<stop  offset="0" style="stop-color:#72BF6C"/>
		<stop  offset="1" style="stop-color:#9EE37F"/>
	</linearGradient>
	<path style="fill:url(#SVGID_00000021108681686415910550000012786898433832954801_);" d="M2065.542,371.31
		c1.44-0.144,2.879-0.255,4.319-0.332c1.439-0.079,2.879-0.124,4.319-0.136c1.44-0.012,2.886,0.009,4.339,0.064
		c1.44,0.055,2.879,0.142,4.319,0.262c1.426,0.12,2.859,0.273,4.299,0.458c1.426,0.187,2.852,0.405,4.279,0.656
		c1.413,0.252,2.826,0.536,4.239,0.852s2.812,0.664,4.199,1.044c1.386,0.38,2.772,0.791,4.158,1.234
		c1.373,0.444,2.733,0.919,4.079,1.424c1.346,0.507,2.686,1.043,4.019,1.61c1.32,0.568,2.632,1.165,3.939,1.792
		c1.293,0.628,2.579,1.285,3.859,1.97c1.266,0.687,2.519,1.402,3.759,2.146c1.226,0.744,2.446,1.515,3.659,2.314
		c1.199,0.8,2.379,1.627,3.539,2.48c18.814,14.07,31.191,36.168,34.49,59.322c0.213,1.532,0.393,3.069,0.54,4.61
		c0.146,1.541,0.253,3.085,0.32,4.63c0.067,1.547,0.094,3.093,0.08,4.64c0,1.548-0.047,3.095-0.14,4.64
		c-0.08,1.545-0.2,3.087-0.36,4.626c-0.16,1.54-0.36,3.075-0.6,4.604c-0.24,1.529-0.513,3.052-0.82,4.568
		c-0.32,1.516-0.673,3.023-1.06,4.522c-0.386,1.499-0.806,2.987-1.26,4.464c-0.453,1.479-0.946,2.945-1.48,4.398
		c-0.533,1.453-1.1,2.893-1.699,4.318c-0.6,1.427-1.24,2.837-1.92,4.23c-0.667,1.395-1.373,2.772-2.119,4.132
		c-0.733,1.359-1.5,2.699-2.3,4.02c-0.813,1.323-1.653,2.624-2.519,3.904s-1.766,2.538-2.699,3.774
		c-15.715,20.854-38.988,32.562-64.5,35.946c-1.266,0.113-2.532,0.201-3.799,0.262c-1.266,0.06-2.532,0.095-3.799,0.104
		c-1.266,0.008-2.532-0.01-3.799-0.054c-1.266-0.044-2.533-0.114-3.799-0.21c-1.266-0.096-2.526-0.219-3.779-0.368
		c-1.266-0.148-2.526-0.322-3.779-0.522c-1.253-0.201-2.499-0.428-3.739-0.68c-1.24-0.252-2.479-0.53-3.719-0.834
		c-1.226-0.303-2.446-0.631-3.659-0.986c-1.226-0.353-2.44-0.732-3.639-1.136s-2.393-0.833-3.579-1.288
		c-1.186-0.453-2.359-0.931-3.519-1.432c-1.173-0.503-2.326-1.029-3.459-1.578c-1.146-0.551-2.28-1.124-3.399-1.72
		c-1.12-0.597-2.226-1.217-3.319-1.86s-2.173-1.307-3.239-1.994c-20.734-13.582-34.19-35.036-38.88-59.26
		c-4.791-24.732,1.492-50.47,15.627-71.178C2017.236,386.776,2038.87,376.23,2065.542,371.31z"/>
	<path style="fill:#FEFEFE;" d="M2115.147,421.99c0.56,0.198,1.159,0.336,1.719,0.592c4.978,2.298,10.497,9.894,12.076,14.988
		c-0.12,0.472-0.22,0.95-0.34,1.418c-1.959,6.838-55.823,59.194-63.421,62.938c-1.16-4.91-7.458-9.704-11.457-12.342
		c-2.139-5.466-9.457-10.186-13.856-13.898c3.399-3.482,7.198-6.608,8.537-11.412c5.458,3.472,10.637,7.764,12.476,14.164
		C2072.44,472.322,2103.95,433.94,2115.147,421.99z"/>
	
		<linearGradient id="SVGID_00000105423258414467917140000010182787565769559738_" gradientUnits="userSpaceOnUse" x1="-10063.9229" y1="5693.0972" x2="-9845.375" y2="5903.1401" gradientTransform="matrix(1 0 0 -1 11985 6910)">
		<stop  offset="0" style="stop-color:#176768"/>
		<stop  offset="1" style="stop-color:#49A488"/>
	</linearGradient>
	<path style="fill:url(#SVGID_00000105423258414467917140000010182787565769559738_);" d="M2014.837,711.904
		c2.779,24.058,0.88,49.762,0.96,74.084l0.14,149.842c6.158-8.16,13.636-16.982,24.533-18.128
		c11.917-1.252,22.473,8.552,30.771,15.802c85.354,74.612,135.179,206.502,142.557,317.632c1.08,16.168,1.979,33.95,0.06,50.02
		c-3.399,9.68-11.517,19.774-17.015,28.532c-13.596,21.678-27.672,45.682-34.729,70.446c-10.877,1.364-23.033,0.084-34.01-0.246
		l-4.779-0.032c-10.637,0.372-24.273,1.67-34.55-1.246c-10.977,2.954-59.802,0.366-74.118,0.246l-0.26-94.798
		c1.919-64.166,0.2-128.868,0.34-193.09c0.1-52.454,2.279-105.18,1.719-157.576C2015.557,873.034,2012.918,792.294,2014.837,711.904
		z"/>
	<path style="fill:#283581;" d="M2123.324,1399.856c0.06-0.648,0.16-1.294,0.22-1.942c0.96-10.818-5.798-34.49-8.078-46.832
		c-11.41-63.932-21.98-128.001-31.71-192.208c-5.138-34.626-8.077-74.632-16.795-108.01c8.378,20.632,15.176,82.986,19.494,108.724
		c11.637,67.164,23.826,134.226,36.569,201.186c1.58,7.99,8.837,31.548,5.698,38.048c-0.18,0.37-0.42,0.71-0.62,1.066
		L2123.324,1399.856z"/>
	<path style="fill:#E8EEF6;" d="M2014.397,1304.058c19.454,22.17,63.481,68.102,74.537,92.218l-0.16,2.334
		c-10.977,2.954-59.802,0.366-74.118,0.246L2014.397,1304.058z"/>
	<path style="fill:#FEFEFE;" d="M983.667,651.074l680.74-0.086l200.364-0.092c27.162-0.036,69.371-2.524,94.247,0.588
		c13.464,1.684,27.082,9.11,36.577,18.678c1.362,1.4,2.665,2.855,3.907,4.366c1.24,1.511,2.413,3.071,3.519,4.682
		c1.106,1.609,2.139,3.263,3.099,4.962c0.96,1.699,1.853,3.435,2.679,5.21c0.813,1.773,1.553,3.579,2.219,5.416
		c0.667,1.837,1.253,3.7,1.759,5.588c0.506,1.887,0.933,3.791,1.28,5.714c0.333,1.924,0.593,3.859,0.78,5.804
		c-1.919,80.39,0.72,161.13,1.62,241.488c0.56,52.396-1.62,105.122-1.719,157.576c-0.14,64.222,1.579,128.924-0.34,193.09
		l0.26,94.798c14.316,0.12,63.141,2.708,74.118-0.246c10.277,2.916,23.913,1.618,34.55,1.246l4.779,0.032
		c10.977,0.33,23.133,1.61,34.01,0.246c19.514,0.51,42.567-2.014,57.482,13.368c5.878,6.05,7.998,14.918,7.758,23.196
		c-0.08,2.45-0.42,4.776-1.04,7.14c1.16,4.292,1.12,6.654-0.28,10.876c4.499,13.986,1.659,36.06,1.44,50.884
		c1.14,12.788,2.759,66.126-1.839,75.536l2.819,7.898c6.518,2.984,15.275,1.968,22.293,1.732
		c28.931-0.974,75.437-9.996,88.374,24.848c4.518,12.164,5.718,50.97,1.679,63.104c4.239,12.614,3.219,96.764-2.699,107.918
		c-4.679,8.84-12.756,13.864-21.314,18.36c-27.951,1.262-56.403,0.198-84.394,0.214l-158.153-0.14
		c-26.412,1.922-54.123,0.23-80.673,0.246c-49.677,0.028-99.392,0.45-149.063-0.094c-7.01-4.506-14.534-7.056-20.54-13.178
		c-4.459-4.544-6.946-10.662-8.213-16.82c-4.403-21.402-0.774-66.282-0.242-89.652l0.026-17.656l-617.061-0.31l-188.993-0.066
		c-32.368-0.044-64.962,0.692-97.305-0.558c-25.398-0.188-78.258,4.2-99.9-2.512c-22.377-6.94-33.43-22.702-43.695-42.358
		c13.228-1.89,25.068-10.766,33.28-20.882c5.962-5.544,10.263-15.556,11.605-23.534c2.031-12.078-1.458-25.142-8.671-34.944
		c-9.277-12.604-21.022-17.242-35.987-19.502l-2.483-0.92l-20.402,0.254l0.038-43.656c-37.733,5.676-74.484-4.762-112.34-4.626
		c12.816-18.722,23.923-36.642,39.524-53.296c9.685-11.022,20.206-21.748,28.955-33.516c15.102-4.667,29.774-10.428,44.017-17.284
		c6.312-1.812,12.552-4.172,18.778-6.282c12.142-7.032,24.755-14.414,35.391-23.61c10.593-9.158,19.764-21.19,20.712-35.648
		c0.734-11.188-3.727-21.822-11.201-30.028c-11.812-12.97-26.954-17.692-43.969-18.608c0.095-9.368,0.035-18.735-0.178-28.1
		c-0.559,9.404-0.783,18.816-0.674,28.236c-6.472,1.516-12.876,2.858-18.974,5.572l0.516-538.252
		c1.64-17.948,8.989-35.772,21.783-48.64c10.495-10.554,24.578-18.12,39.06-21.408c21.212-4.814,46.126-2.26,67.903-2.268
		L983.667,651.074z"/>
	<path style="fill:#283581;" d="M1892.81,926.714c4.261,10.558,5.2,85.776,0.748,95.808c-2.165,4.88-6.134,7.044-10.787,9.112
		c-0.778-2.048-0.842-2.068-0.178-4.142c2.007-1.268,4.181-2.846,5.462-4.894c5.115-8.174,3.811-81.78,1.321-93.41L1892.81,926.714z
		"/>
	<path style="fill:#283581;" d="M746.115,1370.204c6.312-1.812,12.552-4.172,18.778-6.282l-0.242,42.598
		c-5.62-4.186-11.656-6.178-18.397-7.694L746.115,1370.204z"/>
	<path style="fill:#283581;" d="M766.263,1468.428c-0.26,17.967-0.24,35.933,0.06,53.9l-20.402,0.254l0.038-43.656
		C753.642,1477.114,759.774,1472.716,766.263,1468.428z"/>
	<path style="fill:#515EB1;" d="M1301.979,919.8l75.379,0.112l351.076,0.128l102.755-0.088c16.647-0.018,35.161-1.572,51.614,0.4
		c3.973,0.476,6.49,2.898,9.239,5.592c0.26,0.254,0.512,0.514,0.768,0.77l-3.433,2.474c-3.421-2.954-5.952-4.082-10.503-4.51
		c-15.119-1.42-31.059-0.556-46.262-0.574l-82.981-0.026c-101.147-0.002-202.569,1.57-303.684-0.276
		c-47.616,1.69-95.737,0.208-143.399,0.15L1301.979,919.8z"/>
	<path style="fill:#E8EEF6;" d="M1301.257,1081.95c13.626-0.1,69.447-3.032,78.44,1.82c4.443,2.396,7.762,6.258,8.853,11.246
		c0.8,3.66,0.242,7.306-1.849,10.446c-3.091,4.64-7.648,6.208-12.902,7.008c-15.873-0.028-70.371,3.09-81.453-2.61
		c-3.035-1.562-5.27-3.958-6-7.352c-0.954-4.432,0.852-10.696,3.439-14.338C1292.689,1084.076,1296.546,1082.856,1301.257,1081.95z"
		/>
	<path style="fill:#515EB1;" d="M1882.771,1031.634c-0.854,0.122-1.708,0.266-2.567,0.34c-9.709,0.816-20.128,0.052-29.899,0.018
		l-62.521-0.232l-187.853-0.348l-204.91-0.528l-66.054-0.148c-9.591-0.014-19.592,0.828-29.131,0.092
		c-6.04-0.468-9.681-1.984-14.246-5.928c-6.162-22.804-3.387-52.01-3.163-75.656c0.078-8.232,0.614-20.494,7.24-26.36
		c3.771-3.338,7.518-3.332,12.312-3.084l0.57,4.152c-4.655,0.528-8.755,0.8-11.932,4.612c-2.273,2.73-3.241,6.384-3.701,9.838
		c-0.828,6.216-0.402,67.326,0.56,74.45c0.588,4.372,1.366,7.794,4.315,11.224c18.153,5.048,42.255,2.48,61.082,2.49l88.363-0.004
		l336.304,0.258l71.802-0.2c10.133,0,23.459-1.354,33.252,0.872C1881.929,1029.566,1881.993,1029.586,1882.771,1031.634z"/>
	<path style="fill:#E8EEF6;" d="M1682.52,1080.148c24.395-1.118,49.215-0.334,73.658-0.408c18.638-0.056,38.3-1.324,56.841,0.396
		c5.968,0.554,12.574,1.612,16.391,6.792c2.531,3.434,2.733,7.728,1.823,11.764c-1.455,6.448-5.232,8.908-10.389,12.292
		c-27.326,1.668-55.577,0.192-83.003,0.35c-16.129,0.092-35.951,2.714-51.604,0.008c-4.908-0.85-9.643-2.72-12.49-7.048
		c-2.289-3.48-2.347-8.256-1.386-12.182C1673.858,1086,1677.505,1083.374,1682.52,1080.148z"/>
	<path style="fill:#E8EEF6;" d="M1476.66,1080.684l74.128-0.666c13.448-0.116,28.635-1.514,41.897,0.558
		c5.828,0.91,12.25,2.814,16.515,7.078c2.387,2.388,3.625,5.234,3.343,8.628c-0.574,6.934-5.736,11.344-10.469,15.762l-17.235,0.164
		l-76.219,0.014c-14.108,0.108-29.923,1.72-43.813-0.258c-3.533-0.504-6.444-1.562-9.059-4.08
		c-2.947-2.836-4.825-7.088-4.719-11.196c0.106-4.2,1.698-8.878,4.789-11.82C1461.177,1079.764,1469.83,1080.672,1476.66,1080.684z"
		/>
	<path style="fill:#94CC75;" d="M746.115,1370.204l0.14,28.622c6.74,1.516,12.776,3.508,18.397,7.694
		c7.908,12.576,15.033,25.952,11.503,41.318c-1.686,7.33-5.422,14.572-9.891,20.59c-6.488,4.288-12.62,8.686-20.304,10.498
		c-37.733,5.676-74.484-4.762-112.34-4.626c12.816-18.722,23.923-36.642,39.524-53.296c9.685-11.022,20.206-21.748,28.955-33.516
		C717.2,1382.821,731.872,1377.06,746.115,1370.204z"/>
	<path style="fill:#E8EEF6;" d="M746.115,1370.204l0.14,28.622c-12.972,0.944-24.698,2.946-36.979,7.33
		c-7.78,2.778-30.095,14.554-36.133,14.848c9.685-11.022,20.206-21.748,28.955-33.516
		C717.2,1382.821,731.872,1377.06,746.115,1370.204z"/>
	<path style="fill:#E8EEF6;" d="M1355.184,1162.026c119.331-0.915,238.663-1.125,357.998-0.63l134.543,0.25
		c18.016,0.028,36.601-1.274,54.52-0.448c5.024,0.23,10.215,1.144,14.4,4.114c4.195,2.976,6.334,7.19,7.158,12.15
		c-0.778,2.76-0.94,4.19-3.185,6.248c-12.286,11.26-48.151,7.026-64.258,6.858l-373.691,0.226l-121.341,0.002
		c-19.576-0.006-39.89,1.1-59.398-0.148c-3.791-0.242-7.102-0.912-10.201-3.23c-3.147-2.352-4.727-5.434-5.04-9.322
		c-0.31-3.854-0.078-7.246,2.723-10.106C1299.507,1157.682,1341.085,1162.07,1355.184,1162.026z"/>
	<path style="fill:#94CC75;" d="M1814.94,1667.162c-0.128-11.394-0.43-22.798-0.41-34.19c0.024-12.49,1.502-23.574,10.869-32.724
		c4.125-4.028,8.895-7.094,14.55-8.416c14.582-3.406,32.446-1.498,47.48-1.424l73.712,0.416c46,0.214,92.066-0.58,138.072,0.114
		l1.48,0.124c30.93,2.464,62.621-1.788,93.472,1.414l-0.7,0.188l-1.819,2.302c-3.299-1.738-3.799-1.32-7.358-0.726
		c-5.898,9.45-15.315,22.836-13.776,34.6c1.82,1.604,2.919,1.746,5.299,2.022l0.86,1.238c-25.752,2.008-52.604,0.782-78.496,0.704
		l-143.867-0.57c-20.314-0.026-50.735-2.38-69.749,0.578c-7.046,1.096-13.28,3.68-18.081,9.086
		c-14.745,16.6-12.414,55.948-10.683,77.24c0.866,10.642,4.583,21.984,13.2,28.882c4.932,3.948,11.171,5.272,17.307,5.938
		c18.396,2,38.514-0.372,57.065-0.604c33.942-0.42,67.933-0.05,101.863,0.072c-7.138,17.88-14.536,38.968-31.79,49.006
		c15.775,1.602,48.025-0.932,60.801,2.636c-26.412,1.922-54.123,0.23-80.673,0.246c-49.677,0.028-99.392,0.45-149.063-0.094
		c-7.01-4.506-14.534-7.056-20.54-13.178c-4.459-4.544-6.946-10.662-8.213-16.82c-4.403-21.402-0.774-66.282-0.242-89.652
		l0.026-17.656l-617.061-0.31l-188.993-0.066c-32.368-0.044-64.962,0.692-97.305-0.558c35.413-1.62,71.444-0.354,106.924-0.336
		l199.63,0.132L1814.94,1667.162z"/>
	<path style="fill:#EFB35F;" d="M1995.713,1398.742l18.944,0.114c14.316,0.12,63.141,2.708,74.118-0.246
		c10.277,2.916,23.913,1.618,34.55,1.246l4.779,0.032c10.977,0.33,23.133,1.61,34.01,0.246c19.514,0.51,42.567-2.014,57.482,13.368
		c5.878,6.05,7.998,14.918,7.758,23.196c-0.08,2.45-0.42,4.776-1.04,7.14c1.16,4.292,1.12,6.654-0.28,10.876
		c4.499,13.986,1.659,36.06,1.44,50.884c1.14,12.788,2.759,66.126-1.839,75.536c0.96,3.044,1.799,5.556,1.599,8.806
		c-8.737,2.478-22.133,0.7-31.33,0.668c-31.691-0.112-65.201-2.124-96.691,0.33c-46.006-0.694-92.072,0.1-138.072-0.114
		l-0.224-108.846c0.014-17.55-1.646-37.22,1.116-54.504c0.862-5.408,2.847-10.212,6.282-14.508
		C1975.323,1404.2,1984.812,1400.042,1995.713,1398.742z"/>
	<path style="fill:#FEFEFE;" d="M2144.718,1431.332c9.257-0.248,30.851-2.818,37.689,3.762c4.799,4.604,5.918,16.22,6.298,22.626
		c0.92,15.136,3.919,65.446-6.418,76.05c-2.379,2.432-4.799,2.644-8.058,3.042c-14.136,1.73-29.771,0.508-44.027,0.488
		l-89.353-0.174c-9.897,0-24.752,1.89-33.77-2.27c-3.959-1.824-5.398-3.806-6.858-7.902c-5.12-14.266-5.584-75.894,0.46-88.55
		c4.319-4,9.637-5.418,15.355-6.182c13.656-1.834,28.751-0.55,42.547-0.548C2087.295,1431.79,2116.007,1431.676,2144.718,1431.332z"
		/>
	<path style="fill:#283581;" d="M2046.388,1496.258c27.572-0.684,57.343-2.368,84.734,0.008c4.099,0.356,7.897,0.618,10.717,3.924
		c-0.7,3.584-1.459,3.426-4.379,5.396c-1.16,0.552-1.379,0.734-2.819,0.994c-7.758,1.398-79.696,1.182-85.694-0.556
		c-1.02-0.29-1.8-1.076-2.699-1.614C2044.928,1500.776,2045.488,1499.912,2046.388,1496.258z"/>
	<path style="fill:#283581;" d="M2046.907,1473.866c14.736-0.416,80.716-1.562,90.213,2.1c2.739,1.06,2.819,1.426,3.859,3.986
		c-1,4.216-1.379,4.036-4.719,6.432c-13.976,2.226-65.06,1.23-80.056-0.168c-5.359-0.5-8.557-1.158-12.097-5.406
		C2044.228,1476.972,2044.648,1476.772,2046.907,1473.866z"/>
	<path style="fill:#E8EEF6;" d="M1445.947,923.802c101.115,1.846,202.537,0.274,303.684,0.276l82.981,0.026
		c15.203,0.018,31.143-0.846,46.262,0.574c4.551,0.428,7.082,1.556,10.503,4.51c2.49,11.63,3.793,85.236-1.321,93.41
		c-1.282,2.048-3.455,3.626-5.462,4.894c-9.793-2.226-23.119-0.872-33.252-0.872l-71.802,0.2l-336.304-0.258l-88.363,0.004
		c-18.826-0.01-42.929,2.558-61.082-2.49c-2.949-3.43-3.727-6.852-4.315-11.224c-0.962-7.124-1.387-68.234-0.56-74.45
		c0.46-3.454,1.428-7.108,3.701-9.838c3.177-3.812,7.278-4.084,11.932-4.612C1350.21,924.01,1398.332,925.492,1445.947,923.802z"/>
	<path style="fill:#FEFEFE;" d="M2099.212,1590.938c31.49-2.454,65-0.442,96.691-0.33c9.197,0.032,22.593,1.81,31.33-0.668
		c0.2-3.25-0.64-5.762-1.599-8.806l2.819,7.898c6.518,2.984,15.275,1.968,22.293,1.732c28.931-0.974,75.437-9.996,88.374,24.848
		c4.518,12.164,5.718,50.97,1.679,63.104c4.239,12.614,3.219,96.764-2.699,107.918c-4.679,8.84-12.756,13.864-21.314,18.36
		c-27.951,1.262-56.403,0.198-84.394,0.214l-158.153-0.14c-12.776-3.568-45.026-1.034-60.801-2.636
		c17.255-10.038,24.652-31.126,31.79-49.006c-33.93-0.122-67.922-0.492-101.863-0.072c-18.55,0.232-38.668,2.604-57.065,0.604
		c-6.136-0.666-12.374-1.99-17.307-5.938c-8.617-6.898-12.334-18.24-13.2-28.882c-1.731-21.292-4.063-60.64,10.683-77.24
		c4.801-5.406,11.035-7.99,18.081-9.086c19.014-2.958,49.435-0.604,69.749-0.578l143.867,0.57
		c25.892,0.078,52.744,1.304,78.496-0.704l-0.86-1.238c-2.379-0.276-3.479-0.418-5.299-2.022c-1.54-11.764,7.878-25.15,13.776-34.6
		c3.559-0.594,4.059-1.012,7.358,0.726l1.819-2.302l0.7-0.188c-30.851-3.202-62.541,1.05-93.472-1.414L2099.212,1590.938z"/>
	<path style="fill:#BEBCC5;" d="M1921.931,1685.332c16.241-1.884,303.862-0.976,310.22,1.028c3.359,1.058,4.139,2.14,5.498,5.232
		c-1.28,3.206-2.479,4.464-5.219,6.552c-1.36,0.79-2.979,1.196-4.559,1.332c-12.716,1.11-26.652,0.014-39.468-0.022l-82.375-0.174
		l-112.82,0.062c-20.568,0.094-41.505,1.018-62.043,0.212c-3.495-0.136-5.778-0.442-8.439-2.776
		C1920.626,1692.724,1921.325,1689.68,1921.931,1685.332z"/>
	
		<linearGradient id="SVGID_00000168113824708275392380000001612187238160590264_" gradientUnits="userSpaceOnUse" x1="-9654.2363" y1="5117.2881" x2="-9887.3457" y2="5251.1235" gradientTransform="matrix(1 0 0 -1 11985 6910)">
		<stop  offset="0" style="stop-color:#F7A84A"/>
		<stop  offset="1" style="stop-color:#CDC376"/>
	</linearGradient>
	<path style="fill:url(#SVGID_00000168113824708275392380000001612187238160590264_);" d="M2099.212,1590.938
		c31.49-2.454,65-0.442,96.691-0.33c9.197,0.032,22.593,1.81,31.33-0.668c0.2-3.25-0.64-5.762-1.599-8.806l2.819,7.898
		c6.518,2.984,15.275,1.968,22.293,1.732c28.931-0.974,75.437-9.996,88.374,24.848c4.518,12.164,5.718,50.97,1.679,63.104
		c4.239,12.614,3.219,96.764-2.699,107.918c-4.679,8.84-12.756,13.864-21.314,18.36c-27.951,1.262-56.403,0.198-84.394,0.214
		l-158.153-0.14c-12.776-3.568-45.026-1.034-60.801-2.636c17.255-10.038,24.652-31.126,31.79-49.006
		c77.976-0.07,156.353,1.694,234.269-0.39c4.119-1.458,8.098-3.534,11.437-6.37c6.658-5.67,9.157-12.98,9.877-21.45
		c0.72-8.248-0.08-16.718-0.02-25c0.1-17.01,4.179-43.972-8.118-57.884c-4.759-5.382-11.177-7.996-18.054-9.434
		c-10.077-2.106-21.973-0.638-32.31-0.586c-21.874,0.11-43.787,0.486-65.64-0.212l-0.86-1.238c-2.379-0.276-3.479-0.418-5.299-2.022
		c-1.54-11.764,7.878-25.15,13.776-34.6c3.559-0.594,4.059-1.012,7.358,0.726l1.819-2.302l0.7-0.188
		c-30.851-3.202-62.541,1.05-93.472-1.414L2099.212,1590.938z"/>
	<path style="fill:#C6D9F8;" d="M903.457,1142.936c-0.889-0.861-1.771-1.729-2.647-2.604
		c-31.051-31.026-53.272-66.266-52.966-111.708c0.268-39.888,18.564-75.056,46.844-102.43
		c37.477-36.28,86.688-53.356,138.292-52.632c50.293,0.704,99.674,19.746,134.819,56.258c26.496,27.526,43.479,62.74,42.331,101.514
		c-1.306,44.072-24.017,79.592-55.269,108.906c-32.132,32.23-84.988,53.416-130.097,53.548
		c-41.034,0.118-91.257-18.156-119.798-48.892C904.131,1143.996,904.053,1143.822,903.457,1142.936z"/>
	<path style="fill:#EFB35F;" d="M975.175,998.7c-6.238-17.99-11.662-37.594-2.903-55.794c5.224-10.858,14.544-18.72,25.882-22.632
		c20.026-6.91,44.696-2.028,63.171,7.3c13.726,6.932,26.244,17.864,30.979,32.94c3.355,10.682,1.973,22.154-3.273,32.004
		c-1.844,3.462-4.057,6.178-6.702,9.056c-0.404,9.678-5.814,17.288-12.736,23.726c-3.802,3.535-7.776,6.863-11.922,9.986
		c-11.76,7.972-23.087,11.922-37.377,9.076c-6.04-1.204-12.582-3.376-17.927-6.446c-1.244,3.03-1.461,5.646-1.667,8.898
		c0.046-2.82,0.434-6.61-0.842-9.15c-4.291-8.548-19.702-22.154-26.158-31.08C973.044,1002.414,973.318,1002.238,975.175,998.7z"/>
	<path style="fill:#F2BAB2;" d="M975.175,998.7l4.511,0.756c3.109-2.776,4.085-6.548,5.8-10.25
		c7.498-16.168,17.597-23.96,35.781-22.782c14.21,0.92,38.552,6.976,47.934,17.852c3.773,4.374,6.41,9.676,8.837,14.878l4.291,2.42
		c-0.404,9.678-5.814,17.288-12.736,23.726c-3.802,3.535-7.776,6.863-11.922,9.986c-11.76,7.972-23.087,11.922-37.377,9.076
		c-6.04-1.204-12.582-3.376-17.927-6.446c-1.244,3.03-1.461,5.646-1.667,8.898c0.046-2.82,0.434-6.61-0.842-9.15
		c-4.291-8.548-19.702-22.154-26.158-31.08C973.044,1002.414,973.318,1002.238,975.175,998.7z"/>
	<path style="fill:#283581;" d="M1057.671,1035.286c0.422,7.222-0.336,19.126,3.047,25.438c21.651-1.312,43.001-1.054,59.986,14.268
		c17.175,15.496,29.171,42.876,34.158,65.248c-32.132,32.23-84.988,53.416-130.097,53.548
		c-41.034,0.118-91.257-18.156-119.798-48.892c-0.836-0.9-0.914-1.074-1.51-1.96c4.922-21.794,15.237-47.83,30.303-64.376
		c17.337-19.038,35.089-16.98,58.966-17.95c1.911-0.244,3.617-0.654,5.478-1.134c2.695-4.36,2.235-7.648,2.495-12.662
		c0.206-3.252,0.424-5.868,1.667-8.898c5.344,3.07,11.886,5.242,17.927,6.446C1034.583,1047.208,1045.91,1043.258,1057.671,1035.286
		z"/>
	<path style="fill:#EEA6A3;" d="M1057.671,1035.286c0.422,7.222-0.336,19.126,3.047,25.438c-3.143,5.516-11.613,9.85-17.529,11.412
		c-13.008,3.432-29.279,0.9-40.676-6.272c-2.353-1.482-4.541-3.18-6.688-4.944l-3.099-0.31c1.911-0.244,3.617-0.654,5.478-1.134
		c2.695-4.36,2.235-7.648,2.495-12.662c0.206-3.252,0.424-5.868,1.667-8.898c5.344,3.07,11.886,5.242,17.927,6.446
		C1034.583,1047.208,1045.91,1043.258,1057.671,1035.286z"/>
	<path style="fill:#FAE5DE;" d="M1437.572,1329.494c33.136-1.426,66.754-0.18,99.95-0.148l195.483,0.308
		c23.637,0.046,146.596-2.9,160.157,1.424c5.444,1.738,11.905,6.168,14.346,11.538c2.637,5.8,3.027,14.252,3.359,20.544
		c1.036,19.682,2.099,141.626-1.448,150.124c-3.517,8.43-9.301,11.324-17.291,14.428c-47.386,2.356-99.896,0.094-148.007,0.05
		c-93.572-0.373-187.143-0.152-280.713,0.664c-15.513,0.078-28.016,0.58-39.412-11.676c-3.513-3.778-4.137-10.156-4.665-15.118
		c-2.017-18.918-0.59-39.106-0.606-58.186c-0.026-32.078-0.61-64.27,0.352-96.332
		C1424.476,1338.372,1428.085,1333.832,1437.572,1329.494z"/>
	<path style="fill:#BEBCC5;" d="M1622.282,1380.064c0.816-0.061,1.632-0.113,2.449-0.156c29.237-1.238,58.954-0.238,88.251-0.294
		c19.134-0.036,39.688-1.614,58.646,0.202c4.041,0.386,5.17,0.586,8.135,3.31c-0.138,4.232-0.7,4.952-2.849,8.42
		c-33.064,1.248-66.532,0.272-99.632,0.322c-16.307,0.024-35.693,2.126-51.66-0.156c-3.065-0.438-3.895-1.45-6.112-3.346
		C1619.329,1384.234,1620.188,1383.51,1622.282,1380.064z"/>
	<path style="fill:#BEBCC5;" d="M1836.455,1416.702c5.748-0.246,14.686-1.536,19.942,1.158c2.511,1.286,2.469,1.982,3.267,4.506
		c-1.136,3.084-0.9,3.264-3.765,4.766l1.952-0.9l-0.782-0.28l-0.722,1.188c-24.487,3.756-52.064,1.348-76.945,1.284l-137.184-0.13
		c-4.471,0.17-9.973,0.856-14.33-0.11c-3.849-0.854-6.626-2.752-8.659-6.062l1.274-2.028c3.975-1.836,7.858-2.452,12.176-2.718
		c23.485-1.438,47.722-0.204,71.293-0.2L1836.455,1416.702z"/>
	<path style="fill:#BEBCC5;" d="M1621.964,1454.72l153.725-0.15c24.956-0.044,51.644-2.018,76.453,0.084
		c3.717,0.314,4.873,0.49,7.314,3.222c0.194,3.884-0.852,5.518-2.963,8.71c-73.376,1.322-147.303,0.666-220.697,0.208
		c-5.846-0.036-11.702,0.902-16.051-3.498C1619.535,1459.19,1620.172,1458.29,1621.964,1454.72z"/>
	<path style="fill:#F05A6E;" d="M1508.786,1376.342c11.254-1.26,21.513-0.796,31.718,4.576c0.701,0.375,1.392,0.767,2.073,1.176
		c0.682,0.409,1.354,0.836,2.014,1.28c0.66,0.443,1.308,0.902,1.945,1.378c0.637,0.476,1.262,0.967,1.875,1.474
		c0.612,0.508,1.211,1.031,1.798,1.568c0.586,0.536,1.159,1.087,1.719,1.654c0.558,0.565,1.102,1.145,1.631,1.738
		s1.044,1.199,1.544,1.818c0.5,0.62,0.984,1.251,1.451,1.894c0.467,0.643,0.918,1.297,1.354,1.964
		c0.435,0.665,0.853,1.341,1.254,2.028c0.401,0.688,0.785,1.385,1.152,2.09c0.365,0.707,0.713,1.421,1.044,2.144
		c0.331,0.724,0.642,1.455,0.936,2.194c0.295,0.74,0.57,1.487,0.826,2.24c0.256,0.752,0.493,1.511,0.712,2.276
		c0.216,0.759,0.413,1.522,0.59,2.29c0.179,0.769,0.338,1.542,0.478,2.318c0.14,0.776,0.26,1.555,0.362,2.336
		c0.103,0.783,0.185,1.567,0.248,2.354c0.063,0.785,0.107,1.573,0.132,2.362c0.024,0.788,0.029,1.577,0.014,2.366
		c-0.015,0.788-0.048,1.575-0.102,2.362c-0.052,0.788-0.124,1.573-0.216,2.356c-0.092,0.784-0.203,1.565-0.334,2.342
		c-0.129,0.777-0.279,1.551-0.448,2.322c-0.168,0.771-0.355,1.537-0.56,2.298c-0.207,0.761-0.431,1.517-0.674,2.268
		c-0.244,0.751-0.505,1.495-0.784,2.232c-0.28,0.737-0.578,1.467-0.894,2.19c-0.316,0.723-0.649,1.437-1,2.144
		s-0.718,1.404-1.104,2.092c-6.908,12.34-17.637,18.866-30.867,22.754c-11.037,0.62-20.578,0.534-30.775-4.28
		c-0.676-0.312-1.343-0.64-2.001-0.984c-0.66-0.345-1.31-0.706-1.951-1.082c-0.641-0.377-1.273-0.77-1.896-1.178
		c-0.621-0.409-1.232-0.833-1.833-1.272c-0.601-0.439-1.191-0.892-1.77-1.36c-0.578-0.467-1.145-0.949-1.7-1.446
		c-0.554-0.496-1.096-1.005-1.625-1.528c-0.529-0.523-1.045-1.058-1.547-1.606c-0.503-0.549-0.992-1.11-1.468-1.682
		c-0.474-0.573-0.935-1.157-1.382-1.752c-0.445-0.596-0.876-1.203-1.292-1.82c-0.416-0.617-0.816-1.244-1.202-1.88
		c-0.385-0.637-0.754-1.283-1.106-1.938c-0.353-0.656-0.69-1.32-1.01-1.992c-0.32-0.671-0.623-1.35-0.91-2.038
		c-0.287-0.687-0.556-1.38-0.808-2.08c-4.297-12.19-3.085-26.422,2.629-37.952
		C1483.812,1387.668,1494.73,1380.978,1508.786,1376.342z"/>
	<path style="fill:#FEFEFE;" d="M1537.675,1408.85c2.979,1.37,4.331,3.166,5.64,6.02c-2.337,10.26-17.563,21.368-25.073,28.406
		c-5.578-4.592-10.677-10.062-15.861-15.108c-2.261-2.1-4.145-4.13-6.06-6.552c0.522-4.01,3.909-6.27,6.698-9.11
		c5.343,4.668,10.281,9.914,15.317,14.916C1524.581,1420.974,1531.001,1414.852,1537.675,1408.85z"/>
	<path style="fill:#BAE4D6;" d="M875.218,1329.87c114.164,1.158,228.393-1.518,342.576,0.104
		c20.071,0.268,40.142,0.273,60.212,0.014c13.448-0.238,27.53-1.42,40.896-0.208c6.674,0.606,12.142,2.014,17.473,6.3
		c6.046,4.862,9.531,10.964,10.409,18.68c2.279,20.046,0.242,42.424,0.272,62.718c0.038,25.688,2.657,69.21-0.898,92.854
		c-0.72,4.796-2.713,8.818-5.942,12.438c-5.972,6.696-13.132,9.102-21.735,9.81c-90.051,2.136-180.606-0.018-270.72,0.072
		l-109.807,0.282c-21.076,0.164-42.621,1.358-63.633,0.188c-5.982-0.332-10.909-1.292-15.981-4.756
		c-6.382-4.36-9.125-10.39-10.439-17.81c-3.649-20.634-0.012-45.418-0.002-66.536c0.01-24.704-2.851-63.204,0.076-86.174
		c0.802-6.3,3.105-12.748,6.914-17.848C860.226,1332.85,866.82,1330.834,875.218,1329.87z"/>
	<path style="fill:#7596ED;" d="M1042.813,1385.86c34.4-0.72,69.051,0.322,103.481,0.412c22.659,0.06,47.414-1.86,69.787,1.24
		c2.293,1.934,2.251,2.218,2.985,5.164c-1.713,3-2.135,3.21-5.214,4.838c-20.078,0.008-171.012,1.864-175.575-1.768
		c-1.594-1.27-1.252-2.11-1.545-4.006C1038.742,1387.942,1038.936,1387.694,1042.813,1385.86z"/>
	<path style="fill:#7596ED;" d="M1037.979,1418.866c51.109-0.678,102.337,0.308,153.458,0.384
		c29.369,0.044,59.188-1.528,88.483-0.326c2.857,0.118,4.499,0.314,6.954,1.872c1.697,3.862,1.148,5.524,0.696,9.648
		c-42.855,2.348-86.87,0.354-129.847,0.32c-37.463-0.028-76.029,2.016-113.376-0.166c-2.399-0.14-3.629-0.48-5.638-1.802
		C1036.971,1425.29,1037.509,1422.66,1037.979,1418.866z"/>
	<path style="fill:#7596ED;" d="M1041.627,1456.452c29.569-0.654,234.429-2.574,243.252,0.356c2.439,0.81,2.599,1.84,3.701,3.974
		c-0.574,4.434-0.754,5.132-3.583,8.564l-176.131,0.006c-13.872,0.032-54.847,2.184-65.624-0.414
		c-3.167-0.764-3.979-2.38-5.566-5.018C1038.37,1460.032,1039.15,1459.378,1041.627,1456.452z"/>
	<path style="fill:#1BAFA2;" d="M935.915,1378.85c11.387-0.632,21.046-0.5,31.523,4.514c0.698,0.331,1.388,0.679,2.069,1.046
		c0.682,0.365,1.355,0.747,2.017,1.146c0.663,0.399,1.314,0.814,1.956,1.246c0.642,0.431,1.274,0.877,1.893,1.34
		s1.228,0.94,1.826,1.432c0.596,0.492,1.179,0.999,1.749,1.522c0.572,0.521,1.13,1.057,1.675,1.606
		c0.544,0.548,1.074,1.11,1.591,1.686c0.517,0.575,1.02,1.163,1.508,1.764c0.488,0.6,0.96,1.212,1.417,1.836
		c0.457,0.623,0.899,1.257,1.326,1.904c0.427,0.645,0.836,1.301,1.23,1.966c0.393,0.667,0.77,1.342,1.132,2.026
		c0.36,0.685,0.703,1.379,1.03,2.08c0.325,0.701,0.633,1.411,0.924,2.128c0.292,0.716,0.565,1.439,0.82,2.17
		c0.247,0.7,0.475,1.406,0.686,2.118c0.211,0.712,0.404,1.429,0.58,2.15c0.176,0.721,0.334,1.447,0.474,2.176
		c0.14,0.729,0.261,1.462,0.364,2.198c0.104,0.735,0.189,1.472,0.256,2.212c0.068,0.739,0.117,1.479,0.146,2.222
		c0.031,0.741,0.043,1.483,0.036,2.226c-0.005,0.743-0.03,1.485-0.074,2.226c-0.043,0.741-0.104,1.481-0.184,2.22
		c-0.08,0.737-0.178,1.473-0.294,2.206s-0.25,1.463-0.402,2.19c-0.152,0.728-0.322,1.451-0.51,2.168
		c-0.188,0.719-0.394,1.432-0.618,2.14c-0.223,0.708-0.463,1.411-0.722,2.108c-0.257,0.696-0.533,1.385-0.826,2.068
		c-0.292,0.683-0.6,1.357-0.926,2.024c-6.982,14.282-19.012,21.886-33.638,26.738c-11.294,1.276-21.481,0.84-31.794-4.35
		c-0.685-0.348-1.362-0.713-2.029-1.094c-0.668-0.38-1.326-0.777-1.975-1.19c-0.648-0.413-1.286-0.842-1.914-1.286
		c-0.626-0.444-1.242-0.903-1.847-1.378c-0.605-0.475-1.198-0.964-1.78-1.468c-0.581-0.504-1.15-1.021-1.705-1.552
		c-0.555-0.532-1.096-1.077-1.625-1.634c-0.529-0.559-1.044-1.129-1.546-1.712c-0.501-0.583-0.988-1.178-1.46-1.786
		c-0.472-0.607-0.929-1.225-1.372-1.854c-0.441-0.629-0.867-1.269-1.278-1.92c-0.411-0.649-0.805-1.309-1.184-1.98
		c-0.377-0.669-0.738-1.347-1.084-2.034c-0.345-0.688-0.673-1.383-0.984-2.086c-0.312-0.704-0.606-1.415-0.882-2.132
		s-0.535-1.441-0.776-2.172c-0.248-0.748-0.476-1.502-0.684-2.262c-0.209-0.76-0.399-1.525-0.57-2.294
		c-0.169-0.769-0.319-1.543-0.45-2.32c-0.131-0.776-0.241-1.556-0.332-2.34c-0.091-0.783-0.161-1.567-0.212-2.352
		c-0.052-0.787-0.083-1.574-0.094-2.362c-0.011-0.788-0.001-1.576,0.028-2.364c0.029-0.787,0.079-1.573,0.148-2.358
		s0.159-1.568,0.268-2.348c0.109-0.78,0.239-1.557,0.388-2.33c0.148-0.775,0.316-1.545,0.504-2.31
		c0.188-0.765,0.396-1.525,0.624-2.28c0.227-0.755,0.472-1.503,0.736-2.244c0.265-0.743,0.549-1.477,0.852-2.204
		c0.301-0.728,0.622-1.448,0.962-2.16c0.339-0.711,0.695-1.413,1.07-2.106C910.943,1390.354,922.096,1383.076,935.915,1378.85z"/>
	<path style="fill:#FEFEFE;" d="M929.135,1415.066c6.806,2.794,11.744,8.474,16.935,13.506c5.42-5.2,11.165-11.828,18.986-12.71
		c3.035,1.914,3.005,2.198,4.311,5.582c-0.742,4.304-1.656,5.1-4.357,8.378l-18.612,16.322c-5.944-5.08-20.448-15.11-21.326-22.9
		C924.693,1419.862,927.268,1417.656,929.135,1415.066z"/>
	<path style="fill:#515EB1;" d="M983.667,651.074l680.74-0.086l200.364-0.092c27.162-0.036,69.371-2.524,94.247,0.588
		c13.464,1.684,27.082,9.11,36.577,18.678c1.362,1.4,2.665,2.855,3.907,4.366c1.24,1.511,2.413,3.071,3.519,4.682
		c1.106,1.609,2.139,3.263,3.099,4.962c0.96,1.699,1.853,3.435,2.679,5.21c0.813,1.773,1.553,3.579,2.219,5.416
		c0.667,1.837,1.253,3.7,1.759,5.588c0.506,1.887,0.933,3.791,1.28,5.714c0.333,1.924,0.593,3.859,0.78,5.804
		c-1.919,80.39,0.72,161.13,1.62,241.488c0.56,52.396-1.62,105.122-1.719,157.576c-0.14,64.222,1.579,128.924-0.34,193.09
		l0.26,94.798l-18.944-0.114l-0.176-596.242c-63.181-1.832-126.776-0.334-189.999-0.334l-338.044-0.304l-483.08,0.192
		c-72.796,0.114-145.682-0.896-218.464,0.252c0.026,141.804,1.57,283.848-0.302,425.622c-0.559,9.404-0.783,18.816-0.674,28.236
		c-6.472,1.516-12.876,2.858-18.974,5.572l0.516-538.252c1.64-17.948,8.989-35.772,21.783-48.64
		c10.495-10.554,24.578-18.12,39.06-21.408c21.212-4.814,46.126-2.26,67.903-2.268L983.667,651.074z"/>
	<path style="fill:#FEFEFE;" d="M1768.486,701.606c5.46-0.202,10.419-0.172,15.643,1.808c0.938,0.353,1.856,0.753,2.753,1.198
		c0.898,0.444,1.772,0.933,2.621,1.466c0.848,0.533,1.667,1.107,2.459,1.722c0.791,0.616,1.549,1.269,2.275,1.96
		c0.725,0.692,1.414,1.418,2.067,2.178c0.652,0.761,1.264,1.553,1.837,2.376c0.573,0.821,1.104,1.67,1.592,2.546
		c0.488,0.876,0.931,1.774,1.33,2.694c0.389,0.904,0.731,1.826,1.026,2.766c0.295,0.939,0.541,1.891,0.738,2.856
		c0.197,0.964,0.345,1.936,0.442,2.916c0.097,0.98,0.144,1.962,0.14,2.946c-0.002,0.985-0.056,1.967-0.16,2.946
		c-0.105,0.979-0.26,1.95-0.464,2.914c-0.204,0.963-0.456,1.913-0.758,2.85c-0.301,0.937-0.65,1.857-1.046,2.758
		c-4.135,9.34-11.532,13.842-20.562,17.442c-5.434,0.918-10.555,0.824-15.803-1.048c-0.92-0.331-1.819-0.707-2.699-1.13
		c-0.881-0.421-1.738-0.887-2.571-1.398c-0.833-0.511-1.638-1.062-2.415-1.654c-0.776-0.592-1.52-1.223-2.231-1.892
		c-0.713-0.669-1.39-1.373-2.029-2.11c-0.64-0.739-1.24-1.507-1.801-2.306c-0.563-0.8-1.082-1.627-1.56-2.48
		c-0.476-0.852-0.908-1.727-1.296-2.624c-0.221-0.497-0.429-0.999-0.622-1.506c-0.194-0.508-0.375-1.021-0.542-1.538
		c-0.168-0.517-0.322-1.039-0.462-1.564c-0.14-0.525-0.265-1.054-0.376-1.586c-0.112-0.532-0.21-1.067-0.294-1.604
		c-0.084-0.537-0.153-1.077-0.208-1.618c-0.056-0.54-0.097-1.082-0.124-1.626c-0.027-0.543-0.039-1.086-0.036-1.63
		c0.003-0.543,0.019-1.085,0.05-1.628c0.03-0.544,0.075-1.086,0.134-1.626c0.06-0.54,0.133-1.079,0.22-1.616
		c0.088-0.536,0.19-1.069,0.306-1.6c0.116-0.532,0.246-1.06,0.39-1.584s0.301-1.044,0.472-1.56c0.171-0.516,0.355-1.027,0.554-1.534
		c0.199-0.507,0.41-1.007,0.634-1.502C1752.409,708.698,1759.362,704.916,1768.486,701.606z"/>
	<path style="fill:#FEFEFE;" d="M1854.92,701.576c5.316-0.624,10.503-1.184,15.779,0.174c1.006,0.257,1.997,0.565,2.973,0.924
		c0.974,0.357,1.929,0.764,2.863,1.22c0.933,0.455,1.841,0.956,2.725,1.504c0.882,0.547,1.736,1.137,2.559,1.772
		c0.822,0.635,1.611,1.309,2.365,2.022c0.755,0.715,1.47,1.466,2.148,2.254c0.678,0.787,1.315,1.606,1.909,2.458
		c0.596,0.852,1.146,1.732,1.651,2.64c0.492,0.884,0.937,1.791,1.336,2.722c0.397,0.929,0.746,1.877,1.048,2.844
		c0.301,0.965,0.552,1.944,0.754,2.936c0.2,0.992,0.349,1.991,0.448,2.998c0.099,1.007,0.145,2.016,0.14,3.028
		c-0.005,1.012-0.062,2.021-0.17,3.026c-0.109,1.007-0.269,2.005-0.48,2.994c-0.212,0.989-0.473,1.965-0.784,2.928
		c-3.179,9.642-9.877,14.78-18.426,19.312c-4.847,0.71-9.591,1.482-14.46,0.424c-0.96-0.201-1.906-0.45-2.839-0.746
		c-0.934-0.296-1.851-0.639-2.751-1.028c-0.9-0.389-1.777-0.823-2.633-1.302c-0.856-0.477-1.685-0.997-2.487-1.558
		c-0.804-0.561-1.577-1.162-2.319-1.802c-0.742-0.64-1.451-1.316-2.125-2.028c-0.675-0.711-1.312-1.454-1.911-2.23
		c-0.599-0.776-1.157-1.58-1.676-2.412c-0.565-0.919-1.082-1.863-1.55-2.834c-0.468-0.972-0.885-1.965-1.252-2.98
		c-0.365-1.015-0.678-2.045-0.938-3.092c-0.259-1.047-0.463-2.104-0.614-3.172c-0.151-1.068-0.246-2.141-0.286-3.218
		c-0.04-1.079-0.025-2.156,0.046-3.232s0.197-2.145,0.378-3.208c0.181-1.064,0.417-2.115,0.706-3.154
		C1839.892,711.63,1846.188,706.45,1854.92,701.576z"/>
	<path style="fill:#283581;" d="M983.667,651.074l680.74-0.086l200.364-0.092c27.162-0.036,69.371-2.524,94.247,0.588
		c13.464,1.684,27.082,9.11,36.577,18.678c1.362,1.4,2.665,2.855,3.907,4.366c1.24,1.511,2.413,3.071,3.519,4.682
		c1.106,1.609,2.139,3.263,3.099,4.962c0.96,1.699,1.853,3.435,2.679,5.21c0.813,1.773,1.553,3.579,2.219,5.416
		c0.667,1.837,1.253,3.7,1.759,5.588c0.506,1.887,0.933,3.791,1.28,5.714c0.333,1.924,0.593,3.859,0.78,5.804
		c-1.919,80.39,0.72,161.13,1.62,241.488c0.56,52.396-1.62,105.122-1.719,157.576c-0.14,64.222,1.579,128.924-0.34,193.09
		l0.26,94.798l-18.944-0.114l-0.176-596.242c-1.64-26.484,3.189-73.794-2.459-96.76c-0.253-1.052-0.542-2.094-0.866-3.126
		c-0.324-1.032-0.683-2.051-1.078-3.058c-0.395-1.008-0.823-2.001-1.286-2.978c-0.463-0.977-0.958-1.938-1.486-2.882
		c-0.528-0.944-1.088-1.869-1.679-2.774c-0.592-0.905-1.214-1.789-1.865-2.652c-0.653-0.863-1.334-1.702-2.044-2.518
		c-0.71-0.816-1.447-1.607-2.211-2.372c-13.13-13.17-30.051-12.538-47.542-12.616l-757.069-0.058l-244.592-0.058l-74.853-0.002
		c-13.784,0.002-28.122-0.79-41.823,0.498c-10.845,1.02-23.583,8.652-31.189,16.35c-25.013,25.326-17.767,80.526-17.545,114.812
		c0.026,141.804,1.57,283.848-0.302,425.622c-0.559,9.404-0.783,18.816-0.674,28.236c-6.472,1.516-12.876,2.858-18.974,5.572
		l0.516-538.252c1.64-17.948,8.989-35.772,21.783-48.64c10.495-10.554,24.578-18.12,39.06-21.408
		c21.212-4.814,46.126-2.26,67.903-2.268L983.667,651.074z"/>
</g>
</svg>
